<svg width="119" height="74" viewBox="0 0 119 74" fill="none" xmlns="http://www.w3.org/2000/svg">
<path d="M67.4119 12.5293H65.5629C65.5115 12.5293 65.4636 12.5067 65.435 12.4694C65.4064 12.4321 65.4012 12.3848 65.4212 12.3434L67.5004 7.98241C67.5244 7.93218 67.5803 7.89968 67.6424 7.89968H97.7466C97.9511 7.98805 98.1558 8.07804 98.3593 8.1683H67.7448L65.7934 12.2607H106.069H67.6424C67.5803 12.2607 67.5244 12.2932 67.5004 12.3434L67.4119 12.5293Z" fill="#9DC7AC"/>
<path d="M114.424 9.08707V70.9387C114.424 72.4964 112.907 73.7591 111.036 73.7591H3.76632C1.89537 73.7591 0.378906 72.4964 0.378906 70.9387V9.08707C0.378906 7.67044 1.75981 6.52071 3.46121 6.52071H111.342C113.043 6.52071 114.424 7.67044 114.424 9.08707Z" fill="#0886AF"/>
<path d="M114.424 8.21006V11.7238H0.378906V8.21006C0.378906 7.27758 1.75981 6.52079 3.46121 6.52079H111.342C113.043 6.52079 114.424 7.27758 114.424 8.21006Z" fill="#17282F"/>
<path d="M73.8358 9.84375H13.1608C12.591 9.84375 12.1289 9.44029 12.1289 8.942C12.1289 8.44398 12.591 8.04052 13.1608 8.04052H73.8358C74.4057 8.04052 74.8677 8.44398 74.8677 8.942C74.8677 9.44029 74.4057 9.84375 73.8358 9.84375Z" fill="white"/>
<path d="M73.8357 9.84372V9.70941H13.1607C12.6758 9.70887 12.2834 9.36585 12.2825 8.94197C12.2834 8.51836 12.6758 8.17533 13.1607 8.1748H73.8357C74.3204 8.17533 74.713 8.51836 74.7139 8.94197C74.713 9.36585 74.3204 9.70887 73.8357 9.70941V9.84372V9.97803C74.4904 9.97803 75.021 9.51439 75.0213 8.94197C75.021 8.36981 74.4904 7.90618 73.8357 7.90618H13.1607C12.5058 7.90618 11.9752 8.36981 11.9751 8.94197C11.9752 9.51439 12.5058 9.97803 13.1607 9.97803H73.8357V9.84372Z" fill="#17282F"/>
<path d="M108.507 9.15552H112.428V8.8869H108.507V9.15552Z" fill="#17282F"/>
<path d="M108.507 9.87671H112.428V9.60809H108.507V9.87671Z" fill="#17282F"/>
<path d="M108.507 10.5983H112.428V10.3296H108.507V10.5983Z" fill="#17282F"/>
<path d="M108.139 69.809H6.97168V14.4857H108.139V69.809Z" fill="white"/>
<path d="M103.105 64.9798V64.8455H12.158V19.4492H102.952V64.9798H103.105V64.8455V64.9798H103.259V19.1806H11.8506V65.1141H103.259V64.9798H103.105Z" fill="#17282F"/>
<path d="M35.2046 31.6503H80.9668V31.3817H35.2046V31.6503Z" fill="#C9CDD3"/>
<path d="M96.9458 36.7509H100.112V36.4822H96.9458V36.7509Z" fill="#C9CDD3"/>
<path d="M69.8535 36.7509H95.2733V36.4822H69.8535V36.7509Z" fill="#C9CDD3"/>
<path d="M55.1372 36.7509H68.4042V36.4822H55.1372V36.7509Z" fill="#C9CDD3"/>
<path d="M35.4028 36.7509H53.7985V36.4822H35.4028V36.7509Z" fill="#C9CDD3"/>
<path d="M23.4741 36.7509H33.5079V36.4822H23.4741V36.7509Z" fill="#C9CDD3"/>
<path d="M16.0596 36.7509H22.0247V36.4822H16.0596V36.7509Z" fill="#C9CDD3"/>
<path d="M54.1338 39.199H100.112V38.9304H54.1338V39.199Z" fill="#C9CDD3"/>
<path d="M18.4565 39.199H52.6842V38.9304H18.4565V39.199Z" fill="#C9CDD3"/>
<path d="M16.0596 39.199H17.1191V38.9304H16.0596V39.199Z" fill="#C9CDD3"/>
<path d="M96.6108 41.6475H100.112V41.3788H96.6108V41.6475Z" fill="#C9CDD3"/>
<path d="M77.769 41.6475H94.9385V41.3788H77.769V41.6475Z" fill="#C9CDD3"/>
<path d="M51.792 41.6475H76.4312V41.3788H51.792V41.6475Z" fill="#C9CDD3"/>
<path d="M48.0015 41.6475H50.3425V41.3788H48.0015V41.6475Z" fill="#C9CDD3"/>
<path d="M16.0596 41.6475H45.995V41.3788H16.0596V41.6475Z" fill="#C9CDD3"/>
<path d="M86.1309 44.0957H100.112V43.8271H86.1309V44.0957Z" fill="#C9CDD3"/>
<path d="M36.1836 44.0957H84.7932V43.8271H36.1836V44.0957Z" fill="#C9CDD3"/>
<path d="M31.7241 44.0957H34.3998V43.8271H31.7241V44.0957Z" fill="#C9CDD3"/>
<path d="M16.0596 44.0957H30.2749V43.8271H16.0596V44.0957Z" fill="#C9CDD3"/>
<path d="M91.3716 46.5438H100.113V46.2752H91.3716V46.5438Z" fill="#C9CDD3"/>
<path d="M54.022 46.5438H89.5868V46.2752H54.022V46.5438Z" fill="#C9CDD3"/>
<path d="M39.751 46.5438H52.3491V46.2752H39.751V46.5438Z" fill="#C9CDD3"/>
<path d="M19.7949 46.5438H38.0791V46.2752H19.7949V46.5438Z" fill="#C9CDD3"/>
<path d="M16.0596 46.5438H18.6801V46.2752H16.0596V46.5438Z" fill="#C9CDD3"/>
<path d="M19.4546 57.1923L22.3401 63.7361L23.736 60.7781L27.1242 61.9839L23.8123 55.8371L19.4546 57.1923Z" fill="#5ADEC8" fill-opacity="0.25"/>
<path d="M19.4542 57.1923L19.3106 57.2403L22.1965 63.7844C22.2192 63.836 22.2749 63.8698 22.3379 63.8703C22.4012 63.8712 22.4578 63.8384 22.4821 63.7873L23.8193 60.9529L27.066 62.1082C27.1244 62.1289 27.192 62.1163 27.2354 62.0763C27.2787 62.0362 27.2898 61.9766 27.263 61.9266L23.9511 55.7799C23.9173 55.7175 23.8346 55.6875 23.7605 55.7106L19.4025 57.0655C19.3632 57.0778 19.3318 57.1031 19.3143 57.1361C19.2971 57.1692 19.2956 57.2065 19.3106 57.2403L19.4542 57.1923L19.5055 57.3188L23.7323 56.0044L26.817 61.7295L23.7934 60.6537C23.7154 60.6257 23.6256 60.6585 23.5936 60.7267L22.3447 63.3737L19.5974 57.1439L19.4542 57.1923L19.5055 57.3188L19.4542 57.1923Z" fill="#5ADEC8" fill-opacity="0.25"/>
<path d="M18.4265 55.7687L14.9375 62.0841L18.3616 60.9505L19.6727 63.9354L22.5386 57.6197L18.4265 55.7687Z" fill="#5ADEC8" fill-opacity="0.25"/>
<path d="M27.1169 54.1763C27.1169 53.9372 27.7092 53.6643 27.6717 53.4341C27.6333 53.1985 26.9764 53.0817 26.9014 52.8577C26.8248 52.6301 27.3047 52.2218 27.1934 52.0091C27.0809 51.7939 26.4129 51.8444 26.2678 51.647C26.1215 51.4488 26.4501 50.9387 26.274 50.7611C26.0972 50.5833 25.4726 50.7952 25.2691 50.6408C25.0659 50.4868 25.2178 49.9166 24.9906 49.789C24.765 49.6616 24.2341 50.0186 23.9879 49.9201C23.7444 49.8228 23.706 49.2383 23.4456 49.1714C23.1895 49.1059 22.7961 49.5795 22.5262 49.5459C22.263 49.5131 22.0374 48.9614 21.7638 48.9614C21.4902 48.9614 21.2646 49.5131 21.0012 49.5459C20.7316 49.5795 20.3381 49.1059 20.082 49.1714C19.8214 49.2383 19.7829 49.8228 19.5395 49.9203C19.2933 50.0186 18.7624 49.6619 18.5368 49.789C18.3096 49.9168 18.4614 50.4871 18.2582 50.6413C18.0544 50.7955 17.4301 50.5835 17.2534 50.7614C17.0772 50.9389 17.4058 51.449 17.2598 51.6475C17.1144 51.8447 16.4467 51.7945 16.3342 52.0096C16.2226 52.2221 16.7025 52.6304 16.6263 52.8579C16.5513 53.0817 15.8947 53.1985 15.8562 53.4344C15.8184 53.6643 16.4108 53.9372 16.4108 54.1763C16.4108 54.4154 15.8184 54.6886 15.8562 54.9185C15.8947 55.1543 16.5513 55.2712 16.6263 55.4949C16.7028 55.7225 16.223 56.1308 16.3342 56.3435C16.4467 56.5587 17.1147 56.5084 17.2598 56.7056C17.4061 56.9038 17.0775 57.4142 17.2537 57.5918C17.4304 57.7696 18.0551 57.5574 18.2586 57.7118C18.4617 57.8658 18.3099 58.436 18.5371 58.5639C18.7627 58.6909 19.2936 58.3342 19.5398 58.4325C19.7833 58.5298 19.8217 59.1146 20.082 59.1812C20.3381 59.2467 20.7316 58.7734 21.0015 58.807C21.2646 58.8398 21.4902 59.3912 21.7638 59.3912C22.0374 59.3912 22.263 58.8398 22.5265 58.807C22.7961 58.7734 23.1895 59.2467 23.4456 59.1812C23.7063 59.1146 23.7447 58.5298 23.9882 58.4323C24.2344 58.334 24.7653 58.6907 24.9909 58.5636C25.2181 58.4358 25.0662 57.8655 25.2694 57.7116C25.4732 57.5571 26.0975 57.7693 26.2743 57.5912C26.4504 57.4137 26.1218 56.9036 26.2678 56.7053C26.4132 56.5079 27.0809 56.5584 27.1934 56.3432C27.305 56.1305 26.8252 55.7225 26.9014 55.4949C26.9764 55.2709 27.6333 55.1541 27.6717 54.9185C27.7092 54.6883 27.1169 54.4154 27.1169 54.1763Z" fill="#5ADEC8" fill-opacity="0.25"/>
<path d="M27.1169 54.1763H27.2706C27.2687 54.1669 27.2823 54.1285 27.3268 54.0782C27.3911 54.0022 27.5057 53.9098 27.6096 53.8131C27.6616 53.7642 27.7117 53.7137 27.7523 53.657C27.7922 53.6004 27.8263 53.5348 27.827 53.4556L27.8239 53.4153C27.8036 53.3022 27.7218 53.2281 27.6416 53.1711C27.518 53.086 27.3671 53.0234 27.2457 52.9605C27.1851 52.9296 27.1325 52.8993 27.0981 52.8727C27.0628 52.8461 27.0499 52.8254 27.0486 52.82L27.0468 52.8042C27.0459 52.7824 27.0578 52.7381 27.084 52.6849C27.1227 52.6049 27.1879 52.5071 27.2466 52.4069C27.3041 52.3056 27.3616 52.2038 27.364 52.0821C27.364 52.0405 27.3554 51.9959 27.3333 51.9532C27.277 51.8498 27.1747 51.7995 27.0794 51.7652C26.9334 51.7141 26.7689 51.6916 26.6318 51.6612C26.5639 51.6467 26.5036 51.6303 26.4618 51.6134C26.4194 51.5965 26.4 51.5798 26.3969 51.5744C26.3923 51.5691 26.3825 51.5457 26.3828 51.503C26.3822 51.4385 26.4037 51.3415 26.4286 51.24C26.4529 51.1371 26.4806 51.0297 26.4809 50.922C26.4806 50.8411 26.4652 50.7503 26.3899 50.673C26.3321 50.6149 26.2571 50.5857 26.1867 50.5701C26.1154 50.5545 26.0437 50.551 25.9718 50.5507C25.8252 50.551 25.6733 50.5674 25.5531 50.5669C25.5006 50.5671 25.4551 50.5639 25.4231 50.5577C25.3905 50.5515 25.3742 50.5432 25.3699 50.5395C25.3619 50.5357 25.3364 50.4994 25.3226 50.4342C25.2992 50.3369 25.2955 50.1946 25.2777 50.0581C25.2682 49.9893 25.255 49.9214 25.2276 49.8553C25.2002 49.7906 25.1554 49.7221 25.0739 49.6759C25.0069 49.6382 24.9331 49.6267 24.8664 49.6267C24.7106 49.6286 24.5664 49.6799 24.4268 49.7231C24.2897 49.768 24.1572 49.8051 24.0911 49.8032L24.0515 49.7978C24.0435 49.7967 24.0075 49.7683 23.9731 49.7089C23.9196 49.6216 23.8701 49.4857 23.8086 49.3592C23.7773 49.2955 23.7425 49.2334 23.6949 49.1768C23.6476 49.1212 23.5821 49.0669 23.4889 49.0425C23.457 49.0344 23.425 49.0309 23.394 49.0309C23.2864 49.032 23.1991 49.0682 23.1173 49.1088C22.9956 49.1709 22.8812 49.2533 22.7773 49.3164C22.6753 49.3817 22.5806 49.4169 22.5545 49.4131L22.5477 49.4129H22.548C22.5406 49.414 22.497 49.3957 22.445 49.3471C22.3657 49.2764 22.2744 49.1582 22.1742 49.0519C22.1235 48.9987 22.0697 48.9474 22.0051 48.9049C21.9415 48.8633 21.861 48.8276 21.7638 48.827C21.6329 48.8286 21.5373 48.8885 21.461 48.9501C21.3467 49.0449 21.2545 49.1666 21.1659 49.2627C21.1223 49.3108 21.0805 49.3519 21.0457 49.378C21.0107 49.4046 20.9855 49.4126 20.9796 49.4129L20.9732 49.4131C20.956 49.4142 20.9074 49.4024 20.8475 49.3712C20.7565 49.3261 20.6449 49.2474 20.5293 49.1762C20.4119 49.1072 20.2945 49.0349 20.1334 49.0309C20.1026 49.0309 20.0704 49.0344 20.0384 49.0425H20.0387C19.9136 49.0763 19.8417 49.1574 19.7888 49.2351C19.7101 49.3541 19.6609 49.4932 19.6071 49.6076C19.5807 49.6643 19.5536 49.714 19.5287 49.7476C19.5035 49.782 19.4817 49.7962 19.4755 49.7981L19.4359 49.8034C19.3698 49.8053 19.2373 49.7683 19.1005 49.7234C18.9607 49.6802 18.8165 49.6289 18.6609 49.627C18.5942 49.627 18.5205 49.6385 18.4534 49.6761C18.3443 49.7395 18.3022 49.8349 18.2767 49.9222C18.2398 50.0557 18.2376 50.201 18.2229 50.324C18.2158 50.385 18.206 50.4393 18.1928 50.4777C18.1795 50.5172 18.1633 50.5362 18.1574 50.5397H18.1577C18.1531 50.5435 18.1368 50.5521 18.1042 50.558C18.0723 50.5642 18.0268 50.5674 17.9742 50.5674C17.8543 50.5677 17.7025 50.5513 17.5555 50.551C17.4836 50.5513 17.4123 50.5548 17.3407 50.5704C17.2703 50.5859 17.1953 50.6155 17.1375 50.6735C17.0622 50.7506 17.0468 50.8417 17.0465 50.9222C17.0468 51.03 17.0744 51.1377 17.0987 51.2403C17.1236 51.3421 17.1452 51.4391 17.1448 51.5033C17.1452 51.546 17.1353 51.5696 17.1304 51.5747H17.1307C17.1279 51.582 17.0904 51.6091 17.0182 51.6303C16.9115 51.6642 16.7505 51.6875 16.5983 51.7227C16.5221 51.7407 16.4467 51.7617 16.3757 51.795C16.3063 51.828 16.2352 51.8766 16.1944 51.9537C16.1719 51.9962 16.1636 52.041 16.1636 52.0824C16.1642 52.1641 16.1922 52.2355 16.2254 52.3051C16.2761 52.4085 16.3447 52.509 16.3973 52.5998C16.4514 52.6895 16.4833 52.7714 16.4809 52.8044L16.4787 52.82C16.4787 52.827 16.452 52.8622 16.3896 52.9003C16.298 52.9592 16.151 53.0212 16.0167 53.0927C15.9491 53.1289 15.8836 53.1681 15.8264 53.2176C15.7702 53.2667 15.7179 53.3312 15.7038 53.4153L15.7007 53.4556C15.7025 53.5619 15.7591 53.6414 15.819 53.7118C15.9109 53.8169 16.0305 53.9103 16.1221 53.9971C16.1676 54.0401 16.2057 54.0806 16.2285 54.1134C16.2522 54.1465 16.2577 54.169 16.2571 54.1763C16.2589 54.1857 16.2454 54.2241 16.2008 54.2743C16.1366 54.3503 16.0219 54.4427 15.918 54.5394C15.8661 54.5883 15.816 54.6388 15.7754 54.6958C15.7354 54.7522 15.7013 54.8177 15.7007 54.8972L15.7041 54.9375C15.724 55.0506 15.8058 55.1245 15.886 55.1814C16.0096 55.2669 16.1606 55.3292 16.282 55.3923C16.3425 55.4229 16.3951 55.4535 16.4295 55.4799C16.4649 55.5065 16.4778 55.5271 16.479 55.5325L16.4809 55.5484C16.4818 55.5701 16.4698 55.6144 16.4437 55.6676C16.4049 55.7477 16.3398 55.8455 16.2811 55.9457C16.2236 56.0469 16.1661 56.1487 16.1636 56.2707C16.1636 56.312 16.1722 56.3569 16.1944 56.3993C16.2506 56.5028 16.353 56.5533 16.4483 56.5876C16.5943 56.6384 16.7588 56.661 16.8959 56.6913C16.9638 56.7061 17.024 56.7222 17.0658 56.7391C17.1083 56.7561 17.1276 56.773 17.1307 56.7781C17.1353 56.7835 17.1452 56.8071 17.1448 56.8495C17.1455 56.914 17.1239 57.011 17.099 57.1128C17.0748 57.2154 17.0471 57.3229 17.0468 57.4308C17.0471 57.5114 17.0625 57.6025 17.1378 57.6796C17.1956 57.7376 17.2706 57.7671 17.341 57.7825C17.4123 57.798 17.4839 57.8018 17.5555 57.8018C17.7025 57.8015 17.8546 57.7854 17.9745 57.7857C18.0271 57.7857 18.0726 57.7886 18.1045 57.7948C18.1371 57.801 18.1534 57.8096 18.1577 57.8131C18.1657 57.8168 18.1912 57.8531 18.2051 57.9186C18.2284 58.0156 18.2321 58.1582 18.2499 58.2944C18.2595 58.3632 18.2727 58.4314 18.3 58.4972C18.3274 58.5623 18.3723 58.6305 18.4537 58.6767C18.5208 58.7143 18.5945 58.7258 18.6612 58.7258C18.8168 58.724 18.961 58.6727 19.1008 58.6294C19.2379 58.5845 19.3704 58.5475 19.4365 58.5494L19.4758 58.5545C19.4841 58.5558 19.5201 58.5843 19.5545 58.6436C19.608 58.7312 19.6575 58.8671 19.719 58.9936C19.7504 59.057 19.7851 59.1194 19.8327 59.1758C19.8801 59.2314 19.9456 59.2859 20.0387 59.3101C20.0707 59.3184 20.1029 59.3219 20.1337 59.3219C20.2413 59.3206 20.3286 59.2846 20.4103 59.244C20.5321 59.1817 20.6464 59.0995 20.7503 59.0361C20.8524 58.9711 20.9471 58.9356 20.9732 58.9394L20.9796 58.9399C20.987 58.9389 21.0307 58.9568 21.0826 59.0055C21.1619 59.0761 21.2532 59.1943 21.3534 59.3007C21.4042 59.3541 21.458 59.4052 21.5225 59.4476C21.5861 59.4892 21.6667 59.5252 21.7638 59.5255C21.8948 59.5239 21.9904 59.464 22.0666 59.4025C22.181 59.3077 22.2732 59.1862 22.3617 59.0898C22.4054 59.0417 22.4472 59.0009 22.4819 58.9748C22.517 58.948 22.5422 58.9399 22.548 58.9399L22.5545 58.9394C22.5717 58.9383 22.6202 58.9504 22.6802 58.9813C22.7712 59.0267 22.8828 59.1054 22.9983 59.1766C23.1158 59.2456 23.2332 59.3176 23.3943 59.3219C23.425 59.3219 23.4573 59.3181 23.4889 59.3101C23.6141 59.2765 23.686 59.1951 23.7389 59.1175C23.8176 58.9985 23.8667 58.8593 23.9205 58.7452C23.947 58.6882 23.974 58.6385 23.9989 58.605C24.0241 58.5706 24.046 58.5563 24.0521 58.5545L24.0918 58.5491C24.1575 58.5475 24.29 58.5843 24.4271 58.6294C24.567 58.6724 24.7112 58.7237 24.8667 58.7256C24.9334 58.7258 25.0072 58.714 25.0742 58.6764C25.1833 58.6133 25.2254 58.5177 25.251 58.4304C25.2878 58.2971 25.29 58.1515 25.3048 58.0288C25.3118 57.9678 25.3217 57.9133 25.3349 57.8749C25.3481 57.8356 25.3644 57.8166 25.3702 57.8128C25.3745 57.8093 25.3908 57.8007 25.4234 57.7945C25.4554 57.7886 25.5009 57.7854 25.5534 57.7854C25.6733 57.7851 25.8252 57.8013 25.9721 57.8015C26.044 57.8015 26.1154 57.7978 26.1867 57.7822C26.2574 57.7669 26.3324 57.7373 26.3902 57.6793C26.4655 57.6019 26.4809 57.5112 26.4812 57.4303C26.4809 57.3226 26.4532 57.2151 26.4289 57.1123C26.404 57.0107 26.3825 56.9137 26.3828 56.8493C26.3825 56.8066 26.3923 56.7832 26.3969 56.7778C26.4 56.7706 26.4372 56.7434 26.5094 56.7222C26.6161 56.6884 26.7772 56.665 26.9294 56.6301C27.0056 56.6118 27.0809 56.5909 27.1519 56.5578C27.2214 56.5248 27.2924 56.4762 27.3333 56.3991C27.3557 56.3564 27.364 56.3118 27.364 56.2701C27.3634 56.1885 27.3354 56.117 27.3022 56.0475C27.2515 55.944 27.183 55.8436 27.1304 55.7528C27.0763 55.6631 27.0443 55.5814 27.0468 55.5484L27.0486 55.5325C27.0489 55.5255 27.076 55.4903 27.1381 55.4522C27.2297 55.3936 27.3766 55.3313 27.511 55.2599C27.5786 55.2236 27.6441 55.1847 27.7012 55.135C27.7575 55.0858 27.8097 55.0213 27.8239 54.9373L27.827 54.897C27.8251 54.7906 27.7686 54.7111 27.7086 54.6407C27.6167 54.5357 27.4971 54.4422 27.4055 54.3554C27.36 54.3125 27.3219 54.2719 27.2992 54.2391C27.2755 54.2061 27.27 54.1835 27.2706 54.1763H27.1169H26.9632C26.965 54.2829 27.0207 54.3643 27.0809 54.4355C27.1728 54.5421 27.293 54.6361 27.3849 54.7226C27.4307 54.7653 27.4688 54.8056 27.4916 54.8379C27.5153 54.8704 27.5202 54.8919 27.5196 54.897V54.8994C27.5205 54.9042 27.5054 54.9332 27.4495 54.9714C27.3686 55.0289 27.2254 55.0917 27.0901 55.1602C27.0222 55.1951 26.9555 55.2322 26.8958 55.2776C26.8371 55.323 26.7809 55.3786 26.7538 55.457C26.7434 55.4879 26.7394 55.5188 26.7394 55.5484C26.74 55.6303 26.7677 55.7023 26.8012 55.7721C26.8519 55.8761 26.9204 55.9768 26.973 56.0676C27.0271 56.1568 27.0591 56.2384 27.0566 56.2701L27.0539 56.2873C27.0535 56.2914 27.0302 56.3155 26.9641 56.3384C26.8679 56.3733 26.7102 56.398 26.558 56.4302C26.4815 56.4472 26.4052 56.466 26.3333 56.495C26.262 56.524 26.1901 56.5637 26.1387 56.6325C26.0871 56.7034 26.076 56.7789 26.0754 56.8493C26.076 56.9573 26.1037 57.065 26.128 57.1676C26.1529 57.2694 26.1744 57.3664 26.1738 57.4303C26.1741 57.4805 26.1612 57.5015 26.1581 57.5034C26.1556 57.506 26.1449 57.5144 26.1117 57.5219C26.0794 57.5291 26.0299 57.5332 25.9721 57.5329C25.8522 57.5332 25.7001 57.5171 25.5534 57.5168C25.4883 57.5168 25.4234 57.52 25.3585 57.5321C25.2943 57.5445 25.2273 57.5659 25.1689 57.61C25.0751 57.6833 25.0432 57.7763 25.0213 57.8649C24.9909 57.9992 24.9894 58.1448 24.9728 58.2627C24.9648 58.321 24.9534 58.3715 24.9393 58.4043C24.9251 58.4384 24.9113 58.4489 24.9079 58.4508C24.9048 58.4524 24.8947 58.457 24.8667 58.457C24.8015 58.4588 24.6694 58.422 24.5323 58.3769C24.3924 58.3337 24.2479 58.2824 24.0918 58.2805C24.038 58.2807 23.9805 58.2877 23.9242 58.3103C23.8108 58.3576 23.7509 58.4387 23.7014 58.5185C23.6291 58.6396 23.5806 58.7788 23.5264 58.8875C23.5 58.9418 23.4727 58.9875 23.4484 59.0154C23.4238 59.0444 23.4069 59.0514 23.4026 59.0525V59.0522L23.3943 59.0533C23.3792 59.0544 23.3313 59.0425 23.2716 59.0116C23.1815 58.9662 23.0697 58.8873 22.9535 58.8161C22.8354 58.7468 22.7161 58.6748 22.5545 58.6708L22.5047 58.674C22.3805 58.6915 22.2972 58.7543 22.2243 58.8185C22.1161 58.9168 22.0248 59.0382 21.9375 59.1293C21.8948 59.1747 21.8536 59.2115 21.821 59.2327C21.7878 59.2545 21.7694 59.2572 21.7638 59.2569C21.758 59.2585 21.7229 59.2494 21.6713 59.2067C21.5948 59.1446 21.5031 59.0296 21.4063 58.9225C21.3571 58.8687 21.3061 58.8164 21.2465 58.7712C21.1868 58.7269 21.1158 58.6861 21.023 58.674H21.0233L20.9732 58.6708C20.865 58.6718 20.7768 58.7078 20.6944 58.7484C20.5714 58.8107 20.4568 58.8932 20.3529 58.9566C20.2514 59.0219 20.1567 59.0573 20.1337 59.0533L20.1254 59.0525C20.1202 59.0527 20.0897 59.0358 20.0544 58.9818C20.0009 58.9037 19.9505 58.7707 19.8921 58.6439C19.8623 58.5802 19.83 58.5171 19.7869 58.4588C19.7439 58.4016 19.6889 58.3449 19.6037 58.3103C19.5478 58.288 19.4903 58.2807 19.4365 58.2807C19.2803 58.2826 19.1356 58.3339 18.9957 58.3772C18.8586 58.422 18.7261 58.4591 18.6612 58.4572C18.6333 58.4572 18.6228 58.4527 18.6201 58.451C18.6157 58.4505 18.5918 58.4266 18.5755 58.3662C18.5497 58.2781 18.5441 58.1381 18.5291 58.0016C18.5208 57.9332 18.51 57.8647 18.4876 57.798C18.4645 57.7322 18.4298 57.6645 18.3591 57.6103C18.3007 57.5662 18.234 57.5445 18.1697 57.5324C18.1049 57.5203 18.04 57.5171 17.9745 57.5171C17.8279 57.5173 17.6757 57.5337 17.5555 57.5332C17.4977 57.5334 17.4482 57.5294 17.4163 57.5222C17.3831 57.5146 17.3723 57.5063 17.3699 57.5036C17.3668 57.502 17.3536 57.4808 17.3542 57.4308C17.3536 57.3666 17.3751 57.2697 17.4 57.1679C17.424 57.0652 17.4516 56.9575 17.4522 56.8495C17.4519 56.7792 17.4406 56.7037 17.3892 56.6328C17.3191 56.5414 17.2186 56.5009 17.1215 56.4695C16.9736 56.4241 16.8092 56.402 16.6779 56.3709C16.613 56.3558 16.5574 56.3386 16.5221 56.3217C16.4858 56.3045 16.4756 56.2914 16.4741 56.2876L16.471 56.2707C16.4704 56.2497 16.4821 56.2057 16.5085 56.153C16.547 56.0732 16.6124 55.9755 16.6711 55.875C16.7286 55.7732 16.7861 55.6709 16.7883 55.5484C16.7883 55.5188 16.7843 55.4879 16.7738 55.457C16.7363 55.3523 16.653 55.2889 16.57 55.2349C16.4431 55.1551 16.2927 55.0933 16.1772 55.031C16.1197 55.0004 16.072 54.97 16.0437 54.9451C16.0142 54.9195 16.0087 54.9039 16.0081 54.8997V54.8972C16.0062 54.8908 16.0191 54.8529 16.0637 54.8032C16.1283 54.728 16.2432 54.6356 16.3475 54.5381C16.3997 54.4887 16.4498 54.4376 16.4904 54.3799C16.5304 54.3224 16.5639 54.2558 16.5645 54.1763C16.5626 54.0696 16.5067 53.9885 16.4467 53.9171C16.3548 53.8104 16.2346 53.7164 16.1427 53.6299C16.0969 53.5872 16.0588 53.5469 16.0361 53.5147C16.0124 53.4824 16.0075 53.4607 16.0081 53.4556V53.4532C16.0072 53.4483 16.0222 53.4193 16.0782 53.3812C16.159 53.3237 16.3023 53.2608 16.4375 53.1923C16.5055 53.1574 16.5722 53.1203 16.6318 53.0752C16.6905 53.0298 16.7468 52.9742 16.7738 52.8958C16.7843 52.8646 16.7883 52.834 16.7883 52.8044C16.7876 52.7225 16.76 52.6503 16.7265 52.5807C16.6758 52.4765 16.6072 52.3757 16.5546 52.2852C16.5005 52.1958 16.4686 52.1141 16.471 52.0824L16.4738 52.0655C16.4741 52.0612 16.4975 52.037 16.5636 52.0144C16.6598 51.9795 16.8178 51.9548 16.9696 51.9223C17.0462 51.9056 17.1224 51.8866 17.1943 51.8576C17.2657 51.8286 17.3376 51.7888 17.3889 51.7203C17.4406 51.6491 17.4516 51.5736 17.4522 51.5033C17.4516 51.3953 17.424 51.2878 17.3997 51.185C17.3748 51.0831 17.3533 50.9864 17.3539 50.9222C17.3536 50.8723 17.3665 50.8511 17.3696 50.8494C17.372 50.8468 17.3831 50.8382 17.416 50.8309C17.4482 50.8237 17.4977 50.8196 17.5555 50.8196C17.6754 50.8194 17.8276 50.8355 17.9742 50.836C18.0394 50.8357 18.1042 50.8328 18.1691 50.8207C18.2333 50.8083 18.3004 50.7866 18.3588 50.7428L18.364 50.7388L18.3591 50.7425C18.4525 50.6692 18.4845 50.5765 18.5063 50.4876C18.5367 50.3533 18.5383 50.2077 18.5549 50.0901C18.5629 50.0315 18.5742 49.981 18.5884 49.9482C18.6025 49.9144 18.6164 49.9036 18.6201 49.9018C18.6225 49.9002 18.633 49.8956 18.6609 49.8956C18.7258 49.8937 18.8583 49.9308 18.9951 49.9756C19.1349 50.0189 19.2797 50.0702 19.4359 50.0721C19.4897 50.0721 19.5472 50.0648 19.6034 50.0423C19.7169 49.995 19.7768 49.9139 19.8263 49.8341C19.8985 49.7129 19.9471 49.5738 20.0012 49.465C20.0276 49.411 20.055 49.3653 20.0793 49.3371C20.1039 49.3081 20.1208 49.3011 20.1251 49.3003H20.1254L20.1334 49.2995C20.1484 49.2984 20.1964 49.31 20.256 49.3412C20.3461 49.3863 20.458 49.4653 20.5742 49.5367C20.6922 49.6057 20.8112 49.678 20.9732 49.6818L21.023 49.6788C21.1472 49.6614 21.2305 49.5982 21.3033 49.534C21.4115 49.4357 21.5028 49.3146 21.5901 49.2235C21.6329 49.1781 21.6741 49.141 21.7066 49.1201C21.7398 49.0983 21.7583 49.0954 21.7638 49.0956C21.7697 49.0943 21.8047 49.1032 21.8564 49.1461C21.9329 49.2079 22.0245 49.3229 22.1213 49.4301C22.1705 49.4838 22.2215 49.5362 22.2812 49.5816C22.3408 49.6259 22.4118 49.6665 22.5047 49.6788L22.5087 49.6794L22.5047 49.6788L22.5545 49.6818C22.6627 49.6807 22.7509 49.6447 22.8333 49.6041C22.9562 49.5418 23.0709 49.4594 23.1748 49.3962C23.2762 49.3307 23.3709 49.2955 23.394 49.2995L23.4023 49.3003C23.4075 49.3001 23.4379 49.317 23.4733 49.3707C23.5268 49.4489 23.5772 49.5818 23.6356 49.7086C23.6654 49.7726 23.6977 49.8357 23.7407 49.8937C23.7837 49.9512 23.8388 50.0076 23.9239 50.0423C23.9799 50.0645 24.0373 50.0718 24.0911 50.0718C24.2473 50.0699 24.3921 50.0186 24.532 49.9754C24.6691 49.9305 24.8012 49.8934 24.8664 49.8953C24.8944 49.8956 24.9045 49.9002 24.9076 49.9018C24.9119 49.9023 24.9359 49.9259 24.9522 49.9864C24.978 50.0745 24.9835 50.2147 24.9986 50.3509C25.0069 50.4194 25.0176 50.4879 25.0401 50.5545C25.0631 50.6203 25.0979 50.688 25.1686 50.7423C25.227 50.7863 25.294 50.8081 25.3582 50.8202C25.4231 50.8323 25.488 50.8355 25.5531 50.8355C25.7001 50.8352 25.8519 50.8191 25.9718 50.8194C26.0299 50.8194 26.0791 50.8234 26.1114 50.8306C26.1446 50.8379 26.1553 50.8465 26.1578 50.8489C26.1609 50.8508 26.1741 50.8717 26.1735 50.922C26.1741 50.9862 26.1526 51.0829 26.1277 51.1847C26.1034 51.2873 26.076 51.395 26.0754 51.503C26.0757 51.5734 26.0871 51.6489 26.1384 51.7198C26.2082 51.8111 26.309 51.8517 26.4062 51.8831C26.554 51.9285 26.7185 51.9508 26.8497 51.9819C26.9146 51.9967 26.9702 52.0139 27.0056 52.0308C27.0419 52.048 27.052 52.0614 27.0535 52.0649L27.0566 52.0821C27.0572 52.1028 27.0456 52.1469 27.0191 52.1995C26.9807 52.2793 26.9152 52.3771 26.8565 52.4775C26.799 52.5793 26.7415 52.6817 26.7394 52.8042C26.7394 52.8337 26.7434 52.8646 26.7538 52.8955C26.7913 53.0003 26.8746 53.0637 26.9576 53.1179C27.0846 53.1974 27.2349 53.2595 27.3505 53.3218C27.408 53.3524 27.4556 53.3828 27.4839 53.4078C27.5134 53.4333 27.5189 53.4489 27.5196 53.4532V53.4556C27.5214 53.4617 27.5085 53.4996 27.4639 53.5493C27.3994 53.6245 27.2844 53.7169 27.1802 53.8144C27.1279 53.8639 27.0778 53.9152 27.0373 53.9727C26.9973 54.0301 26.9638 54.0968 26.9632 54.1763H27.1169Z" fill="#17282F"/>
<path d="M25.4721 54.1763C25.4721 52.3865 23.8118 50.9357 21.7636 50.9357C19.7154 50.9357 18.0552 52.3865 18.0552 54.1763C18.0552 55.9661 19.7154 57.4169 21.7636 57.4169C23.8118 57.4169 25.4721 55.9661 25.4721 54.1763Z" fill="white"/>
<path d="M21.7642 51.9515L22.3359 53.4888H24.1855L22.6891 54.4389L23.2606 55.9762L21.7642 55.0261L20.2677 55.9762L20.8392 54.4389L19.3428 53.4888H21.1924L21.7642 51.9515Z" fill="#5ADEC8" fill-opacity="0.25"/>
<path d="M31.4775 52.7577H45.6179V52.4891H31.4775V52.7577Z" fill="#17282F"/>
<path d="M31.4775 55.7106H45.6179V55.442H31.4775V55.7106Z" fill="#17282F"/>
<path d="M97.4656 55.0391H97.6193C97.6193 52.4278 95.1973 50.3114 92.2094 50.3111C89.2211 50.3114 86.7988 52.4278 86.7988 55.0391C86.7988 57.65 89.2211 59.7667 92.2094 59.7667C95.1973 59.7667 97.6193 57.65 97.6193 55.0391H97.4656H97.3119C97.3119 56.2707 96.741 57.3846 95.8176 58.1921C94.8936 58.9993 93.6188 59.4981 92.2094 59.4981C90.7996 59.4981 89.5248 58.9993 88.6008 58.1921C87.6771 57.3846 87.1062 56.2707 87.1062 55.0391C87.1062 53.8072 87.6771 52.6932 88.6008 51.886C89.5248 51.0788 90.7996 50.58 92.2094 50.5798C93.6188 50.58 94.8936 51.0788 95.8176 51.886C96.741 52.6932 97.3119 53.8072 97.3119 55.0391H97.4656Z" fill="#17282F"/>
<path d="M95.7762 55.0391C95.7762 53.3176 94.1793 51.9221 92.2095 51.9221C90.2393 51.9221 88.6421 53.3176 88.6421 55.0391C88.6421 56.7604 90.2393 58.1559 92.2095 58.1559C94.1793 58.1559 95.7762 56.7604 95.7762 55.0391Z" fill="#5ADEC8" fill-opacity="0.25"/>
<path d="M13.05 27H14.05V34H13.05V27ZM17.5357 27.87H15.1357V27H20.9257V27.87H18.5257V34H17.5357V27.87ZM27.8304 34.08C27.1304 34.08 26.4971 33.9267 25.9304 33.62C25.3704 33.3067 24.9304 32.88 24.6104 32.34C24.2904 31.7933 24.1304 31.18 24.1304 30.5C24.1304 29.82 24.2904 29.21 24.6104 28.67C24.9304 28.1233 25.3737 27.6967 25.9404 27.39C26.5071 27.0767 27.1404 26.92 27.8404 26.92C28.3871 26.92 28.8871 27.0133 29.3404 27.2C29.7937 27.38 30.1804 27.65 30.5004 28.01L29.8504 28.64C29.3237 28.0867 28.6671 27.81 27.8804 27.81C27.3604 27.81 26.8904 27.9267 26.4704 28.16C26.0504 28.3933 25.7204 28.7167 25.4804 29.13C25.2471 29.5367 25.1304 29.9933 25.1304 30.5C25.1304 31.0067 25.2471 31.4667 25.4804 31.88C25.7204 32.2867 26.0504 32.6067 26.4704 32.84C26.8904 33.0733 27.3604 33.19 27.8804 33.19C28.6604 33.19 29.3171 32.91 29.8504 32.35L30.5004 32.98C30.1804 33.34 29.7904 33.6133 29.3304 33.8C28.8771 33.9867 28.3771 34.08 27.8304 34.08ZM37.007 33.13V34H31.927V27H36.867V27.87H32.927V30.02H36.437V30.87H32.927V33.13H37.007ZM43.3062 34L41.7962 31.85C41.6095 31.8633 41.4628 31.87 41.3562 31.87H39.6262V34H38.6262V27H41.3562C42.2628 27 42.9762 27.2167 43.4962 27.65C44.0162 28.0833 44.2762 28.68 44.2762 29.44C44.2762 29.98 44.1428 30.44 43.8762 30.82C43.6095 31.2 43.2295 31.4767 42.7362 31.65L44.3962 34H43.3062ZM41.3262 31.02C41.9595 31.02 42.4428 30.8833 42.7762 30.61C43.1095 30.3367 43.2762 29.9467 43.2762 29.44C43.2762 28.9333 43.1095 28.5467 42.7762 28.28C42.4428 28.0067 41.9595 27.87 41.3262 27.87H39.6262V31.02H41.3262ZM47.1841 27.87H44.7841V27H50.5741V27.87H48.1741V34H47.1841V27.87ZM51.6633 27H52.6633V34H51.6633V27ZM55.759 27.87V30.31H59.269V31.17H55.759V34H54.759V27H59.699V27.87H55.759ZM61.1066 27H62.1066V34H61.1066V27ZM67.3323 34.08C66.6323 34.08 65.999 33.9267 65.4323 33.62C64.8723 33.3067 64.4323 32.88 64.1123 32.34C63.7923 31.7933 63.6323 31.18 63.6323 30.5C63.6323 29.82 63.7923 29.21 64.1123 28.67C64.4323 28.1233 64.8757 27.6967 65.4423 27.39C66.009 27.0767 66.6423 26.92 67.3423 26.92C67.889 26.92 68.389 27.0133 68.8423 27.2C69.2957 27.38 69.6823 27.65 70.0023 28.01L69.3523 28.64C68.8257 28.0867 68.169 27.81 67.3823 27.81C66.8623 27.81 66.3923 27.9267 65.9723 28.16C65.5523 28.3933 65.2223 28.7167 64.9823 29.13C64.749 29.5367 64.6323 29.9933 64.6323 30.5C64.6323 31.0067 64.749 31.4667 64.9823 31.88C65.2223 32.2867 65.5523 32.6067 65.9723 32.84C66.3923 33.0733 66.8623 33.19 67.3823 33.19C68.1623 33.19 68.819 32.91 69.3523 32.35L70.0023 32.98C69.6823 33.34 69.2923 33.6133 68.8323 33.8C68.379 33.9867 67.879 34.08 67.3323 34.08ZM75.7229 32.25H72.0029L71.2329 34H70.2029L73.3729 27H74.3629L77.5429 34H76.4929L75.7229 32.25ZM75.3729 31.45L73.8629 28.02L72.3529 31.45H75.3729ZM79.6255 27.87H77.2255V27H83.0155V27.87H80.6155V34H79.6255V27.87ZM84.1047 27H85.1047V34H84.1047V27ZM90.3604 34.08C89.6537 34.08 89.0171 33.9267 88.4504 33.62C87.8837 33.3067 87.4371 32.8767 87.1104 32.33C86.7904 31.7833 86.6304 31.1733 86.6304 30.5C86.6304 29.8267 86.7904 29.2167 87.1104 28.67C87.4371 28.1233 87.8837 27.6967 88.4504 27.39C89.0171 27.0767 89.6537 26.92 90.3604 26.92C91.0604 26.92 91.6937 27.0767 92.2604 27.39C92.8271 27.6967 93.2704 28.1233 93.5904 28.67C93.9104 29.21 94.0704 29.82 94.0704 30.5C94.0704 31.18 93.9104 31.7933 93.5904 32.34C93.2704 32.88 92.8271 33.3067 92.2604 33.62C91.6937 33.9267 91.0604 34.08 90.3604 34.08ZM90.3604 33.19C90.8737 33.19 91.3337 33.0733 91.7404 32.84C92.1537 32.6067 92.4771 32.2867 92.7104 31.88C92.9504 31.4667 93.0704 31.0067 93.0704 30.5C93.0704 29.9933 92.9504 29.5367 92.7104 29.13C92.4771 28.7167 92.1537 28.3933 91.7404 28.16C91.3337 27.9267 90.8737 27.81 90.3604 27.81C89.8471 27.81 89.3804 27.9267 88.9604 28.16C88.5471 28.3933 88.2204 28.7167 87.9804 29.13C87.7471 29.5367 87.6304 29.9933 87.6304 30.5C87.6304 31.0067 87.7471 31.4667 87.9804 31.88C88.2204 32.2867 88.5471 32.6067 88.9604 32.84C89.3804 33.0733 89.8471 33.19 90.3604 33.19ZM101.619 27V34H100.799L96.5988 28.78V34H95.5988V27H96.4188L100.619 32.22V27H101.619Z" fill="#828282"/>
</svg>
