<svg width="142" height="83" viewBox="0 0 142 83" fill="none" xmlns="http://www.w3.org/2000/svg">
<path d="M0 82.2448H141.322" stroke="#100F0D" stroke-width="0.870321" stroke-miterlimit="10"/>
<path d="M82.9768 81.7869H48.5874V79.0633H82.9768V81.7869Z" fill="white"/>
<path d="M82.9768 81.7869H48.5874V79.608H82.9768V81.7869Z" stroke="#100F0D" stroke-width="0.823009" stroke-miterlimit="10"/>
<path d="M58.1333 30.0846C58.1333 30.0846 60.9795 31.8927 64.7335 36.2177C69.4656 41.6699 75.6501 50.0719 79.5107 52.14C88.2219 56.8064 102.331 57.5116 102.331 57.5116L95.7332 70.4965L64.2522 66.5829L58.1333 30.0846Z" fill="white"/>
<path d="M58.1333 30.0846C58.1333 30.0846 60.9795 31.8927 64.7335 36.2177C69.4656 41.6699 75.6501 50.0719 79.5107 52.14C88.2219 56.8064 102.331 57.5116 102.331 57.5116L95.7332 70.4965L64.2522 66.5829L58.1333 30.0846Z" stroke="#100F0D" stroke-width="0.823009" stroke-miterlimit="10"/>
<path d="M76.254 60.5859C75.5998 60.7036 74.966 60.2533 74.8389 59.5808L74.1254 55.8048C73.9983 55.1323 74.4259 54.4917 75.0805 54.3744C75.7347 54.2571 76.3688 54.707 76.4956 55.3799L77.2091 59.1555C77.3362 59.8284 76.9086 60.469 76.254 60.5859Z" fill="#FB9D75"/>
<path d="M70.2707 50.2387C69.6161 50.3563 68.9827 49.9057 68.8552 49.2331L68.1421 45.4572C68.0146 44.7846 68.4422 44.144 69.0968 44.0268C69.7514 43.9095 70.3852 44.3598 70.5123 45.0323L71.2258 48.8082C71.3525 49.4808 70.9253 50.1214 70.2707 50.2387Z" fill="#FB9D75"/>
<path d="M81.2467 67.2257C80.5924 67.343 79.9587 66.8927 79.8316 66.2201L79.1181 62.4446C78.991 61.7717 79.4185 61.1311 80.0732 61.0138C80.7274 60.8965 81.3611 61.3464 81.4882 62.0193L82.2017 65.7949C82.3289 66.4678 81.9013 67.108 81.2467 67.2257Z" fill="#FB9D75"/>
<path d="M85.1969 62.6482C84.5423 62.7655 83.9089 62.3152 83.7818 61.6426L83.0683 57.8667C82.9411 57.1941 83.3687 56.5536 84.023 56.4363C84.6776 56.3186 85.3113 56.7693 85.4384 57.4418L86.1519 61.2178C86.2791 61.8903 85.8515 62.5309 85.1969 62.6482Z" fill="#FB9D75"/>
<path d="M91.6171 69.1968C90.9628 69.3144 90.3287 68.8638 90.2016 68.1912L89.4881 64.4157C89.3613 63.7431 89.7889 63.1022 90.4435 62.9852C91.0978 62.8679 91.7315 63.3179 91.8586 63.9904L92.5721 67.7664C92.6992 68.4389 92.2717 69.0795 91.6171 69.1968Z" fill="#5C42A3"/>
<path d="M96.2589 64.0398C95.6043 64.1571 94.9706 63.7071 94.8438 63.0346L94.1303 59.2586C94.0032 58.5861 94.4304 57.9455 95.085 57.8282C95.7396 57.7109 96.373 58.1609 96.5001 58.8334L97.2136 62.6093C97.3407 63.2819 96.9131 63.9228 96.2589 64.0398Z" fill="#5C42A3"/>
<path d="M51.9514 29.4781C51.9514 29.4781 61.057 25.0583 69.1095 45.7476C74.717 60.1545 72.8788 70.438 72.8788 70.438L26.958 69.9093C26.958 69.9093 35.7263 35.198 51.9514 29.4781Z" fill="white"/>
<path d="M51.9514 29.4781C51.9514 29.4781 61.057 25.0583 69.1095 45.7476C74.717 60.1545 72.8788 70.438 72.8788 70.438L26.958 69.9093C26.958 69.9093 35.7263 35.198 51.9514 29.4781Z" stroke="#100F0D" stroke-width="0.823009" stroke-miterlimit="10"/>
<path d="M45.828 62.4758C45.1734 62.5931 44.5397 62.1432 44.4125 61.4703L43.699 57.6947C43.5723 57.0218 43.9995 56.3812 44.6541 56.2639C45.3087 56.1466 45.9421 56.5965 46.0692 57.2694L46.7827 61.045C46.9098 61.7179 46.4826 62.3581 45.828 62.4758Z" fill="#FB9D75"/>
<path d="M53.7309 57.0835C53.0763 57.2008 52.4426 56.7505 52.3155 56.0776L51.602 52.302C51.4748 51.6291 51.9024 50.9889 52.557 50.8716C53.2113 50.7539 53.8454 51.2046 53.9721 51.8771L54.686 55.6531C54.8128 56.3256 54.3852 56.9662 53.7309 57.0835Z" fill="#FB9D75"/>
<path d="M60.8307 63.7108C60.1764 63.8281 59.5427 63.3781 59.4156 62.7052L58.7021 58.9297C58.5749 58.2568 59.0025 57.6165 59.6568 57.4989C60.3114 57.3816 60.9451 57.8319 61.0722 58.5044L61.7857 62.2804C61.9129 62.9529 61.4853 63.5935 60.8307 63.7108Z" fill="#FB9D75"/>
<path d="M67.1764 55.677C66.5221 55.7943 65.8884 55.344 65.7613 54.6714L65.0478 50.8959C64.9206 50.2229 65.3482 49.5827 66.0028 49.4651C66.6574 49.3478 67.2912 49.7977 67.4179 50.4706L68.1314 54.2462C68.2586 54.9191 67.831 55.5597 67.1764 55.677Z" fill="#FB9D75"/>
<path d="M53.2672 41.4356C52.6126 41.5529 51.9792 41.1026 51.8521 40.4301L51.1386 36.6542C51.0115 35.9816 51.439 35.341 52.0933 35.2237H52.0937C52.7479 35.1061 53.3816 35.5567 53.5088 36.2293L54.2223 40.0052C54.3494 40.6778 53.9218 41.3183 53.2672 41.4356Z" fill="#FB9D75"/>
<path d="M60.153 38.3112C59.4984 38.4285 58.8647 37.9786 58.7376 37.3057L58.0244 33.5301C57.8969 32.8572 58.3245 32.2166 58.9791 32.0993C59.6334 31.982 60.2675 32.432 60.3946 33.1049L61.1081 36.8805C61.2349 37.5534 60.8073 38.1936 60.153 38.3112Z" fill="#FB9D75"/>
<path d="M71.0455 66.9918C70.3913 67.1091 69.7575 66.6588 69.6304 65.9863L68.9169 62.2103C68.7898 61.5378 69.2174 60.8972 69.8716 60.7799H69.872C70.5262 60.6622 71.16 61.1129 71.2871 61.7854L72.0006 65.5614C72.1277 66.2339 71.7001 66.8745 71.0455 66.9918Z" fill="#FB9D75"/>
<path d="M47.1432 48.7856C46.4889 48.9033 45.8552 48.4526 45.7281 47.7801L45.0146 44.0042C44.8874 43.3316 45.315 42.691 45.9696 42.5737C46.6239 42.4565 47.2576 42.9067 47.3847 43.5793L48.0982 47.3552C48.2254 48.0278 47.7978 48.6684 47.1432 48.7856Z" fill="#FB9D75"/>
<path d="M53.8056 62.1057L52.1299 75.7518C52.1299 75.7518 62.3476 75.2871 67.9695 75.977C73.5915 76.6673 77.0349 77.1205 77.0349 77.1205C77.0349 77.1205 78.9003 77.1233 78.6681 76.0619C78.4355 75.0008 78.4683 75.2031 79.3663 75.4431C80.2643 75.6828 81.5523 75.1446 81.628 74.4495C81.7037 73.7545 81.3518 72.9174 81.3518 72.9174C81.3518 72.9174 82.4951 73.1252 83.1072 73.0577C83.7197 72.9902 85.5695 72.1636 85.3681 71.2859C85.1672 70.4082 84.4604 67.2158 74.1913 64.7784C63.9222 62.341 53.8056 62.1057 53.8056 62.1057Z" fill="white"/>
<path d="M51.3828 75.7965C51.3828 75.7965 64.3938 74.8781 75.0893 76.9338C75.9978 77.1085 79.5251 77.6434 78.4746 75.4694C77.4241 73.2952 72.0933 72.098 69.5252 71.7791" stroke="#100F0D" stroke-width="0.823009" stroke-miterlimit="10"/>
<path d="M70.459 67.5365C70.459 67.5365 73.5717 68.1782 76.0888 69.3588C77.9229 70.2191 79.7566 71.3713 80.7505 72.2498C83.0271 74.2616 80.9294 76.2418 78.2845 75.1615" stroke="#100F0D" stroke-width="0.823009" stroke-miterlimit="10"/>
<path d="M53.1436 62.0945C53.1436 62.0945 66.5679 62.1515 77.8905 65.8472C89.2135 69.5429 85.4227 74.5732 81.1311 72.6267" stroke="#100F0D" stroke-width="0.823009" stroke-miterlimit="10"/>
<path d="M51.3453 29.9666C51.3453 29.9666 34.0987 29.5032 21.0145 48.4806C7.93001 67.4577 9.53329 86.8335 38.0853 80.4589C42.0752 79.568 53.8467 76.1379 53.8467 76.1379L55.245 61.691C55.245 61.691 41.9049 60.6049 32.677 60.0747L51.3453 29.9666Z" fill="white"/>
<path d="M46.2163 78.3138C50.1615 77.2117 53.8468 76.138 53.8468 76.138L55.2452 61.6911C55.2452 61.6911 52.2293 61.4459 48.0761 61.1311L46.2163 78.3138Z" fill="#FB9D75"/>
<path d="M46.2163 78.3138C50.1615 77.2117 53.8468 76.138 53.8468 76.138L55.2452 61.6911C55.2452 61.6911 52.2293 61.4459 48.0761 61.1311L46.2163 78.3138Z" stroke="#100F0D" stroke-width="0.823009" stroke-miterlimit="10"/>
<path d="M47.7778 63.8859L54.9875 64.3533" stroke="#100F0D" stroke-width="0.823009" stroke-miterlimit="10"/>
<path d="M47.3857 67.5095L54.5343 67.5365" stroke="#100F0D" stroke-width="0.823009" stroke-miterlimit="10"/>
<path d="M47.0298 71.1047L54.4314 70.5764" stroke="#100F0D" stroke-width="0.823009" stroke-miterlimit="10"/>
<path d="M46.5562 74.556L54.0592 73.3243" stroke="#100F0D" stroke-width="0.823009" stroke-miterlimit="10"/>
<path d="M51.3453 29.9666C51.3453 29.9666 34.0987 29.5032 21.0145 48.4806C7.93001 67.4577 9.53329 86.8335 38.0853 80.4589C42.0752 79.568 53.8467 76.1379 53.8467 76.1379L55.245 61.691C55.245 61.691 41.9049 60.6049 32.677 60.0747" stroke="#100F0D" stroke-width="0.823009" stroke-miterlimit="10"/>
<path d="M37.4663 60.3732L41.9051 52.0405" stroke="#100F0D" stroke-width="0.823009" stroke-miterlimit="10"/>
<path d="M23.159 64.2486C22.5044 64.3663 21.8707 63.916 21.7437 63.2435L21.0302 59.4675C20.9031 58.795 21.3308 58.1544 21.985 58.0371H21.9853C22.6396 57.9198 23.2733 58.3697 23.4004 59.0423L24.1138 62.8182C24.2411 63.4908 23.8136 64.1314 23.159 64.2486Z" fill="#FB9D75"/>
<path d="M19.3094 76.1659C18.655 76.2832 18.0211 75.8328 17.8941 75.16L17.1806 71.3847C17.0534 70.7118 17.4811 70.0712 18.1354 69.9536L18.1357 69.9539C18.79 69.8366 19.4237 70.2866 19.5508 70.9595L20.2642 74.735C20.3915 75.408 19.9639 76.0485 19.3094 76.1659Z" fill="#FB9D75"/>
<path d="M30.6277 77.6619C29.9732 77.7793 29.3394 77.3293 29.2125 76.6564L28.4989 72.8808C28.3718 72.2079 28.7995 71.5677 29.4537 71.45H29.454C30.1083 71.3327 30.742 71.7827 30.8692 72.4555L31.5826 76.2311C31.7098 76.904 31.2823 77.5446 30.6277 77.6619Z" fill="#FB9D75"/>
<path d="M36.6478 68.3398C35.9932 68.4571 35.3595 68.0068 35.2323 67.3343L34.5188 63.5583C34.3921 62.8858 34.8197 62.2452 35.4739 62.1279C36.1285 62.0103 36.7619 62.4609 36.8894 63.1335L37.6025 66.9094C37.73 67.5819 37.3024 68.2225 36.6478 68.3398Z" fill="#FB9D75"/>
<path d="M34.1257 57.0835C33.4711 57.2008 32.8375 56.7505 32.7103 56.0776L31.997 52.302C31.8698 51.6291 32.2973 50.9889 32.9518 50.8716C33.6064 50.7539 34.2401 51.2046 34.3672 51.8771L35.0807 55.6531C35.2079 56.3256 34.7803 56.9662 34.1257 57.0835Z" fill="#FB9D75"/>
<path d="M38.7881 47.7097C38.1335 47.8274 37.4997 47.3767 37.3726 46.7042L36.6591 42.9282C36.532 42.2557 36.9596 41.6151 37.6142 41.4978C38.2684 41.3805 38.9021 41.8308 39.0293 42.5037L39.7428 46.2793C39.8699 46.9522 39.4423 47.5924 38.7881 47.7097Z" fill="#FB9D75"/>
<path d="M45.023 38.3112C44.3684 38.4285 43.7351 37.9786 43.608 37.3057L42.8944 33.5301C42.7673 32.8572 43.1949 32.2166 43.8491 32.0993H43.8495C44.5038 31.982 45.1375 32.432 45.2646 33.1049L45.9781 36.8805C46.1052 37.5534 45.6777 38.1936 45.023 38.3112Z" fill="#FB9D75"/>
<path d="M26.8655 50.8342C26.2109 50.9515 25.5773 50.5016 25.4502 49.8287L24.7367 46.0531C24.6097 45.3802 25.0372 44.7399 25.6916 44.6226C26.3462 44.505 26.9798 44.9553 27.1068 45.6278L27.8203 49.4038C27.9474 50.0763 27.52 50.7173 26.8655 50.8342Z" fill="#FB9D75"/>
<path d="M43.4586 76.1659C42.804 76.2832 42.1706 75.8328 42.0431 75.16L41.33 71.3847C41.2029 70.7118 41.6305 70.0712 42.2847 69.9536V69.9539C42.9393 69.8366 43.573 70.2866 43.7002 70.9595L44.4137 74.735C44.5408 75.408 44.1132 76.0485 43.4586 76.1659Z" fill="#FB9D75"/>
<path d="M45.5649 17.5656C45.5649 19.2154 46.9491 20.5521 48.6561 20.5521C50.3631 20.5521 51.7472 19.2154 51.7472 17.5656C51.7472 15.9163 50.3631 14.5792 48.6561 14.5792C46.9491 14.5792 45.5649 15.9163 45.5649 17.5656Z" stroke="#100F0D" stroke-width="1.64602" stroke-miterlimit="10"/>
<path d="M58.0172 29.5591C58.0172 30.9434 56.0396 32.0656 53.6005 32.0656C51.1613 32.0656 49.1841 30.9434 49.1841 29.5591C49.1841 28.1748 51.1613 27.0524 53.6005 27.0524C56.0396 27.0524 58.0172 28.1748 58.0172 29.5591Z" fill="#FB9D75"/>
<path d="M58.0172 29.5591C58.0172 30.9434 56.0396 32.0656 53.6005 32.0656C51.1613 32.0656 49.1841 30.9434 49.1841 29.5591C49.1841 28.1748 51.1613 27.0524 53.6005 27.0524C56.0396 27.0524 58.0172 28.1748 58.0172 29.5591Z" stroke="#201D1D" stroke-width="0.823009" stroke-miterlimit="10"/>
<path d="M59.0312 8.29863H55.1486C52.5674 8.29863 50.4556 10.6409 50.4556 13.5035V19.3665C50.4556 19.5317 50.4642 19.6947 50.478 19.856C50.4362 20.0288 50.4116 20.2082 50.4116 20.3931V23.962V24.161V27.73C50.4116 29.0249 51.4994 30.0846 52.8291 30.0846H54.3691C55.6985 30.0846 56.7862 29.0249 56.7862 27.73V24.5717H59.0312C61.6127 24.5717 63.7245 22.2291 63.7245 19.3665V13.5035C63.7245 10.6409 61.6127 8.29863 59.0312 8.29863Z" fill="white"/>
<path d="M59.0312 8.29863H55.1486C52.5674 8.29863 50.4556 10.6409 50.4556 13.5035V19.3665C50.4556 19.5317 50.4642 19.6947 50.478 19.856C50.4362 20.0288 50.4116 20.2082 50.4116 20.3931V23.962V24.161V27.73C50.4116 29.0249 51.4994 30.0846 52.8291 30.0846H54.3691C55.6985 30.0846 56.7862 29.0249 56.7862 27.73V24.5717H59.0312C61.6127 24.5717 63.7245 22.2291 63.7245 19.3665V13.5035C63.7245 10.6409 61.6127 8.29863 59.0312 8.29863V8.29863Z" stroke="#333333" stroke-width="0.823009" stroke-miterlimit="10"/>
<path d="M55.9551 15.4191C55.9551 15.8897 56.3469 16.2717 56.8304 16.2717C57.3135 16.2717 57.7057 15.8897 57.7057 15.4191C57.7057 14.9481 57.3135 14.5664 56.8304 14.5664C56.3469 14.5664 55.9551 14.9481 55.9551 15.4191Z" fill="#191716"/>
<path d="M61.6846 15.2941C61.6846 15.6961 62.019 16.0219 62.4316 16.0219C62.8443 16.0219 63.1787 15.6961 63.1787 15.2941C63.1787 14.8921 62.8443 14.5664 62.4316 14.5664C62.019 14.5664 61.6846 14.8921 61.6846 15.2941Z" fill="#191716"/>
<path d="M60.8493 18.7821C60.8493 18.7821 60.4095 20.031 59.4794 20.1163C58.5496 20.202 57.8208 19.1987 57.7705 18.4154L60.8493 18.7821Z" fill="#F9F9F9"/>
<path d="M60.6483 18.7285C60.6371 18.7601 60.6244 18.7909 60.6118 18.8214C60.6304 18.776 60.5864 18.8763 60.5771 18.8952C60.554 18.9442 60.529 18.9921 60.5029 19.0401C60.3814 19.2634 60.2334 19.474 60.0406 19.645C59.8207 19.8397 59.5381 19.9519 59.238 19.912C58.907 19.868 58.6259 19.6614 58.4157 19.4181C58.1767 19.1421 58.0064 18.7775 57.9788 18.4154C57.9091 18.4826 57.8397 18.5505 57.7704 18.6177C58.6692 18.7252 59.5676 18.8323 60.4664 18.9395C60.5939 18.9547 60.7214 18.97 60.8492 18.9852C60.9614 18.9987 61.0561 18.8824 61.0572 18.7822C61.0584 18.6617 60.9603 18.593 60.8492 18.5799C59.9504 18.4725 59.0516 18.3653 58.1532 18.2582C58.0257 18.243 57.8983 18.2277 57.7704 18.2125C57.6641 18.1997 57.5549 18.3156 57.5624 18.4154C57.622 19.1955 58.1626 20.0213 58.9532 20.2627C59.7275 20.4992 60.3885 20.014 60.7739 19.3967C60.8835 19.2209 60.9804 19.0313 61.0498 18.8363C61.1374 18.5894 60.7355 18.483 60.6483 18.7285Z" fill="#191716"/>
<path opacity="0.1" d="M52.9131 18.5542C52.9131 19.7246 53.8868 20.6731 55.0887 20.6731C56.2901 20.6731 57.2639 19.7246 57.2639 18.5542C57.2639 17.3838 56.2901 16.4349 55.0887 16.4349C53.8868 16.4349 52.9131 17.3838 52.9131 18.5542Z" fill="#F2994A"/>
<path opacity="0.1" d="M59.866 14.5664L59.687 17.4697L61.1096 16.6251L59.866 14.5664Z" fill="#F2994A"/>
<path d="M51.4733 17.4698L52.1898 12.8775C52.1898 12.8775 65.2325 14.4698 69.4606 8.29862C73.6887 2.12702 69.2455 -0.3162 67.0956 0.0324154C64.9458 0.381758 62.4321 3.38349 62.4321 3.38349C62.4321 3.38349 64.4332 0.730734 62.4321 0.311668C60.431 -0.107033 58.2204 1.91749 57.0685 4.01173C57.0685 4.01173 48.4713 3.23097 45.5651 8.29862C42.6588 13.3659 45.0141 16.9614 50.3296 22.1968L50.6849 19.2684L51.4733 17.4698Z" fill="#100F0D"/>
<path d="M45.5649 17.5656C45.5649 19.2154 46.9491 20.5521 48.6561 20.5521C50.3631 20.5521 51.7472 19.2154 51.7472 17.5656C51.7472 15.9163 50.3631 14.5792 48.6561 14.5792C46.9491 14.5792 45.5649 15.9163 45.5649 17.5656Z" fill="white"/>
<path d="M50.5844 17.9604C50.6008 17.7091 50.5587 17.4422 50.4886 17.2018C50.3481 16.7199 50.0334 16.2848 49.557 16.072C49.1712 15.8999 48.7443 15.8647 48.3257 15.9072C48.1878 15.921 48.0688 16.0121 48.0688 16.157C48.0688 16.2816 48.1866 16.421 48.3257 16.4068C48.5099 16.3883 48.6959 16.3825 48.8804 16.4007C48.8994 16.4025 48.9184 16.4043 48.9374 16.4068C48.8759 16.3989 48.9486 16.4094 48.9572 16.4108C48.9926 16.4166 49.0273 16.4235 49.0619 16.4315C49.1335 16.4479 49.2032 16.4697 49.2726 16.4936C49.2845 16.4976 49.2961 16.5027 49.308 16.5071C49.245 16.4831 49.3035 16.5056 49.3147 16.5111C49.3419 16.5245 49.3691 16.5368 49.3956 16.551C49.4515 16.5808 49.5033 16.6157 49.5555 16.6512C49.4933 16.6091 49.5686 16.6621 49.5812 16.6727C49.6017 16.6901 49.6219 16.7079 49.6409 16.7264C49.6826 16.766 49.7195 16.8088 49.7576 16.8521C49.7057 16.7932 49.7613 16.8579 49.7725 16.8735C49.787 16.8938 49.8012 16.9145 49.8146 16.9352C49.8437 16.9802 49.8701 17.0271 49.8944 17.0747C49.9059 17.0975 49.9149 17.1233 49.9283 17.1451C49.9458 17.1742 49.9041 17.0845 49.922 17.1306C49.9261 17.1415 49.9309 17.152 49.935 17.1625C49.954 17.2108 49.9712 17.2599 49.9865 17.3096C50.0114 17.3928 50.0316 17.4774 50.0468 17.5631C50.0498 17.5816 50.0528 17.6001 50.0562 17.619C50.0662 17.6822 50.0487 17.5544 50.0558 17.6161C50.0595 17.6517 50.0636 17.6873 50.0662 17.7229C50.0726 17.8013 50.0767 17.8816 50.0715 17.9604C50.0625 18.0951 50.1956 18.2102 50.3279 18.2102C50.4741 18.2102 50.5755 18.0954 50.5844 17.9604Z" fill="#131211"/>
<path d="M86.8715 50.8531H133.221L124.812 81.6973H78.668L86.8715 50.8531Z" fill="white"/>
<path d="M86.8715 50.8531H133.221L124.812 81.6973H78.668L86.8715 50.8531Z" stroke="#100F0D" stroke-width="0.823009" stroke-miterlimit="10"/>
<path d="M109.854 66.275C109.854 68.3783 108.104 70.0836 105.945 70.0836C103.785 70.0836 102.035 68.3783 102.035 66.275C102.035 64.1717 103.785 62.4667 105.945 62.4667C108.104 62.4667 109.854 64.1717 109.854 66.275Z" fill="#333333"/>
<path d="M109.854 66.275C109.854 68.3783 108.104 70.0836 105.945 70.0836C103.785 70.0836 102.035 68.3783 102.035 66.275C102.035 64.1717 103.785 62.4667 105.945 62.4667C108.104 62.4667 109.854 64.1717 109.854 66.275V66.275Z" stroke="#100F0D" stroke-width="0.823009" stroke-miterlimit="10"/>
<path d="M102.394 21.8646C102.064 20.0653 101.021 18.8865 99.8542 18.1446C97.8792 16.8885 95.2566 16.8885 93.2812 18.1446C92.1144 18.8865 91.0721 20.0653 90.7414 21.8646C90.1316 25.187 93.1351 26.974 93.698 27.6437C93.698 27.6437 94.0786 27.9509 94.2605 28.3133C94.306 28.4041 94.3549 28.6899 94.4115 29.0737H96.5681H98.7243C98.7809 28.6899 98.8294 28.4041 98.8749 28.3133C99.0572 27.9509 99.4378 27.6437 99.4378 27.6437C100.001 26.974 103.004 25.187 102.394 21.8646Z" fill="#F2C94C"/>
<path d="M102.394 21.8646C102.064 20.0653 101.021 18.8865 99.8542 18.1446C97.8792 16.8885 95.2566 16.8885 93.2812 18.1446C92.1144 18.8865 91.0721 20.0653 90.7414 21.8646C90.1316 25.187 93.1351 26.974 93.698 27.6437C93.698 27.6437 94.0786 27.9509 94.2605 28.3133C94.306 28.4041 94.3549 28.6899 94.4115 29.0737H96.5681H98.7243C98.7809 28.6899 98.8294 28.4041 98.8749 28.3133C99.0572 27.9509 99.4378 27.6437 99.4378 27.6437C100.001 26.974 103.004 25.187 102.394 21.8646V21.8646Z" stroke="#100F0D" stroke-width="0.823009" stroke-miterlimit="10"/>
<path d="M95.664 29.4295C95.664 29.4295 95.6652 26.2793 95.4277 25.8294C95.1906 25.3798 94.1021 23.8056 93.9172 23.474C93.7319 23.1421 94.111 22.7568 94.4011 23.2474C94.6493 23.6672 95.708 25.1038 95.9444 25.6914C96.1804 26.2793 96.3828 29.5868 96.3828 29.5868L95.664 29.4295Z" fill="white"/>
<path d="M97.4565 29.4295C97.4565 29.4295 97.4554 26.2793 97.6925 25.8294C97.93 25.3798 99.0185 23.8056 99.2034 23.474C99.3883 23.1421 99.0095 22.7568 98.7191 23.2474C98.4709 23.6672 97.4125 25.1038 97.1762 25.6914C96.9402 26.2793 96.7378 29.5868 96.7378 29.5868L97.4565 29.4295Z" fill="white"/>
<path d="M95.7748 22.9627C95.8769 22.9104 95.9567 22.8509 96.0029 22.783C96.1442 22.5778 96.0756 22.3425 95.9269 22.2335C95.7975 22.1384 95.6499 22.17 95.5209 22.3196C95.3927 22.4696 95.5358 22.7198 95.6969 22.8879C95.7215 22.9133 95.7476 22.9388 95.7748 22.9627ZM97.0818 22.4794C97.0449 22.5055 97.0087 22.5426 96.974 22.5894C96.854 22.751 96.8972 22.8436 96.9476 22.9057C97.008 22.9798 97.1075 23.0433 97.232 23.0942C97.3744 22.9507 97.4408 22.788 97.4117 22.6388C97.3912 22.5342 97.3226 22.4525 97.2413 22.4358C97.1902 22.4256 97.1355 22.4405 97.0818 22.4794ZM99.0221 23.3665C98.5845 23.5659 97.8389 23.5899 97.2883 23.4275C97.2835 23.4308 97.2782 23.4348 97.273 23.4384C96.8193 23.7663 96.1871 23.6411 95.7211 23.3095C95.1429 23.5299 94.347 23.5568 94.2259 23.5597L94.2236 23.2587C94.5722 23.251 95.0725 23.1969 95.4598 23.0829C95.1388 22.7437 95.0702 22.377 95.2849 22.1271C95.5548 21.8108 95.8967 21.8315 96.1125 21.9913C96.3735 22.1845 96.4965 22.593 96.2542 22.9457C96.2005 23.0241 96.1248 23.0909 96.0365 23.1515C96.3276 23.319 96.671 23.3919 96.9483 23.287C96.8525 23.2322 96.7716 23.1679 96.712 23.0949C96.618 22.9798 96.495 22.7379 96.7332 22.4173C96.8931 22.2019 97.103 22.1024 97.3084 22.1449C97.5056 22.1856 97.6611 22.3548 97.7032 22.5749C97.7427 22.7811 97.6816 22.9954 97.5366 23.1857C97.9846 23.2816 98.558 23.2652 98.9133 23.1043L99.0221 23.3665Z" fill="white"/>
<path d="M96.5603 28.7355C95.3891 28.7355 94.3874 28.437 94.2178 28.3448C94.2308 28.3677 94.245 28.3898 94.2569 28.4127C94.4146 28.7268 94.6107 31.3396 95.0323 32.3484C95.1065 32.5264 95.1881 32.6546 95.2776 32.7112C95.5192 32.8641 96.0243 33.0264 96.5603 33.0021C97.0964 33.0264 97.6012 32.8641 97.8435 32.7112C97.9326 32.6546 98.0142 32.5264 98.0888 32.3484C98.51 31.3396 98.7061 28.7268 98.8638 28.4127C98.8753 28.3898 98.8895 28.3677 98.9029 28.3448C98.733 28.437 97.7316 28.7355 96.5603 28.7355Z" fill="white"/>
<path d="M96.5603 28.7355C95.3891 28.7355 94.3874 28.437 94.2178 28.3448C94.2308 28.3677 94.245 28.3898 94.2569 28.4127C94.4146 28.7268 94.6107 31.3396 95.0323 32.3484C95.1065 32.5264 95.1881 32.6546 95.2776 32.7112C95.5192 32.8641 96.0243 33.0264 96.5603 33.0021C97.0964 33.0264 97.6012 32.8641 97.8435 32.7112C97.9326 32.6546 98.0142 32.5264 98.0888 32.3484C98.51 31.3396 98.7061 28.7268 98.8638 28.4127C98.8753 28.3898 98.8895 28.3677 98.9029 28.3448C98.733 28.437 97.7316 28.7355 96.5603 28.7355Z" stroke="#100F0D" stroke-width="0.823009" stroke-miterlimit="10"/>
<path d="M96.5602 29.9161C97.2379 29.9056 97.9764 29.8261 98.6474 29.6202C98.6914 29.31 98.7316 29.0304 98.7678 28.8169C97.3475 29.3424 95.7732 29.3424 94.3525 28.8169C94.3887 29.0304 94.429 29.31 94.4729 29.6202C95.144 29.8261 95.8824 29.9056 96.5602 29.9161Z" fill="#100F0D"/>
<path d="M96.5602 31.2489C97.1652 31.2395 97.8183 31.173 98.4297 31.0139C98.477 30.7529 98.5199 30.4838 98.5598 30.2205C97.2636 30.649 95.8567 30.649 94.5605 30.2205C94.6004 30.4838 94.6433 30.7529 94.6906 31.0139C95.3016 31.173 95.9548 31.2395 96.5602 31.2489Z" fill="#100F0D"/>
<path d="M96.6774 15.5242H96.6648C96.3214 15.5242 96.043 15.2533 96.043 14.9185V12.078C96.043 11.7435 96.3214 11.4722 96.6648 11.4722H96.6774C97.0208 11.4722 97.2989 11.7435 97.2989 12.078V14.9185C97.2989 15.2533 97.0208 15.5242 96.6774 15.5242Z" fill="white"/>
<path d="M96.6774 15.5242H96.6648C96.3214 15.5242 96.043 15.2533 96.043 14.9185V12.078C96.043 11.7435 96.3214 11.4722 96.6648 11.4722H96.6774C97.0208 11.4722 97.2989 11.7435 97.2989 12.078V14.9185C97.2989 15.2533 97.0208 15.5242 96.6774 15.5242V15.5242Z" stroke="#100F0D" stroke-width="0.823009" stroke-miterlimit="10"/>
<path d="M101.151 16.3095L101.14 16.3041C100.837 16.1461 100.723 15.7786 100.886 15.4837L102.263 12.9806C102.426 12.6857 102.802 12.575 103.105 12.7329L103.116 12.7387C103.419 12.8967 103.533 13.2639 103.371 13.5587L101.992 16.0619C101.83 16.3571 101.453 16.4679 101.151 16.3095Z" fill="white"/>
<path d="M101.151 16.3095L101.14 16.3041C100.837 16.1461 100.723 15.7786 100.886 15.4837L102.263 12.9806C102.426 12.6857 102.802 12.575 103.105 12.7329L103.116 12.7387C103.419 12.8967 103.533 13.2639 103.371 13.5587L101.992 16.0619C101.83 16.3571 101.453 16.4679 101.151 16.3095V16.3095Z" stroke="#100F0D" stroke-width="0.823009" stroke-miterlimit="10"/>
<path d="M92.1913 16.3095L92.2021 16.3041C92.5044 16.1461 92.6185 15.7786 92.4563 15.4837L91.0781 12.9806C90.916 12.6857 90.5391 12.575 90.2364 12.7329L90.2252 12.7387C89.9229 12.8967 89.8092 13.2639 89.9713 13.5587L91.3492 16.0619C91.5113 16.3571 91.8882 16.4679 92.1913 16.3095Z" fill="white"/>
<path d="M92.1913 16.3095L92.2021 16.3041C92.5044 16.1461 92.6185 15.7786 92.4563 15.4837L91.0781 12.9806C90.916 12.6857 90.5391 12.575 90.2364 12.7329L90.2252 12.7387C89.9229 12.8967 89.8092 13.2639 89.9713 13.5587L91.3492 16.0619C91.5113 16.3571 91.8882 16.4679 92.1913 16.3095V16.3095Z" stroke="#100F0D" stroke-width="0.823009" stroke-miterlimit="10"/>
<path d="M88.8788 19.6429L88.8762 19.6552C88.8053 19.9824 88.4758 20.192 88.1395 20.1233L85.2862 19.539C84.95 19.47 84.7349 19.149 84.8054 18.8215L84.808 18.8095C84.8784 18.4823 85.2083 18.2728 85.5446 18.3414L88.3979 18.9257C88.7341 18.9947 88.9492 19.3157 88.8788 19.6429Z" fill="white"/>
<path d="M88.8788 19.6429L88.8762 19.6552C88.8053 19.9824 88.4758 20.192 88.1395 20.1233L85.2862 19.539C84.95 19.47 84.7349 19.149 84.8054 18.8215L84.808 18.8095C84.8784 18.4823 85.2083 18.2728 85.5446 18.3414L88.3979 18.9257C88.7341 18.9947 88.9492 19.3157 88.8788 19.6429Z" stroke="#100F0D" stroke-width="0.823009" stroke-miterlimit="10"/>
<path d="M88.7229 24.1836L88.7192 24.172C88.6226 23.851 88.2774 23.6668 87.9479 23.7609L85.1494 24.5594C84.8198 24.6535 84.6308 24.9901 84.7274 25.3111L84.7311 25.3228C84.8277 25.6438 85.1729 25.8279 85.5024 25.7338L88.3009 24.9353C88.6304 24.8412 88.8194 24.5046 88.7229 24.1836Z" fill="white"/>
<path d="M88.7229 24.1836L88.7192 24.172C88.6226 23.851 88.2774 23.6668 87.9479 23.7609L85.1494 24.5594C84.8198 24.6535 84.6308 24.9901 84.7274 25.3111L84.7311 25.3228C84.8277 25.6438 85.1729 25.8279 85.5024 25.7338L88.3009 24.9353C88.6304 24.8412 88.8194 24.5046 88.7229 24.1836Z" stroke="#100F0D" stroke-width="0.823009" stroke-miterlimit="10"/>
<path d="M104.463 19.6429L104.465 19.6552C104.536 19.9824 104.866 20.192 105.202 20.1233L108.055 19.539C108.391 19.47 108.607 19.149 108.536 18.8215L108.534 18.8095C108.463 18.4823 108.133 18.2728 107.797 18.3414L104.943 18.9257C104.607 18.9947 104.392 19.3157 104.463 19.6429Z" fill="white"/>
<path d="M104.463 19.6429L104.465 19.6552C104.536 19.9824 104.866 20.192 105.202 20.1233L108.055 19.539C108.391 19.47 108.607 19.149 108.536 18.8215L108.534 18.8095C108.463 18.4823 108.133 18.2728 107.797 18.3414L104.943 18.9257C104.607 18.9947 104.392 19.3157 104.463 19.6429V19.6429Z" stroke="#100F0D" stroke-width="0.823009" stroke-miterlimit="10"/>
<path d="M104.618 24.1836L104.622 24.172C104.718 23.851 105.064 23.6668 105.394 23.7609L108.192 24.5594C108.521 24.6535 108.71 24.9901 108.614 25.3111L108.61 25.3228C108.514 25.6438 108.168 25.8279 107.838 25.7338L105.04 24.9353C104.711 24.8412 104.522 24.5046 104.618 24.1836Z" fill="white"/>
<path d="M104.618 24.1836L104.622 24.172C104.718 23.851 105.064 23.6668 105.394 23.7609L108.192 24.5594C108.521 24.6535 108.71 24.9901 108.614 25.3111L108.61 25.3228C108.514 25.6438 108.168 25.8279 107.838 25.7338L105.04 24.9353C104.711 24.8412 104.522 24.5046 104.618 24.1836V24.1836Z" stroke="#100F0D" stroke-width="0.823009" stroke-miterlimit="10"/>
</svg>
