<svg width="89" height="103" viewBox="0 0 89 103" fill="none" xmlns="http://www.w3.org/2000/svg">
<rect x="1" y="1" width="79.4094" height="97.3211" fill="#F2F6F9"/>
<rect x="0.75" y="0.75" width="79.9094" height="97.8211" stroke="black" stroke-opacity="0.5" stroke-width="0.5"/>
<path d="M18.277 29.7639C23.6413 29.7639 27.9974 25.4519 27.9974 20.1237C27.9974 14.7954 23.6413 10.4834 18.277 10.4834C12.9127 10.4834 8.55664 14.7954 8.55664 20.1237C8.55664 25.4519 12.9127 29.7639 18.277 29.7639Z" fill="#013F57" stroke="black"/>
<rect x="32.9507" y="12.2748" width="39.2089" height="2.39599" fill="black"/>
<rect x="32.958" y="16.574" width="22.2005" height="2.39599" fill="black"/>
<rect x="32.958" y="20.8779" width="15.6209" height="2.39599" fill="#C9CDD3"/>
<rect x="32.958" y="25.1818" width="28.0192" height="2.39599" fill="#C9CDD3"/>
<rect x="25.2524" y="70.7991" width="47.1313" height="9.49523" fill="#C9CDD3"/>
<rect x="25.2524" y="82.8234" width="47.1313" height="9.49523" fill="#C9CDD3"/>
<rect x="10.8628" y="39.0657" width="62.0797" height="25.042" fill="#013F57" stroke="white" stroke-width="3"/>
<ellipse cx="17.1955" cy="44.7538" rx="2.23795" ry="2.21851" fill="white"/>
<ellipse cx="27.4904" cy="49.7675" rx="2.23795" ry="2.21851" fill="white"/>
<ellipse cx="41.5895" cy="49.9894" rx="2.23795" ry="2.21851" fill="white"/>
<ellipse cx="50.6379" cy="56.531" rx="2.23795" ry="2.21851" fill="white"/>
<ellipse cx="64.9611" cy="56.8178" rx="2.23795" ry="2.21851" fill="white"/>
<line y1="-1.23526" x2="10.7307" y2="-1.23526" transform="matrix(0.88845 0.458973 -0.465315 0.885145 17.1958 45.23)" stroke="white" stroke-width="2.47052"/>
<line y1="-1.23526" x2="10.7514" y2="-1.23526" transform="matrix(0.999703 0.0243765 -0.0248053 0.999692 29.1216 50.1469)" stroke="white" stroke-width="2.47052"/>
<line y1="-1.08445" x2="8.25664" y2="-1.08445" transform="matrix(0.773096 0.634289 -0.640892 0.767631 42.7603 51.094)" stroke="white" stroke-width="2.16891"/>
<line y1="-1.23526" x2="11.6639" y2="-1.23526" transform="matrix(0.999865 0.0164047 -0.0166934 0.999861 51.5332 57.3059)" stroke="white" stroke-width="2.47052"/>
<rect x="9.36279" y="70.7991" width="13.741" height="9.49523" fill="#013F57"/>
<rect x="9.36279" y="83.0453" width="13.741" height="9.49523" fill="#013F57"/>
<path fill-rule="evenodd" clip-rule="evenodd" d="M17.3144 89.0107C17.3673 89.0631 17.397 89.1342 17.397 89.2083C17.397 89.2824 17.3673 89.3535 17.3144 89.4059L16.1865 90.524C16.1336 90.5764 16.0619 90.6059 15.9871 90.6059C15.9123 90.6059 15.8406 90.5764 15.7877 90.524L14.6598 89.4059C14.6329 89.3801 14.6114 89.3493 14.5966 89.3152C14.5818 89.2811 14.5741 89.2444 14.5737 89.2073C14.5734 89.1702 14.5806 89.1334 14.5947 89.099C14.6089 89.0646 14.6298 89.0334 14.6563 89.0072C14.6828 88.9809 14.7143 88.9602 14.7489 88.9461C14.7836 88.9321 14.8207 88.925 14.8582 88.9253C14.8956 88.9256 14.9326 88.9334 14.967 88.948C15.0014 88.9627 15.0325 88.984 15.0585 89.0107L15.7051 89.6516V86.413C15.7051 86.3388 15.7348 86.2677 15.7877 86.2153C15.8406 86.1629 15.9123 86.1334 15.9871 86.1334C16.0619 86.1334 16.1336 86.1629 16.1865 86.2153C16.2394 86.2677 16.2691 86.3388 16.2691 86.413V89.6516L16.9157 89.0107C16.9686 88.9582 17.0403 88.9288 17.115 88.9288C17.1898 88.9288 17.2615 88.9582 17.3144 89.0107V89.0107Z" fill="#F2F6F9"/>
<rect x="13.5254" y="73.9049" width="5.9082" height="2.83969" fill="#F2F6F9"/>
<path d="M52.9666 72.5365L54.7998 71.766L49.7525 60.7624C49.5307 59.5284 50.4257 58.8659 50.9009 58.6889C52.3597 58.0292 53.1816 58.9042 53.4103 59.4241L56.2524 65.6794C56.5485 64.4432 57.7236 64.2003 58.2741 64.2334C59.0339 64.1471 59.7947 65.1581 60.1064 65.7177C59.8011 65.1014 60.6116 64.3039 61.0668 63.9749C62.8574 63.4952 63.7043 64.7969 63.9128 65.5302C63.687 64.6779 64.6092 63.9621 65.1032 63.7089C66.5045 63.3811 67.3364 64.2863 67.5772 64.7798L68.5642 68.2354C70.6485 70.8562 69.8777 73.936 69.2318 75.1483L72.4197 80.8511L63.4218 85.4834L61.2277 80.8281C52.3209 77.5647 53.9043 77.2851 52.7719 75.7483C51.866 74.5189 52.5242 73.0948 52.9666 72.5365Z" fill="#FFCEAC"/>
<rect width="13.6561" height="2.56652" transform="matrix(0.90003 -0.441216 0.445335 0.892718 61.7686 85.9745)" fill="white"/>
<path d="M62.9612 88.2186L75.4502 82.1129L80.3533 98.2527L66.403 98.2527L62.9612 88.2186Z" fill="#013F57"/>
<path fill-rule="evenodd" clip-rule="evenodd" d="M18.2548 19.376C18.8727 19.376 19.4653 19.1327 19.9022 18.6996C20.3391 18.2665 20.5845 17.6791 20.5845 17.0666C20.5845 16.454 20.3391 15.8666 19.9022 15.4335C19.4653 15.0004 18.8727 14.7571 18.2548 14.7571C17.637 14.7571 17.0444 15.0004 16.6075 15.4335C16.1706 15.8666 15.9251 16.454 15.9251 17.0666C15.9251 17.6791 16.1706 18.2665 16.6075 18.6996C17.0444 19.1327 17.637 19.376 18.2548 19.376V19.376ZM12.8188 26.3044C12.8188 25.5968 12.9595 24.896 13.2326 24.2422C13.5058 23.5884 13.9062 22.9944 14.411 22.494C14.9158 21.9936 15.515 21.5967 16.1746 21.3259C16.8341 21.0551 17.541 20.9157 18.2548 20.9157C18.9687 20.9157 19.6756 21.0551 20.3351 21.3259C20.9946 21.5967 21.5939 21.9936 22.0987 22.494C22.6034 22.9944 23.0038 23.5884 23.277 24.2422C23.5502 24.896 23.6908 25.5968 23.6908 26.3044H12.8188Z" fill="white" fill-opacity="0.75"/>
</svg>
