<svg width="126" height="84" viewBox="0 0 126 84" fill="none" xmlns="http://www.w3.org/2000/svg">
<path d="M37.5762 74.4825H79.2975V74.3984H37.5762V74.4825Z" fill="#E7E8E5"/>
<path d="M39.2291 51.6702H32.3062V72.1073H39.2291V51.6702Z" fill="#F3F2F1"/>
<path d="M2.09016 37.0836H43.8637V33.9258H2.09016C0.93574 33.9258 0 34.633 0 35.5047C0 36.3768 0.93574 37.0836 2.09016 37.0836Z" fill="#17282F"/>
<path d="M18.2305 83.0438H20.8939V37.0837H18.2305V83.0438Z" fill="#0886AF"/>
<path d="M18.231 83.0438H20.8944V37.0837H18.231V83.0438Z" fill="#B8D2EF"/>
<path d="M5.01221 83.0438H7.67561V37.0837H5.01221V83.0438Z" fill="#0886AF"/>
<path d="M7.67558 83.0438H5.01221V37.0837H7.67558V57.0188V57.1029V72.1075V72.1916V76.45V76.5341V83.0438Z" fill="#B8D2EF"/>
<path d="M0.733398 35.5045C0.733398 36.0708 1.3409 36.5297 2.09047 36.5297C2.84004 36.5297 3.44755 36.0708 3.44755 35.5045C3.44755 34.9383 2.84004 34.4791 2.09047 34.4791C1.3409 34.4791 0.733398 34.9383 0.733398 35.5045Z" fill="#FB9D75"/>
<path d="M6.7002 35.5045C6.7002 36.0708 7.30814 36.5297 8.05772 36.5297C8.80729 36.5297 9.41479 36.0708 9.41479 35.5045C9.41479 34.9383 8.80729 34.4791 8.05772 34.4791C7.30814 34.4791 6.7002 34.9383 6.7002 35.5045Z" fill="#FB9D75"/>
<path d="M12.6685 35.5045C12.6685 36.0708 13.276 36.5297 14.0255 36.5297C14.7751 36.5297 15.3826 36.0708 15.3826 35.5045C15.3826 34.9383 14.7751 34.4791 14.0255 34.4791C13.276 34.4791 12.6685 34.9383 12.6685 35.5045Z" fill="#FB9D75"/>
<path d="M18.6357 35.5045C18.6357 36.0708 19.2432 36.5297 19.9928 36.5297C20.7424 36.5297 21.3499 36.0708 21.3499 35.5045C21.3499 34.9383 20.7424 34.4791 19.9928 34.4791C19.2432 34.4791 18.6357 34.9383 18.6357 35.5045Z" fill="#FB9D75"/>
<path d="M24.603 35.5045C24.603 36.0708 25.211 36.5297 25.9605 36.5297C26.7101 36.5297 27.3176 36.0708 27.3176 35.5045C27.3176 34.9383 26.7101 34.4791 25.9605 34.4791C25.211 34.4791 24.603 34.9383 24.603 35.5045Z" fill="#FB9D75"/>
<path d="M30.5713 35.5045C30.5713 36.0708 31.1792 36.5297 31.9288 36.5297C32.6784 36.5297 33.2859 36.0708 33.2859 35.5045C33.2859 34.9383 32.6784 34.4791 31.9288 34.4791C31.1792 34.4791 30.5713 34.9383 30.5713 35.5045Z" fill="#0886AF"/>
<path d="M36.5391 35.5045C36.5391 36.0708 37.147 36.5297 37.8966 36.5297C38.6462 36.5297 39.2537 36.0708 39.2537 35.5045C39.2537 34.9383 38.6462 34.4791 37.8966 34.4791C37.147 34.4791 36.5391 34.9383 36.5391 35.5045Z" fill="#0886AF"/>
<path d="M43.8639 34.4791V36.5297C43.1143 36.5297 42.5063 36.0708 42.5063 35.5045C42.5063 34.9383 43.1143 34.4791 43.8639 34.4791Z" fill="#0886AF"/>
<path d="M32.9804 0.0001297H75.8313C77.8502 0.0001297 79.487 1.23655 79.487 2.76163V83.0438H29.3247V2.76163C29.3247 1.23655 30.9615 0.0001297 32.9804 0.0001297Z" fill="#FB9D75"/>
<path d="M29.3242 24.3661V24.0545L29.3247 24.3661" fill="white"/>
<path d="M33.5393 24.3661H29.3242L29.3247 24.0545H33.5393V24.3661ZM43.2049 8.29162H42.793V3.24249e-05H43.2049V8.29162Z" fill="#5D87CD"/>
<path d="M79.4869 83.0438H64.3467V2.76163C64.3467 1.23655 65.9835 0.0001297 68.0028 0.0001297H75.8312C77.8501 0.0001297 79.4869 1.23655 79.4869 2.76163V5.36771V5.68565V7.20164V21.5041V26.2392V31.3389V33.9258H67.3931V37.0836H79.4869V57.0188V57.1029V65.8368V72.1916V83.0438Z" fill="#013F57"/>
<path d="M69.167 13.7778H74.6661C75.6459 13.7778 76.44 14.378 76.44 15.1185V40.4058H67.3926V15.1185C67.3926 14.378 68.1871 13.7778 69.167 13.7778Z" fill="#0886AF"/>
<path d="M81.7603 83.0438H84.424V35.6214H81.7603V83.0438Z" fill="#FB9D75"/>
<path d="M93.6577 83.0438H96.3215V35.6214H93.6577V83.0438Z" fill="#FB9D75"/>
<path d="M105.555 83.0438H108.218V35.6214H105.555V83.0438Z" fill="#FB9D75"/>
<path d="M117.453 83.0438H120.116V35.6214H117.453V83.0438Z" fill="#FB9D75"/>
<path d="M69.167 13.7778H73.933C74.9128 13.7778 75.7074 14.378 75.7074 15.1185V40.4058H67.3926V15.1185C67.3926 14.378 68.1871 13.7778 69.167 13.7778Z" fill="#040606"/>
<path d="M64.3471 78.5186H48.8193V45.7203H49.2318V78.2069H64.3471V78.5186ZM64.3471 40.9075H60.1324V40.596H64.3471V40.9075Z" fill="#5D87CD"/>
<path d="M42.8747 78.5186C41.442 78.5186 40.2769 77.6382 40.2769 76.5558C40.2769 75.4734 41.442 74.5932 42.8747 74.5932C44.3075 74.5932 45.4731 75.4734 45.4731 76.5558C45.4731 77.6382 44.3075 78.5186 42.8747 78.5186ZM42.8747 74.9048C41.6696 74.9048 40.6893 75.6454 40.6893 76.5558C40.6893 77.4661 41.6696 78.2069 42.8747 78.2069C44.0799 78.2069 45.0607 77.4661 45.0607 76.5558C45.0607 75.6454 44.0799 74.9048 42.8747 74.9048Z" fill="#5D87CD"/>
<path d="M35.9309 78.5186C34.4985 78.5186 33.3325 77.6382 33.3325 76.5558C33.3325 75.4734 34.4985 74.5932 35.9309 74.5932C37.3637 74.5932 38.5288 75.4734 38.5288 76.5558C38.5288 77.6382 37.3637 78.5186 35.9309 78.5186ZM35.9309 74.9048C34.7257 74.9048 33.7449 75.6454 33.7449 76.5558C33.7449 77.4661 34.7257 78.2069 35.9309 78.2069C37.1361 78.2069 38.1168 77.4661 38.1168 76.5558C38.1168 75.6454 37.1361 74.9048 35.9309 74.9048Z" fill="#5D87CD"/>
<path d="M123.566 37.0837H67.3926V33.9259H123.566C125.229 33.9259 126 34.6018 126 35.4736C126 36.3456 125.229 37.0837 123.566 37.0837Z" fill="#0886AF"/>
<path d="M122 37.0837H67.3926V33.9259H122C123.154 33.9259 124.088 34.6331 124.088 35.5048C124.088 36.3769 123.154 37.0837 122 37.0837Z" fill="#17282F"/>
<path d="M71.854 35.5205C71.854 36.0867 72.462 36.5457 73.2115 36.5457C73.9611 36.5457 74.5686 36.0867 74.5686 35.5205C74.5686 34.9543 73.9611 34.495 73.2115 34.495C72.462 34.495 71.854 34.9543 71.854 35.5205Z" fill="#FB9D75"/>
<path d="M96.3652 35.5205C96.3652 36.0867 96.9732 36.5457 97.7228 36.5457C98.4723 36.5457 99.0798 36.0867 99.0798 35.5205C99.0798 34.9543 98.4723 34.495 97.7228 34.495C96.9732 34.495 96.3652 34.9543 96.3652 35.5205Z" fill="#FB9D75"/>
<path d="M77.8228 35.5205C77.8228 36.0867 78.4303 36.5457 79.1798 36.5457C79.9294 36.5457 80.5369 36.0867 80.5369 35.5205C80.5369 34.9543 79.9294 34.495 79.1798 34.495C78.4303 34.495 77.8228 34.9543 77.8228 35.5205Z" fill="#FB9D75"/>
<path d="M102.333 35.5205C102.333 36.0867 102.941 36.5457 103.691 36.5457C104.44 36.5457 105.048 36.0867 105.048 35.5205C105.048 34.9543 104.44 34.495 103.691 34.495C102.941 34.495 102.333 34.9543 102.333 35.5205Z" fill="#FB9D75"/>
<path d="M83.79 35.5205C83.79 36.0867 84.3975 36.5457 85.1471 36.5457C85.8967 36.5457 86.5042 36.0867 86.5042 35.5205C86.5042 34.9543 85.8967 34.495 85.1471 34.495C84.3975 34.495 83.79 34.9543 83.79 35.5205Z" fill="#FB9D75"/>
<path d="M108.301 35.5205C108.301 36.0867 108.908 36.5457 109.658 36.5457C110.407 36.5457 111.015 36.0867 111.015 35.5205C111.015 34.9543 110.407 34.495 109.658 34.495C108.908 34.495 108.301 34.9543 108.301 35.5205Z" fill="#FB9D75"/>
<path d="M89.7578 35.5205C89.7578 36.0867 90.3658 36.5457 91.1153 36.5457C91.8649 36.5457 92.4724 36.0867 92.4724 35.5205C92.4724 34.9543 91.8649 34.495 91.1153 34.495C90.3658 34.495 89.7578 34.9543 89.7578 35.5205Z" fill="#FB9D75"/>
<path d="M114.269 35.5205C114.269 36.0867 114.876 36.5457 115.626 36.5457C116.376 36.5457 116.983 36.0867 116.983 35.5205C116.983 34.9543 116.376 34.495 115.626 34.495C114.876 34.495 114.269 34.9543 114.269 35.5205Z" fill="#FB9D75"/>
<path d="M119.701 35.5205C119.701 36.0867 120.309 36.5457 121.058 36.5457C121.808 36.5457 122.415 36.0867 122.415 35.5205C122.415 34.9543 121.808 34.495 121.058 34.495C120.309 34.495 119.701 34.9543 119.701 35.5205Z" fill="#FB9D75"/>
<path d="M67.3926 34.4791V36.5297C68.1422 36.5297 68.7501 36.0708 68.7501 35.5045C68.7501 34.9383 68.1422 34.4791 67.3926 34.4791Z" fill="#FB9D75"/>
<path d="M58.5753 45.7203H35.0975C34.2371 45.7203 33.54 45.1935 33.54 44.5435V9.4685C33.54 8.8185 34.2371 8.29163 35.0975 8.29163H58.5753C59.4353 8.29163 60.1328 8.8185 60.1328 9.4685V44.5435C60.1328 45.1935 59.4353 45.7203 58.5753 45.7203Z" fill="white"/>
<path d="M55.6319 23.449H38.0398C37.1232 23.449 36.3799 22.8875 36.3799 22.1951V13.5435C36.3799 12.8508 37.1232 12.2892 38.0398 12.2892H55.6319C56.5489 12.2892 57.2923 12.8508 57.2923 13.5435V22.1951C57.2923 22.8875 56.5489 23.449 55.6319 23.449Z" fill="#B8D2EF"/>
<path d="M55.7169 32.7341H37.9552C37.0849 32.7341 36.3799 32.2012 36.3799 31.5438V26.2385C36.3799 25.5811 37.0849 25.0481 37.9552 25.0481H55.7169C56.5868 25.0481 57.2923 25.5811 57.2923 26.2385V31.5438C57.2923 32.2012 56.5868 32.7341 55.7169 32.7341Z" fill="#B8D2EF"/>
<path d="M42.6847 28.8939L39.1938 27.9337C39.7265 26.8278 41.1268 26.0873 42.6847 26.0873C44.4805 26.0873 46.0318 27.0707 46.3435 28.4064L42.6847 28.8939Z" fill="#FB9D75"/>
<path d="M42.6846 28.8937L46.3434 28.4062C46.3809 28.567 46.4 28.7302 46.4 28.8937C46.4 30.4333 44.7227 31.7003 42.6846 31.7003C40.6466 31.7003 38.9697 30.4333 38.9697 28.8937C38.9697 28.566 39.0454 28.241 39.1938 27.9335L42.6846 28.8937Z" fill="white"/>
<path d="M52.8277 28.5256H51.4194V31.6935H52.8277V28.5256Z" fill="white"/>
<path d="M50.4332 30.2104H49.0249V31.6935H50.4332V30.2104Z" fill="white"/>
<path d="M50.4332 30.2103H49.0249V29.3056H50.4332V30.2103Z" fill="#FB9D75"/>
<path d="M52.8277 28.5256H51.4194V26.5938H52.8277V28.5256Z" fill="#FB9D75"/>
<path d="M55.2223 29.1022H53.814V31.6935H55.2223V29.1022Z" fill="white"/>
<path d="M55.2223 29.1022H53.814V27.9145H55.2223V29.1022Z" fill="#FB9D75"/>
<path d="M39.4242 20.2787H54.1992C54.6379 20.2787 54.9301 19.9352 54.7408 19.6361C54.3604 19.0362 53.8678 18.0249 53.7062 16.6401C53.4309 14.2773 51.3171 13.7127 50.4175 16.6401C49.5178 19.5678 45.9263 18.0575 44.4596 16.666C43.0968 15.3727 40.8685 16.8043 38.8942 19.6156C38.6835 19.9153 38.9743 20.2787 39.4242 20.2787Z" fill="#FB9D75"/>
<path d="M38.8535 35.0245C37.4871 35.0245 36.3799 35.8613 36.3799 36.8931C36.3799 37.9253 37.4871 38.7617 38.8535 38.7617C40.2195 38.7617 41.3272 37.9253 41.3272 36.8931C41.3272 35.8613 40.2195 35.0245 38.8535 35.0245ZM38.8535 35.3357C39.9901 35.3357 40.9147 36.0345 40.9147 36.8931C40.9147 37.7517 39.9901 38.4502 38.8535 38.4502C37.7169 38.4502 36.7919 37.7517 36.7919 36.8931C36.7919 36.0345 37.7169 35.3357 38.8535 35.3357Z" fill="#17282F"/>
<path d="M45.5733 35.0245C44.2073 35.0245 43.0996 35.8613 43.0996 36.8931C43.0996 37.9253 44.2073 38.7617 45.5733 38.7617C46.9397 38.7617 48.0473 37.9253 48.0473 36.8931C48.0473 35.8613 46.9397 35.0245 45.5733 35.0245ZM45.5733 35.3357C46.7099 35.3357 47.6349 36.0345 47.6349 36.8931C47.6349 37.7517 46.7099 38.4502 45.5733 38.4502C44.4366 38.4502 43.512 37.7517 43.512 36.8931C43.512 36.0345 44.4366 35.3357 45.5733 35.3357Z" fill="#0886AF"/>
<path d="M57.2924 41.8591C57.2924 42.3042 56.8145 42.6652 56.2248 42.6652C55.6351 42.6652 55.1572 42.3042 55.1572 41.8591C55.1572 41.4136 55.6351 41.0526 56.2248 41.0526C56.8145 41.0526 57.2924 41.4136 57.2924 41.8591Z" fill="#FB9D75"/>
<path d="M51.5295 42.6652C50.9398 42.6652 50.4619 42.3042 50.4619 41.8591C50.4619 41.4136 50.9398 41.0526 51.5295 41.0526C52.1192 41.0526 52.5971 41.4136 52.5971 41.8591C52.5971 42.3042 52.1192 42.6652 51.5295 42.6652Z" fill="#B8D2EF"/>
<path d="M47.9037 41.8591C47.9037 42.3042 47.4258 42.6652 46.8361 42.6652C46.2465 42.6652 45.7686 42.3042 45.7686 41.8591C45.7686 41.4136 46.2465 41.0526 46.8361 41.0526C47.4258 41.0526 47.9037 41.4136 47.9037 41.8591Z" fill="#FB9D75"/>
<path d="M43.2089 41.8591C43.2089 42.3042 42.731 42.6652 42.1413 42.6652C41.5516 42.6652 41.0737 42.3042 41.0737 41.8591C41.0737 41.4136 41.5516 41.0526 42.1413 41.0526C42.731 41.0526 43.2089 41.4136 43.2089 41.8591Z" fill="#FB9D75"/>
<path d="M38.515 41.8591C38.515 42.3042 38.0367 42.6652 37.4475 42.6652C36.8578 42.6652 36.3799 42.3042 36.3799 41.8591C36.3799 41.4136 36.8578 41.0526 37.4475 41.0526C38.0367 41.0526 38.515 41.4136 38.515 41.8591Z" fill="#FB9D75"/>
<path d="M3.14429 77.3837L3.10676 76.5342H3.1072L3.14429 77.3837ZM3.10367 76.45H3.10279L3.08203 75.9821H3.08292L3.10367 76.45Z" fill="#C3C5C2"/>
<path d="M3.10767 76.5339H3.10721L3.10303 76.4498H3.10395L3.10767 76.5339Z" fill="#B1B3B1"/>
</svg>
