<svg width="168" height="106" viewBox="0 0 168 106" fill="none" xmlns="http://www.w3.org/2000/svg">
<path d="M37.4844 96.4159L37.5922 95.688" stroke="#19191A" stroke-width="0.685051" stroke-miterlimit="10" stroke-linecap="round" stroke-linejoin="round"/>
<path d="M131.689 100.188H36.9741V47.8568C36.9741 46.802 37.8632 45.9469 38.9599 45.9469H129.703C130.8 45.9469 131.689 46.802 131.689 47.8568V100.188Z" fill="#263238"/>
<path d="M128.516 97.5924H40.1465V48.5422H128.516V97.5924Z" fill="#EEEEEE"/>
<path d="M131.75 105.119H35.8326C34.4208 105.119 33.1695 104.245 32.732 102.955L32.0818 101.037C31.766 100.106 32.4874 99.1499 33.5058 99.1499H134.077C135.095 99.1499 135.816 100.106 135.501 101.037L134.851 102.955C134.413 104.245 133.162 105.119 131.75 105.119Z" fill="#5ADEC8"/>
<path d="M69.0148 94.5774H42.4229V66.3357H69.0148V94.5774Z" stroke="white" stroke-width="2" stroke-miterlimit="10"/>
<path d="M97.5409 94.5774H70.9487V66.3357H97.5409V94.5774Z" stroke="white" stroke-width="2" stroke-miterlimit="10"/>
<path d="M126.067 94.5774H99.4746V81.9543H126.067V94.5774Z" stroke="white" stroke-width="2" stroke-miterlimit="10"/>
<path d="M126.067 79.1729H99.4746V66.3358H126.067V79.1729Z" stroke="white" stroke-width="2" stroke-miterlimit="10"/>
<g filter="url(#filter0_d_333_48)">
<path d="M143.311 16H24.6883C22.099 16 20 18.0191 20 20.5094V61.967C20 64.4573 22.099 66.4761 24.6883 66.4761H73.826L84.0002 81.652L94.1736 66.4761H143.311C145.901 66.4761 148 64.4573 148 61.967V20.5094C148 18.0191 145.901 16 143.311 16Z" fill="#E1E1E1"/>
<path d="M143.311 16H24.6883C22.099 16 20 18.0191 20 20.5094V61.967C20 64.4573 22.099 66.4761 24.6883 66.4761H73.826L84.0002 81.652L94.1736 66.4761H143.311C145.901 66.4761 148 64.4573 148 61.967V20.5094C148 18.0191 145.901 16 143.311 16Z" stroke="#C9C9C9" stroke-miterlimit="10"/>
</g>
<path d="M58.686 33.7607H43.9331C43.1989 33.7607 42.6035 33.1884 42.6035 32.482V22.7258C42.6035 22.0197 43.1989 21.4474 43.9331 21.4474H58.686C59.4202 21.4474 60.0156 22.0197 60.0156 22.7258V32.482C60.0156 33.1884 59.4202 33.7607 58.686 33.7607Z" fill="white"/>
<path d="M56.3155 25.0093L52.7123 29.1051C52.329 29.5408 51.6618 29.6202 51.1796 29.287L49.2489 27.9541C48.7843 27.6333 48.1442 27.694 47.7537 28.0959L42.7212 33.2769C42.882 33.5637 43.1933 33.7607 43.5558 33.7607H59.064C59.5897 33.7607 60.016 33.3508 60.016 32.8452V26.8489L57.9801 24.9339C57.5078 24.4893 56.7426 24.524 56.3155 25.0093Z" fill="#6FE5AC"/>
<path d="M48.7182 24.4586C48.9404 25.5864 47.9316 26.5567 46.759 26.3429C46.104 26.2235 45.5756 25.7153 45.4514 25.0854C45.2289 23.9573 46.238 22.987 47.4107 23.2007C48.0659 23.3202 48.594 23.8284 48.7182 24.4586Z" fill="#2F80ED"/>
<path d="M81.3072 41.4915H63.2106C62.31 41.4915 61.5796 40.7894 61.5796 39.9228V27.9555C61.5796 27.0893 62.31 26.3872 63.2106 26.3872H81.3072C82.2078 26.3872 82.9382 27.0893 82.9382 27.9555V39.9228C82.9382 40.7894 82.2078 41.4915 81.3072 41.4915Z" fill="white"/>
<path d="M62.9561 35.2512V33.8807L68.9133 31.7717V33.16L64.8201 34.566L68.9133 35.9719V37.3602L62.9561 35.2512Z" fill="#4F4F4F"/>
<path d="M73.616 29.7241H74.9824L71.0128 39.4077H69.646L73.616 29.7241Z" fill="#4F4F4F"/>
<path d="M75.7158 37.3602V35.9719L79.8089 34.566L75.7158 33.16V31.7717L81.6727 33.8807V35.2512L75.7158 37.3602Z" fill="#4F4F4F"/>
<path d="M81.7029 26.3871H62.8149C62.1327 26.3871 61.5796 26.9188 61.5796 27.5749V28.1487H82.9382V27.5749C82.9382 26.9188 82.3854 26.3871 81.7029 26.3871Z" fill="#296ACC"/>
<path d="M80.9441 27.2228C80.9441 26.9603 80.7227 26.7474 80.4498 26.7474C80.1765 26.7474 79.9551 26.9603 79.9551 27.2228C79.9551 27.4857 80.1765 27.6986 80.4498 27.6986C80.7227 27.6986 80.9441 27.4857 80.9441 27.2228Z" fill="white"/>
<path d="M79.3783 27.2228C79.3783 26.9603 79.1573 26.7474 78.8843 26.7474C78.6111 26.7474 78.3896 26.9603 78.3896 27.2228C78.3896 27.4857 78.6111 27.6986 78.8843 27.6986C79.1573 27.6986 79.3783 27.4857 79.3783 27.2228Z" fill="white"/>
<path d="M104.923 33.7607H90.1701C89.4362 33.7607 88.8408 33.1884 88.8408 32.482V22.7258C88.8408 22.0197 89.4362 21.4474 90.1701 21.4474H104.923C105.658 21.4474 106.253 22.0197 106.253 22.7258V32.482C106.253 33.1884 105.658 33.7607 104.923 33.7607Z" fill="white"/>
<path d="M103.896 24.9911H96.2983V24.4279H103.896V24.9911Z" fill="#4F4F4F"/>
<path d="M103.896 26.7461H96.2983V26.1829H103.896V26.7461Z" fill="#4F4F4F"/>
<path d="M103.896 28.5012H91.124V27.938H103.896V28.5012Z" fill="#4F4F4F"/>
<path d="M103.896 30.2561H91.124V29.6926H103.896V30.2561Z" fill="#4F4F4F"/>
<path d="M103.896 32.011H91.124V31.4475H103.896V32.011Z" fill="#4F4F4F"/>
<path d="M93.0763 24.9439L92.8365 27.0967H91.9301L91.4619 23.0564H92.1044L92.4582 26.2424L92.776 23.0564H93.4122L93.7426 26.2657L94.0845 23.0564H94.6608L94.1926 27.0967H93.3163L93.0763 24.9439Z" fill="#2F80ED"/>
<path d="M128.042 33.7607H113.289C112.554 33.7607 111.959 33.1884 111.959 32.482V22.7258C111.959 22.0197 112.554 21.4474 113.289 21.4474H128.042C128.776 21.4474 129.371 22.0197 129.371 22.7258V32.482C129.371 33.1884 128.776 33.7607 128.042 33.7607Z" fill="white"/>
<path d="M126.825 25.7933H114.652V23.2977H126.825V25.7933Z" fill="#4F4F4F"/>
<path d="M126.825 28.8562H114.652V26.3605H126.825V28.8562Z" fill="#4F4F4F"/>
<path d="M126.825 31.9187H114.652V29.4233H126.825V31.9187Z" fill="#4F4F4F"/>
<path d="M117.308 25.7933H114.652V23.2977H117.308V25.7933Z" fill="#2F80ED"/>
<path d="M117.308 28.8562H114.652V26.3605H117.308V28.8562Z" fill="#2F80ED"/>
<path d="M117.308 31.9187H114.652V29.4233H117.308V31.9187Z" fill="#2F80ED"/>
<path d="M116.644 24.5456C116.644 24.8982 116.347 25.1841 115.98 25.1841C115.613 25.1841 115.316 24.8982 115.316 24.5456C115.316 24.1929 115.613 23.907 115.98 23.907C116.347 23.907 116.644 24.1929 116.644 24.5456Z" fill="white"/>
<path d="M116.644 27.6083C116.644 27.9609 116.347 28.2468 115.98 28.2468C115.613 28.2468 115.316 27.9609 115.316 27.6083C115.316 27.2554 115.613 26.9695 115.98 26.9695C116.347 26.9695 116.644 27.2554 116.644 27.6083Z" fill="white"/>
<path d="M116.644 30.671C116.644 31.0236 116.347 31.3098 115.98 31.3098C115.613 31.3098 115.316 31.0236 115.316 30.671C115.316 30.3184 115.613 30.0325 115.98 30.0325C116.347 30.0325 116.644 30.3184 116.644 30.671Z" fill="white"/>
<path d="M70.4233 53.0607H55.6701C54.9359 53.0607 54.3408 52.4883 54.3408 51.7819V42.0258C54.3408 41.3196 54.9359 40.7473 55.6701 40.7473H70.4233C71.1575 40.7473 71.7526 41.3196 71.7526 42.0258V51.7819C71.7526 52.4883 71.1575 53.0607 70.4233 53.0607Z" fill="white"/>
<path d="M58.0253 45.3499C58.0253 44.8443 58.4512 44.4343 58.9769 44.4343C59.5026 44.4343 59.9288 44.8443 59.9288 45.3499C59.9288 45.8552 59.5026 46.2654 58.9769 46.2654C58.4512 46.2654 58.0253 45.8552 58.0253 45.3499ZM60.6425 46.3963L61.9247 46.5659L62.1481 45.6243L60.9624 45.2562C60.9534 45.0792 60.9204 44.9084 60.865 44.7471L61.777 43.9118L61.1512 43.1567L60.1418 43.8001C59.9878 43.6929 59.8177 43.6067 59.6354 43.5451L59.5273 42.3681H58.5233L58.4187 43.5136C58.2293 43.5666 58.0515 43.646 57.89 43.7474L56.8702 43.0968L56.2438 43.8522L57.1231 44.6575C57.0566 44.8219 57.0123 44.9972 56.9956 45.1803L55.8057 45.5498L56.0291 46.4914L57.2684 46.3276C57.3578 46.4722 57.4659 46.6049 57.5907 46.7214L57.1359 47.8793L58.0407 48.2984L58.6939 47.2422C58.7866 47.2551 58.8807 47.2637 58.9769 47.2637C59.0496 47.2637 59.1211 47.2597 59.1919 47.2523L59.8594 48.3317L60.764 47.9126L60.3134 46.765C60.4385 46.6558 60.5495 46.5327 60.6425 46.3963Z" fill="#4F4F4F"/>
<path d="M64.5066 47.1335C64.5066 46.377 65.1443 45.7639 65.9313 45.7639C66.7176 45.7639 67.3553 46.377 67.3553 47.1335C67.3553 47.8901 66.7176 48.5034 65.9313 48.5034C65.1443 48.5034 64.5066 47.8901 64.5066 47.1335ZM68.5506 48.4956L70.0622 48.6956L70.3097 47.6517L68.9044 47.2154C68.9053 47.1879 68.9089 47.161 68.9089 47.1335C68.9089 46.7284 68.8201 46.3434 68.6623 45.9939L69.7068 45.0374L69.0128 44.2004L67.8476 44.9432C67.5015 44.6627 67.0875 44.4588 66.6333 44.3531L66.5118 43.0236H65.3984L65.2781 44.3408C64.8197 44.4396 64.4009 44.6384 64.0491 44.9146L62.8825 44.1706L62.1885 45.0077L63.2202 45.9527C63.0504 46.3131 62.953 46.7121 62.953 47.1335C62.953 47.149 62.9551 47.1639 62.9554 47.179L61.5522 47.6148L61.7998 48.6586L63.2938 48.461C63.4856 48.8128 63.7504 49.121 64.07 49.3674L63.5225 50.7624L64.5254 51.2268L65.3231 49.9374C65.5193 49.9767 65.7225 49.9976 65.9313 49.9976C66.1278 49.9976 66.3194 49.9781 66.5055 49.9429L67.3097 51.2434L68.3129 50.7788L67.766 49.386C68.0865 49.1442 68.3555 48.8425 68.5506 48.4956Z" fill="#2F80ED"/>
<path d="M93.6221 53.0607H78.8689C78.1347 53.0607 77.5396 52.4883 77.5396 51.7819V42.0258C77.5396 41.3196 78.1347 40.7473 78.8689 40.7473H93.6221C94.3563 40.7473 94.9514 41.3196 94.9514 42.0258V51.7819C94.9514 52.4883 94.3563 53.0607 93.6221 53.0607Z" fill="white"/>
<path d="M90.4421 46.9214C90.4421 44.536 88.4316 42.6027 85.952 42.6027C83.4721 42.6027 81.4619 44.536 81.4619 46.9214C81.4619 49.3062 83.4721 51.2399 85.952 51.2399C88.4316 51.2399 90.4421 49.3062 90.4421 46.9214Z" fill="#4F4F4F"/>
<path d="M88.9907 46.9428L83.8799 44.105V49.7808L88.9907 46.9428Z" fill="#F2F2F2"/>
<path d="M116.821 53.0607H102.068C101.334 53.0607 100.739 52.4883 100.739 51.7819V42.0258C100.739 41.3196 101.334 40.7473 102.068 40.7473H116.821C117.555 40.7473 118.151 41.3196 118.151 42.0258V51.7819C118.151 52.4883 117.555 53.0607 116.821 53.0607Z" fill="white"/>
<path d="M116.003 50.7223C116.262 50.329 116.414 49.8643 116.414 49.3644C116.414 47.9582 115.228 46.8181 113.766 46.8181C113.637 46.8181 113.512 46.8298 113.387 46.847C113.403 46.7261 113.413 46.6035 113.413 46.4786C113.413 44.8223 112.017 43.4796 110.295 43.4796C108.773 43.4796 107.508 44.5286 107.233 45.9154C107.215 45.9151 107.196 45.9128 107.177 45.9128C105.455 45.9128 104.059 47.2555 104.059 48.9115C104.059 49.5928 104.297 50.219 104.695 50.7223H116.003Z" fill="#4F4F4F"/>
<path d="M116.296 45.1941V43.2163H114.413V45.1941H113.505L115.355 48.2753L117.204 45.1941H116.296Z" fill="#2F80ED"/>
<path d="M102.706 48.7445V50.7223H104.588V48.7445H105.496L103.647 45.6633L101.797 48.7445H102.706" fill="#2F80ED"/>
<defs>
<filter id="filter0_d_333_48" x="0.5" y="0.5" width="167" height="105.05" filterUnits="userSpaceOnUse" color-interpolation-filters="sRGB">
<feFlood flood-opacity="0" result="BackgroundImageFix"/>
<feColorMatrix in="SourceAlpha" type="matrix" values="0 0 0 0 0 0 0 0 0 0 0 0 0 0 0 0 0 0 127 0" result="hardAlpha"/>
<feOffset dy="4"/>
<feGaussianBlur stdDeviation="9.5"/>
<feColorMatrix type="matrix" values="0 0 0 0 0 0 0 0 0 0 0 0 0 0 0 0 0 0 0.25 0"/>
<feBlend mode="normal" in2="BackgroundImageFix" result="effect1_dropShadow_333_48"/>
<feBlend mode="normal" in="SourceGraphic" in2="effect1_dropShadow_333_48" result="shape"/>
</filter>
</defs>
</svg>
