<svg width="81" height="103" viewBox="0 0 81 103" fill="none" xmlns="http://www.w3.org/2000/svg">
<rect x="0.582031" y="1" width="72.1259" height="97.3211" fill="#F2F6F9"/>
<rect x="0.332031" y="0.75" width="72.6259" height="97.8211" stroke="black" stroke-opacity="0.5" stroke-width="0.5"/>
<path d="M16.2741 29.7639C21.2157 29.7639 25.1487 25.4058 25.1487 20.1237C25.1487 14.8416 21.2157 10.4834 16.2741 10.4834C11.3325 10.4834 7.39941 14.8416 7.39941 20.1237C7.39941 25.4058 11.3325 29.7639 16.2741 29.7639Z" fill="#013F57" stroke="black"/>
<rect x="29.6025" y="12.2747" width="35.6126" height="2.39599" fill="black"/>
<rect x="29.6084" y="16.574" width="20.1642" height="2.39599" fill="black"/>
<rect x="29.6084" y="20.8779" width="14.1881" height="2.39599" fill="#C9CDD3"/>
<rect x="29.6084" y="25.1819" width="25.4492" height="2.39599" fill="#C9CDD3"/>
<rect x="22.6113" y="70.7991" width="42.8083" height="9.49523" fill="#C9CDD3"/>
<rect x="22.6113" y="82.8235" width="42.8083" height="9.49523" fill="#C9CDD3"/>
<rect x="9.67773" y="39.0657" width="56.1105" height="25.042" fill="#013F57" stroke="white" stroke-width="3"/>
<ellipse cx="15.2925" cy="44.7537" rx="2.03269" ry="2.21851" fill="white"/>
<ellipse cx="24.644" cy="49.7676" rx="2.03269" ry="2.21851" fill="white"/>
<ellipse cx="37.4487" cy="49.9895" rx="2.03269" ry="2.21851" fill="white"/>
<ellipse cx="45.6665" cy="56.531" rx="2.03269" ry="2.21851" fill="white"/>
<ellipse cx="58.6772" cy="56.8179" rx="2.03269" ry="2.21851" fill="white"/>
<line y1="-1.23526" x2="9.96187" y2="-1.23526" transform="matrix(0.869238 0.494394 -0.430879 0.90241 15.293 45.23)" stroke="white" stroke-width="2.47052"/>
<line y1="-1.23526" x2="9.76592" y2="-1.23526" transform="matrix(0.99964 0.0268364 -0.0225314 0.999746 26.124 50.1467)" stroke="white" stroke-width="2.47052"/>
<line y1="-1.08445" x2="7.81285" y2="-1.08445" transform="matrix(0.742073 0.670319 -0.604233 0.796808 38.5117 51.094)" stroke="white" stroke-width="2.16891"/>
<line y1="-1.23526" x2="10.5944" y2="-1.23526" transform="matrix(0.999837 0.0180608 -0.0151626 0.999885 46.4805 57.3059)" stroke="white" stroke-width="2.47052"/>
<rect x="8.17773" y="70.7991" width="12.4807" height="9.49523" fill="#013F57"/>
<rect x="8.17773" y="83.0452" width="12.4807" height="9.49523" fill="#013F57"/>
<path fill-rule="evenodd" clip-rule="evenodd" d="M15.4004 89.0105C15.4484 89.0629 15.4754 89.134 15.4754 89.2082C15.4754 89.2823 15.4484 89.3534 15.4004 89.4058L14.3759 90.5239C14.3279 90.5763 14.2628 90.6058 14.1949 90.6058C14.127 90.6058 14.0618 90.5763 14.0138 90.5239L12.9893 89.4058C12.9649 89.38 12.9453 89.3492 12.9319 89.3151C12.9185 89.2809 12.9114 89.2443 12.9111 89.2072C12.9108 89.17 12.9173 89.1332 12.9302 89.0989C12.9431 89.0645 12.9621 89.0333 12.9861 89.0071C13.0102 88.9808 13.0388 88.9601 13.0703 88.946C13.1017 88.932 13.1355 88.9249 13.1695 88.9252C13.2035 88.9255 13.2371 88.9332 13.2683 88.9479C13.2996 88.9625 13.3278 88.9838 13.3515 89.0105L13.9388 89.6515V86.4128C13.9388 86.3387 13.9657 86.2676 14.0138 86.2152C14.0618 86.1628 14.1269 86.1333 14.1949 86.1333C14.2628 86.1333 14.3279 86.1628 14.376 86.2152C14.424 86.2676 14.451 86.3387 14.451 86.4128V89.6515L15.0383 89.0105C15.0863 88.9581 15.1514 88.9287 15.2193 88.9287C15.2873 88.9287 15.3524 88.9581 15.4004 89.0105Z" fill="#F2F6F9"/>
<rect x="11.958" y="73.905" width="5.36629" height="2.83969" fill="#F2F6F9"/>
<path d="M47.7811 72.5364L49.4461 71.766L44.8618 60.7624C44.6604 59.5284 45.4732 58.8659 45.9049 58.6889C47.2299 58.0292 47.9764 58.9042 48.1841 59.4241L50.7655 65.6794C51.0345 64.4432 52.1018 64.2003 52.6018 64.2334C53.2919 64.1471 53.9829 65.1581 54.266 65.7177C53.9887 65.1014 54.7248 64.3039 55.1384 63.9749C56.7647 63.4952 57.5339 64.7969 57.7233 65.5302C57.5182 64.6779 58.3558 63.9621 58.8045 63.7089C60.0772 63.3811 60.8328 64.2863 61.0515 64.7798L61.9481 68.2354C63.8412 70.8562 63.1411 73.936 62.5544 75.1483L65.4499 80.8511L57.2773 85.4834L55.2845 80.8281C47.1946 77.5647 48.6328 77.2851 47.6043 75.7483C46.7814 74.5189 47.3793 73.0948 47.7811 72.5364Z" fill="#FFCEAC"/>
<rect width="12.9987" height="2.45826" transform="matrix(0.858823 -0.463531 0.422302 0.932033 55.7764 85.9744)" fill="white"/>
<path d="M56.8592 88.2186L68.2026 82.1129L72.656 98.2527L59.9852 98.2527L56.8592 88.2186Z" fill="#013F57"/>
<path fill-rule="evenodd" clip-rule="evenodd" d="M16.2548 19.376C16.816 19.376 17.3542 19.1327 17.751 18.6996C18.1479 18.2665 18.3708 17.6791 18.3708 17.0666C18.3708 16.454 18.1479 15.8666 17.751 15.4335C17.3542 15.0004 16.816 14.7571 16.2548 14.7571C15.6936 14.7571 15.1553 15.0004 14.7585 15.4335C14.3617 15.8666 14.1387 16.454 14.1387 17.0666C14.1387 17.6791 14.3617 18.2665 14.7585 18.6996C15.1553 19.1327 15.6936 19.376 16.2548 19.376ZM11.3174 26.3044C11.3174 25.5968 11.4451 24.896 11.6932 24.2422C11.9413 23.5884 12.305 22.9944 12.7635 22.494C13.222 21.9936 13.7663 21.5967 14.3653 21.3259C14.9643 21.0551 15.6064 20.9157 16.2548 20.9157C16.9032 20.9157 17.5452 21.0551 18.1442 21.3259C18.7433 21.5967 19.2876 21.9936 19.746 22.494C20.2045 22.9944 20.5682 23.5884 20.8163 24.2422C21.0645 24.896 21.1922 25.5968 21.1922 26.3044H11.3174Z" fill="white" fill-opacity="0.75"/>
</svg>
