<svg width="129" height="83" viewBox="0 0 129 83" fill="none" xmlns="http://www.w3.org/2000/svg">
<path d="M0.0205078 82.2446H128.38" stroke="#100F0D" stroke-width="0.870321" stroke-miterlimit="10"/>
<path d="M75.3866 81.7869H44.1514V79.0633H75.3866V81.7869Z" fill="white"/>
<path d="M75.3866 81.7869H44.1514V79.608H75.3866V81.7869Z" stroke="#100F0D" stroke-width="0.823009" stroke-miterlimit="10"/>
<path d="M52.8213 30.0845C52.8213 30.0845 55.4064 31.8925 58.8161 36.2176C63.1142 41.6698 68.7314 50.0718 72.2379 52.1399C80.1501 56.8063 92.9655 57.5115 92.9655 57.5115L86.9724 70.4963L58.379 66.5828L52.8213 30.0845Z" fill="white"/>
<path d="M52.8213 30.0845C52.8213 30.0845 55.4064 31.8925 58.8161 36.2176C63.1142 41.6698 68.7314 50.0718 72.2379 52.1399C80.1501 56.8063 92.9655 57.5115 92.9655 57.5115L86.9724 70.4963L58.379 66.5828L52.8213 30.0845Z" stroke="#100F0D" stroke-width="0.823009" stroke-miterlimit="10"/>
<path d="M69.2798 60.5858C68.6856 60.7035 68.11 60.2532 67.9946 59.5806L67.3465 55.8047C67.231 55.1321 67.6194 54.4916 68.214 54.3743C68.8082 54.257 69.3841 54.7069 69.4993 55.3798L70.1473 59.1554C70.2628 59.8283 69.8744 60.4689 69.2798 60.5858Z" fill="#FB9D75"/>
<path d="M63.8454 50.2384C63.2508 50.3561 62.6755 49.9054 62.5597 49.2329L61.912 45.4569C61.7962 44.7844 62.1846 44.1438 62.7792 44.0265C63.3737 43.9092 63.9493 44.3595 64.0648 45.032L64.7129 48.808C64.828 49.4805 64.44 50.1211 63.8454 50.2384Z" fill="#FB9D75"/>
<path d="M73.815 67.2256C73.2208 67.3429 72.6452 66.8926 72.5297 66.22L71.8816 62.4444C71.7662 61.7715 72.1546 61.131 72.7491 61.0137C73.3434 60.8964 73.919 61.3463 74.0344 62.0192L74.6825 65.7948C74.7979 66.4677 74.4096 67.1079 73.815 67.2256Z" fill="#FB9D75"/>
<path d="M77.4039 62.6482C76.8093 62.7655 76.234 62.3152 76.1186 61.6426L75.4705 57.8667C75.3551 57.1941 75.7434 56.5536 76.3377 56.4363C76.9322 56.3186 77.5078 56.7693 77.6233 57.4418L78.2714 61.2178C78.3868 61.8903 77.9984 62.5309 77.4039 62.6482Z" fill="#FB9D75"/>
<path d="M83.2352 69.1967C82.6409 69.3143 82.065 68.8637 81.9495 68.1911L81.3015 64.4155C81.1863 63.743 81.5747 63.102 82.1693 62.9851C82.7635 62.8678 83.3391 63.3178 83.4546 63.9903L84.1026 67.7662C84.2181 68.4388 83.8297 69.0794 83.2352 69.1967Z" fill="#5C42A3"/>
<path d="M87.4488 64.0398C86.8542 64.1571 86.2786 63.7071 86.1635 63.0346L85.5154 59.2586C85.4 58.5861 85.788 57.9455 86.3826 57.8282C86.9772 57.7109 87.5524 58.1609 87.6679 58.8334L88.3159 62.6093C88.4314 63.2819 88.043 63.9228 87.4488 64.0398Z" fill="#5C42A3"/>
<path d="M47.2048 29.4781C47.2048 29.4781 55.4753 25.0583 62.7892 45.7476C67.8823 60.1545 66.2127 70.438 66.2127 70.438L24.5039 69.9093C24.5039 69.9093 32.4679 35.198 47.2048 29.4781Z" fill="white"/>
<path d="M47.2048 29.4781C47.2048 29.4781 55.4753 25.0583 62.7892 45.7476C67.8823 60.1545 66.2127 70.438 66.2127 70.438L24.5039 69.9093C24.5039 69.9093 32.4679 35.198 47.2048 29.4781Z" stroke="#100F0D" stroke-width="0.823009" stroke-miterlimit="10"/>
<path d="M41.6453 62.4755C41.0508 62.5928 40.4752 62.1429 40.3597 61.47L39.7116 57.6944C39.5965 57.0215 39.9845 56.3809 40.5791 56.2636C41.1737 56.1464 41.7489 56.5963 41.8644 57.2692L42.5125 61.0448C42.6279 61.7177 42.2399 62.3579 41.6453 62.4755Z" fill="#FB9D75"/>
<path d="M48.8241 57.0835C48.2296 57.2008 47.654 56.7505 47.5385 56.0776L46.8904 52.302C46.775 51.6291 47.1633 50.9889 47.7579 50.8716C48.3521 50.7539 48.9281 51.2046 49.0432 51.8771L49.6916 55.6531C49.8067 56.3256 49.4184 56.9662 48.8241 57.0835Z" fill="#FB9D75"/>
<path d="M55.272 63.7107C54.6778 63.828 54.1022 63.378 53.9867 62.7051L53.3387 58.9295C53.2232 58.2566 53.6116 57.6164 54.2058 57.4988C54.8004 57.3815 55.376 57.8318 55.4915 58.5043L56.1395 62.2802C56.255 62.9528 55.8666 63.5934 55.272 63.7107Z" fill="#FB9D75"/>
<path d="M61.0367 55.677C60.4425 55.7943 59.8668 55.344 59.7514 54.6714L59.1033 50.8959C58.9879 50.2229 59.3762 49.5827 59.9708 49.4651C60.5654 49.3478 61.141 49.7977 61.2561 50.4706L61.9042 54.2462C62.0196 54.9191 61.6313 55.5597 61.0367 55.677Z" fill="#FB9D75"/>
<path d="M48.4019 41.4355C47.8074 41.5528 47.2321 41.1025 47.1166 40.43L46.4686 36.654C46.3531 35.9815 46.7415 35.3409 47.3357 35.2236H47.336C47.9303 35.106 48.5059 35.5566 48.6213 36.2292L49.2694 40.0051C49.3849 40.6776 48.9965 41.3182 48.4019 41.4355Z" fill="#FB9D75"/>
<path d="M54.6559 38.3112C54.0614 38.4285 53.4858 37.9786 53.3703 37.3057L52.7226 33.5301C52.6068 32.8572 52.9951 32.2166 53.5897 32.0993C54.1839 31.982 54.7599 32.432 54.8753 33.1049L55.5234 36.8805C55.6385 37.5534 55.2502 38.1936 54.6559 38.3112Z" fill="#FB9D75"/>
<path d="M64.5504 66.9917C63.9561 67.109 63.3805 66.6587 63.2651 65.9861L62.617 62.2102C62.5015 61.5377 62.8899 60.8971 63.4841 60.7798H63.4845C64.0787 60.6621 64.6543 61.1128 64.7698 61.7853L65.4178 65.5613C65.5333 66.2338 65.1449 66.8744 64.5504 66.9917Z" fill="#FB9D75"/>
<path d="M42.8394 48.7855C42.2452 48.9032 41.6696 48.4525 41.5541 47.78L40.9061 44.004C40.7906 43.3315 41.179 42.6909 41.7735 42.5736C42.3678 42.4563 42.9434 42.9066 43.0588 43.5792L43.7069 47.3551C43.8224 48.0276 43.434 48.6682 42.8394 48.7855Z" fill="#FB9D75"/>
<path d="M48.8911 62.1055L47.3691 75.7516C47.3691 75.7516 56.6496 75.2869 61.7559 75.9769C66.8623 76.6672 69.9898 77.1204 69.9898 77.1204C69.9898 77.1204 71.6842 77.1232 71.4732 76.0617C71.2619 75.0007 71.2917 75.2029 72.1074 75.443C72.9231 75.6827 74.0929 75.1445 74.1616 74.4494C74.2304 73.7544 73.9107 72.9173 73.9107 72.9173C73.9107 72.9173 74.9492 73.1251 75.5052 73.0576C76.0615 72.9901 77.7416 72.1635 77.5587 71.2858C77.3762 70.408 76.7343 67.2157 67.4071 64.7783C58.0798 62.3409 48.8911 62.1055 48.8911 62.1055Z" fill="white"/>
<path d="M46.6904 75.7962C46.6904 75.7962 58.508 74.8779 68.2226 76.9336C69.0477 77.1082 72.2515 77.6431 71.2973 75.4691C70.3432 73.295 65.5013 72.0977 63.1687 71.7788" stroke="#100F0D" stroke-width="0.823009" stroke-miterlimit="10"/>
<path d="M64.0166 67.5363C64.0166 67.5363 66.8439 68.178 69.13 69.3585C70.7959 70.2188 72.4614 71.3711 73.3641 72.2496C75.4319 74.2613 73.5267 76.2416 71.1243 75.1612" stroke="#100F0D" stroke-width="0.823009" stroke-miterlimit="10"/>
<path d="M48.2891 62.0944C48.2891 62.0944 60.4821 62.1514 70.7662 65.8471C81.0506 69.5428 77.6075 74.5731 73.7096 72.6266" stroke="#100F0D" stroke-width="0.823009" stroke-miterlimit="10"/>
<path d="M46.6558 29.9665C46.6558 29.9665 30.9911 29.5031 19.107 48.4805C7.22265 67.4576 8.67887 86.8333 34.6121 80.4588C38.236 79.5679 48.9278 76.1378 48.9278 76.1378L50.1978 61.6909C50.1978 61.6909 38.0813 60.6047 29.6998 60.0745L46.6558 29.9665Z" fill="white"/>
<path d="M41.998 78.3137C45.5814 77.2115 48.9287 76.1378 48.9287 76.1378L50.1988 61.6909C50.1988 61.6909 47.4596 61.4458 43.6873 61.131L41.998 78.3137Z" fill="#FB9D75"/>
<path d="M41.998 78.3137C45.5814 77.2115 48.9287 76.1378 48.9287 76.1378L50.1988 61.6909C50.1988 61.6909 47.4596 61.4458 43.6873 61.131L41.998 78.3137Z" stroke="#100F0D" stroke-width="0.823009" stroke-miterlimit="10"/>
<path d="M43.417 63.8857L49.9654 64.353" stroke="#100F0D" stroke-width="0.823009" stroke-miterlimit="10"/>
<path d="M43.0605 67.5094L49.5534 67.5364" stroke="#100F0D" stroke-width="0.823009" stroke-miterlimit="10"/>
<path d="M42.7363 71.1047L49.4591 70.5764" stroke="#100F0D" stroke-width="0.823009" stroke-miterlimit="10"/>
<path d="M42.3076 74.5559L49.1225 73.3242" stroke="#100F0D" stroke-width="0.823009" stroke-miterlimit="10"/>
<path d="M46.6558 29.9665C46.6558 29.9665 30.9911 29.5031 19.107 48.4805C7.22265 67.4576 8.67887 86.8333 34.6121 80.4588C38.236 79.5679 48.9278 76.1378 48.9278 76.1378L50.1978 61.6909C50.1978 61.6909 38.0813 60.6047 29.6998 60.0745" stroke="#100F0D" stroke-width="0.823009" stroke-miterlimit="10"/>
<path d="M34.0518 60.373L38.0834 52.0404" stroke="#100F0D" stroke-width="0.823009" stroke-miterlimit="10"/>
<path d="M21.0564 64.2484C20.4619 64.3661 19.8863 63.9158 19.771 63.2432L19.1229 59.4673C19.0074 58.7947 19.3959 58.1542 19.9901 58.0369H19.9904C20.5846 57.9196 21.1602 58.3695 21.2757 59.042L21.9237 62.818C22.0393 63.4905 21.651 64.1311 21.0564 64.2484Z" fill="#FB9D75"/>
<path d="M17.5593 76.1657C16.965 76.283 16.3892 75.8327 16.2738 75.1599L15.6258 71.3846C15.5103 70.7117 15.8988 70.0711 16.493 69.9534L16.4933 69.9538C17.0876 69.8365 17.6632 70.2864 17.7786 70.9594L18.4266 74.7349C18.5422 75.4078 18.1539 76.0484 17.5593 76.1657Z" fill="#FB9D75"/>
<path d="M27.8396 77.6618C27.2451 77.7792 26.6695 77.3292 26.5542 76.6562L25.9061 72.8807C25.7906 72.2078 26.1791 71.5676 26.7733 71.4499H26.7736C27.3678 71.3326 27.9434 71.7826 28.0589 72.4554L28.7069 76.231C28.8225 76.9039 28.4341 77.5445 27.8396 77.6618Z" fill="#FB9D75"/>
<path d="M33.3065 68.3396C32.7119 68.4569 32.1363 68.0066 32.0208 67.334L31.3727 63.5581C31.2576 62.8856 31.646 62.245 32.2402 62.1277C32.8348 62.01 33.4101 62.4607 33.5259 63.1332L34.1736 66.9092C34.2894 67.5817 33.901 68.2223 33.3065 68.3396Z" fill="#FB9D75"/>
<path d="M31.0163 57.0835C30.4217 57.2008 29.8463 56.7505 29.7307 56.0776L29.0829 52.302C28.9673 51.6291 29.3556 50.9889 29.9501 50.8716C30.5446 50.7539 31.1202 51.2046 31.2357 51.8771L31.8837 55.6531C31.9992 56.3256 31.6108 56.9662 31.0163 57.0835Z" fill="#FB9D75"/>
<path d="M35.2509 47.7096C34.6563 47.8273 34.0807 47.3766 33.9653 46.7041L33.3172 42.9281C33.2017 42.2556 33.5901 41.615 34.1847 41.4977C34.7789 41.3804 35.3545 41.8307 35.47 42.5036L36.118 46.2792C36.2335 46.9521 35.8451 47.5923 35.2509 47.7096Z" fill="#FB9D75"/>
<path d="M40.9136 38.3112C40.3191 38.4285 39.7438 37.9786 39.6283 37.3057L38.9803 33.5301C38.8648 32.8572 39.2532 32.2166 39.8474 32.0993H39.8478C40.442 31.982 41.0176 32.432 41.133 33.1049L41.7811 36.8805C41.8966 37.5534 41.5082 38.1936 40.9136 38.3112Z" fill="#FB9D75"/>
<path d="M24.4216 50.8339C23.8271 50.9512 23.2516 50.5013 23.1362 49.8284L22.4881 46.0528C22.3727 45.3799 22.761 44.7397 23.3554 44.6224C23.95 44.5047 24.5254 44.955 24.6408 45.6276L25.2889 49.4035C25.4043 50.0761 25.0161 50.717 24.4216 50.8339Z" fill="#FB9D75"/>
<path d="M39.4927 76.1657C38.8982 76.283 38.3229 75.8327 38.2071 75.1599L37.5594 71.3846C37.4439 70.7117 37.8323 70.0711 38.4265 69.9534V69.9538C39.0211 69.8365 39.5967 70.2864 39.7122 70.9594L40.3602 74.7349C40.4757 75.4078 40.0873 76.0484 39.4927 76.1657Z" fill="#FB9D75"/>
<path d="M41.4062 17.5655C41.4062 19.2153 42.6634 20.552 44.2139 20.552C45.7643 20.552 47.0215 19.2153 47.0215 17.5655C47.0215 15.9161 45.7643 14.579 44.2139 14.579C42.6634 14.579 41.4062 15.9161 41.4062 17.5655Z" stroke="#100F0D" stroke-width="1.64602" stroke-miterlimit="10"/>
<path d="M52.7163 29.559C52.7163 30.9433 50.9201 32.0654 48.7047 32.0654C46.4893 32.0654 44.6934 30.9433 44.6934 29.559C44.6934 28.1747 46.4893 27.0523 48.7047 27.0523C50.9201 27.0523 52.7163 28.1747 52.7163 29.559Z" fill="#FB9D75"/>
<path d="M52.7163 29.559C52.7163 30.9433 50.9201 32.0654 48.7047 32.0654C46.4893 32.0654 44.6934 30.9433 44.6934 29.559C44.6934 28.1747 46.4893 27.0523 48.7047 27.0523C50.9201 27.0523 52.7163 28.1747 52.7163 29.559Z" stroke="#201D1D" stroke-width="0.823009" stroke-miterlimit="10"/>
<path d="M53.6375 8.29851H50.1111C47.7667 8.29851 45.8485 10.6408 45.8485 13.5034V19.3663C45.8485 19.5316 45.8563 19.6946 45.8689 19.8559C45.8309 20.0287 45.8086 20.2081 45.8086 20.3929V23.9619V24.1609V27.7299C45.8086 29.0248 46.7966 30.0845 48.0044 30.0845H49.4031C50.6105 30.0845 51.5985 29.0248 51.5985 27.7299V24.5716H53.6375C55.9823 24.5716 57.9004 22.229 57.9004 19.3663V13.5034C57.9004 10.6408 55.9823 8.29851 53.6375 8.29851Z" fill="white"/>
<path d="M53.6375 8.29851H50.1111C47.7667 8.29851 45.8485 10.6408 45.8485 13.5034V19.3663C45.8485 19.5316 45.8563 19.6946 45.8689 19.8559C45.8309 20.0287 45.8086 20.2081 45.8086 20.3929V23.9619V24.1609V27.7299C45.8086 29.0248 46.7966 30.0845 48.0044 30.0845H49.4031C50.6105 30.0845 51.5985 29.0248 51.5985 27.7299V24.5716H53.6375C55.9823 24.5716 57.9004 22.229 57.9004 19.3663V13.5034C57.9004 10.6408 55.9823 8.29851 53.6375 8.29851V8.29851Z" stroke="#333333" stroke-width="0.823009" stroke-miterlimit="10"/>
<path d="M50.8428 15.4191C50.8428 15.8897 51.1986 16.2717 51.6378 16.2717C52.0766 16.2717 52.4328 15.8897 52.4328 15.4191C52.4328 14.9481 52.0766 14.5664 51.6378 14.5664C51.1986 14.5664 50.8428 14.9481 50.8428 15.4191Z" fill="#191716"/>
<path d="M56.0479 15.294C56.0479 15.696 56.3516 16.0217 56.7264 16.0217C57.1012 16.0217 57.4049 15.696 57.4049 15.294C57.4049 14.892 57.1012 14.5663 56.7264 14.5663C56.3516 14.5663 56.0479 14.892 56.0479 15.294Z" fill="#191716"/>
<path d="M55.2886 18.782C55.2886 18.782 54.8891 20.0309 54.0443 20.1162C53.1998 20.2019 52.5379 19.1985 52.4922 18.4152L55.2886 18.782Z" fill="#F9F9F9"/>
<path d="M55.105 18.7282C55.0948 18.7598 55.0833 18.7907 55.0718 18.8212C55.0887 18.7758 55.0488 18.876 55.0403 18.8949C55.0193 18.9439 54.9966 18.9919 54.9729 19.0398C54.8625 19.2631 54.7281 19.4738 54.5531 19.6448C54.3533 19.8394 54.0966 19.9517 53.8241 19.9117C53.5234 19.8678 53.2681 19.6611 53.0771 19.4178C52.8601 19.1418 52.7054 18.7773 52.6803 18.4152C52.617 18.4824 52.554 18.5503 52.491 18.6175C53.3074 18.725 54.1234 18.8321 54.9397 18.9392C55.0555 18.9545 55.1713 18.9697 55.2875 18.985C55.3894 18.9984 55.4754 18.8822 55.4764 18.782C55.4774 18.6614 55.3884 18.5928 55.2875 18.5797C54.4711 18.4722 53.6548 18.3651 52.8388 18.258C52.723 18.2427 52.6072 18.2275 52.491 18.2122C52.3945 18.1995 52.2953 18.3153 52.3021 18.4152C52.3563 19.1952 52.8472 20.021 53.5654 20.2625C54.2686 20.4989 54.869 20.0137 55.2191 19.3964C55.3186 19.2206 55.4066 19.0311 55.4696 18.8361C55.5492 18.5891 55.1842 18.4827 55.105 18.7282Z" fill="#191716"/>
<path opacity="0.1" d="M48.0801 18.5539C48.0801 19.7243 48.9645 20.6729 50.0561 20.6729C51.1474 20.6729 52.0318 19.7243 52.0318 18.5539C52.0318 17.3835 51.1474 16.4346 50.0561 16.4346C48.9645 16.4346 48.0801 17.3835 48.0801 18.5539Z" fill="#F2994A"/>
<path opacity="0.1" d="M54.3969 14.5664L54.2344 17.4697L55.5264 16.6251L54.3969 14.5664Z" fill="#F2994A"/>
<path d="M46.7731 17.4698L47.4239 12.8775C47.4239 12.8775 59.2702 14.4698 63.1106 8.29862C66.9509 2.12702 62.9152 -0.3162 60.9625 0.0324154C59.0099 0.381758 56.7267 3.38349 56.7267 3.38349C56.7267 3.38349 58.5443 0.730734 56.7267 0.311668C54.9092 -0.107033 52.9013 1.91749 51.8551 4.01173C51.8551 4.01173 44.0464 3.23097 41.4068 8.29862C38.7671 13.3659 40.9063 16.9614 45.7343 22.1968L46.057 19.2684L46.7731 17.4698Z" fill="#100F0D"/>
<path d="M41.4062 17.5655C41.4062 19.2153 42.6634 20.552 44.2139 20.552C45.7643 20.552 47.0215 19.2153 47.0215 17.5655C47.0215 15.9161 45.7643 14.579 44.2139 14.579C42.6634 14.579 41.4062 15.9161 41.4062 17.5655Z" fill="white"/>
<path d="M45.9645 17.9601C45.9794 17.7088 45.9411 17.4419 45.8775 17.2015C45.7498 16.7196 45.4641 16.2846 45.0314 16.0718C44.6809 15.8996 44.2932 15.8644 43.913 15.9069C43.7877 15.9207 43.6797 16.0119 43.6797 16.1568C43.6797 16.2813 43.7867 16.4208 43.913 16.4066C44.0802 16.3881 44.2492 16.3823 44.4168 16.4004C44.4341 16.4022 44.4513 16.4041 44.4686 16.4066C44.4127 16.3986 44.4788 16.4091 44.4866 16.4106C44.5187 16.4164 44.5502 16.4233 44.5817 16.4313C44.6467 16.4476 44.71 16.4694 44.773 16.4934C44.7838 16.4974 44.7943 16.5025 44.8052 16.5068C44.7479 16.4829 44.8011 16.5054 44.8113 16.5108C44.836 16.5243 44.8607 16.5366 44.8847 16.5508C44.9355 16.5805 44.9826 16.6154 45.03 16.651C44.9735 16.6089 45.0418 16.6619 45.0534 16.6724C45.072 16.6898 45.0903 16.7076 45.1075 16.7262C45.1455 16.7657 45.179 16.8086 45.2135 16.8518C45.1664 16.793 45.2169 16.8576 45.2271 16.8732C45.2403 16.8936 45.2531 16.9143 45.2653 16.935C45.2917 16.98 45.3158 17.0268 45.3378 17.0744C45.3483 17.0973 45.3564 17.1231 45.3686 17.1449C45.3845 17.1739 45.3466 17.0842 45.3628 17.1303C45.3666 17.1412 45.371 17.1518 45.3747 17.1623C45.392 17.2106 45.4075 17.2596 45.4214 17.3094C45.4441 17.3925 45.4624 17.4771 45.4763 17.5628C45.479 17.5814 45.4817 17.5999 45.4847 17.6188C45.4939 17.682 45.478 17.5541 45.4844 17.6159C45.4878 17.6514 45.4915 17.687 45.4939 17.7226C45.4996 17.8011 45.5034 17.8813 45.4986 17.9601C45.4905 18.0948 45.6114 18.21 45.7316 18.21C45.8643 18.21 45.9564 18.0952 45.9645 17.9601Z" fill="#131211"/>
<path d="M78.9247 50.8528H121.023L113.386 81.697H71.4736L78.9247 50.8528Z" fill="white"/>
<path d="M78.9247 50.8528H121.023L113.386 81.697H71.4736L78.9247 50.8528Z" stroke="#100F0D" stroke-width="0.823009" stroke-miterlimit="10"/>
<path d="M99.7989 66.2749C99.7989 68.3782 98.2092 70.0835 96.2481 70.0835C94.287 70.0835 92.6973 68.3782 92.6973 66.2749C92.6973 64.1715 94.287 62.4666 96.2481 62.4666C98.2092 62.4666 99.7989 64.1715 99.7989 66.2749Z" fill="#333333"/>
<path d="M99.7989 66.2749C99.7989 68.3782 98.2092 70.0835 96.2481 70.0835C94.287 70.0835 92.6973 68.3782 92.6973 66.2749C92.6973 64.1715 94.287 62.4666 96.2481 62.4666C98.2092 62.4666 99.7989 64.1715 99.7989 66.2749V66.2749Z" stroke="#100F0D" stroke-width="0.823009" stroke-miterlimit="10"/>
<path d="M93.0231 21.8644C92.7228 20.065 91.7761 18.8863 90.716 18.1444C88.9221 16.8883 86.5401 16.8883 84.7459 18.1444C83.6861 18.8863 82.7394 20.065 82.4391 21.8644C81.8851 25.1868 84.6132 26.9738 85.1245 27.6434C85.1245 27.6434 85.4701 27.9506 85.6354 28.3131C85.6767 28.4038 85.7211 28.6896 85.7725 29.0735H87.7313H89.6897C89.7412 28.6896 89.7852 28.4038 89.8265 28.3131C89.9921 27.9506 90.3378 27.6434 90.3378 27.6434C90.849 26.9738 93.5771 25.1868 93.0231 21.8644Z" fill="#F2C94C"/>
<path d="M93.0231 21.8644C92.7228 20.065 91.7761 18.8863 90.716 18.1444C88.9221 16.8883 86.5401 16.8883 84.7459 18.1444C83.6861 18.8863 82.7394 20.065 82.4391 21.8644C81.8851 25.1868 84.6132 26.9738 85.1245 27.6434C85.1245 27.6434 85.4701 27.9506 85.6354 28.3131C85.6767 28.4038 85.7211 28.6896 85.7725 29.0735H87.7313H89.6897C89.7412 28.6896 89.7852 28.4038 89.8265 28.3131C89.9921 27.9506 90.3378 27.6434 90.3378 27.6434C90.849 26.9738 93.5771 25.1868 93.0231 21.8644V21.8644Z" stroke="#100F0D" stroke-width="0.823009" stroke-miterlimit="10"/>
<path d="M86.9105 29.4294C86.9105 29.4294 86.9115 26.2792 86.6958 25.8292C86.4805 25.3797 85.4918 23.8054 85.3238 23.4739C85.1555 23.142 85.4999 22.7567 85.7633 23.2473C85.9888 23.6671 86.9504 25.1037 87.1651 25.6912C87.3794 26.2792 87.5633 29.5867 87.5633 29.5867L86.9105 29.4294Z" fill="white"/>
<path d="M88.5366 29.4294C88.5366 29.4294 88.5356 26.2792 88.7509 25.8292C88.9666 25.3797 89.9553 23.8054 90.1232 23.4739C90.2912 23.142 89.9472 22.7567 89.6834 23.2473C89.4579 23.6671 88.4966 25.1037 88.282 25.6912C88.0676 26.2792 87.8838 29.5867 87.8838 29.5867L88.5366 29.4294Z" fill="white"/>
<path d="M87.0104 22.9626C87.1032 22.9103 87.1757 22.8507 87.2177 22.7828C87.346 22.5777 87.2837 22.3423 87.1486 22.2334C87.0311 22.1383 86.897 22.1699 86.7799 22.3195C86.6634 22.4695 86.7934 22.7197 86.9397 22.8878C86.962 22.9132 86.9857 22.9386 87.0104 22.9626ZM88.1976 22.4793C88.164 22.5054 88.1312 22.5424 88.0997 22.5893C87.9907 22.7509 88.0299 22.8435 88.0757 22.9056C88.1305 22.9797 88.2209 23.0432 88.334 23.094C88.4633 22.9506 88.5236 22.7879 88.4972 22.6387C88.4786 22.5341 88.4163 22.4524 88.3425 22.4357C88.2961 22.4255 88.2463 22.4404 88.1976 22.4793ZM89.9599 23.3664C89.5624 23.5658 88.8852 23.5897 88.3851 23.4274C88.3807 23.4307 88.376 23.4347 88.3712 23.4383C87.9592 23.7662 87.3849 23.6409 86.9617 23.3094C86.4365 23.5298 85.7136 23.5567 85.6036 23.5596L85.6016 23.2586C85.9181 23.2509 86.3725 23.1968 86.7243 23.0828C86.4328 22.7436 86.3705 22.3768 86.5655 22.127C86.8107 21.8107 87.1212 21.8314 87.3172 21.9912C87.5542 22.1844 87.666 22.5929 87.4459 22.9455C87.3971 23.024 87.3284 23.0908 87.2481 23.1514C87.5126 23.3188 87.8244 23.3918 88.0763 23.2869C87.9893 23.232 87.9158 23.1678 87.8617 23.0948C87.7763 22.9797 87.6646 22.7378 87.881 22.4172C88.0262 22.2018 88.2169 22.1023 88.4034 22.1448C88.5825 22.1855 88.7237 22.3547 88.762 22.5748C88.7979 22.781 88.7423 22.9953 88.6106 23.1856C89.0176 23.2814 89.5384 23.2651 89.8611 23.1042L89.9599 23.3664Z" fill="white"/>
<path d="M87.7244 28.7354C86.6605 28.7354 85.7507 28.4369 85.5967 28.3447C85.6085 28.3675 85.6214 28.3897 85.6322 28.4126C85.7755 28.7267 85.9536 31.3395 86.3365 32.3483C86.4039 32.5262 86.478 32.6544 86.5593 32.7111C86.7787 32.864 87.2375 33.0263 87.7244 33.002C88.2113 33.0263 88.6697 32.864 88.8898 32.7111C88.9707 32.6544 89.0449 32.5262 89.1126 32.3483C89.4952 31.3395 89.6733 28.7267 89.8166 28.4126C89.8271 28.3897 89.8399 28.3675 89.8521 28.3447C89.6977 28.4369 88.7882 28.7354 87.7244 28.7354Z" fill="white"/>
<path d="M87.7244 28.7354C86.6605 28.7354 85.7507 28.4369 85.5967 28.3447C85.6085 28.3675 85.6214 28.3897 85.6322 28.4126C85.7755 28.7267 85.9536 31.3395 86.3365 32.3483C86.4039 32.5262 86.478 32.6544 86.5593 32.7111C86.7787 32.864 87.2375 33.0263 87.7244 33.002C88.2113 33.0263 88.6697 32.864 88.8898 32.7111C88.9707 32.6544 89.0449 32.5262 89.1126 32.3483C89.4952 31.3395 89.6733 28.7267 89.8166 28.4126C89.8271 28.3897 89.8399 28.3675 89.8521 28.3447C89.6977 28.4369 88.7882 28.7354 87.7244 28.7354Z" stroke="#100F0D" stroke-width="0.823009" stroke-miterlimit="10"/>
<path d="M87.7249 29.916C88.3404 29.9055 89.0112 29.826 89.6207 29.62C89.6606 29.3099 89.6972 29.0303 89.73 28.8168C88.44 29.3423 87.0101 29.3423 85.7197 28.8168C85.7526 29.0303 85.7891 29.3099 85.8291 29.62C86.4386 29.826 87.1093 29.9055 87.7249 29.916Z" fill="#100F0D"/>
<path d="M87.7244 31.2488C88.2739 31.2393 88.8672 31.1729 89.4224 31.0138C89.4654 30.7527 89.5044 30.4836 89.5406 30.2204C88.3633 30.6489 87.0855 30.6489 85.9082 30.2204C85.9444 30.4836 85.9834 30.7527 86.0264 31.0138C86.5813 31.1729 87.1745 31.2393 87.7244 31.2488Z" fill="#100F0D"/>
<path d="M87.8312 15.5239H87.8197C87.5078 15.5239 87.2549 15.253 87.2549 14.9182V12.0777C87.2549 11.7433 87.5078 11.472 87.8197 11.472H87.8312C88.143 11.472 88.3956 11.7433 88.3956 12.0777V14.9182C88.3956 15.253 88.143 15.5239 87.8312 15.5239Z" fill="white"/>
<path d="M87.8312 15.5239H87.8197C87.5078 15.5239 87.2549 15.253 87.2549 14.9182V12.0777C87.2549 11.7433 87.5078 11.472 87.8197 11.472H87.8312C88.143 11.472 88.3956 11.7433 88.3956 12.0777V14.9182C88.3956 15.253 88.143 15.5239 87.8312 15.5239V15.5239Z" stroke="#100F0D" stroke-width="0.823009" stroke-miterlimit="10"/>
<path d="M91.894 16.3094L91.8842 16.304C91.6089 16.146 91.5056 15.7785 91.6532 15.4836L92.9047 12.9805C93.0523 12.6856 93.3943 12.5749 93.6692 12.7328L93.6794 12.7386C93.9543 12.8966 94.0576 13.2637 93.9103 13.5586L92.6585 16.0617C92.5112 16.357 92.1689 16.4677 91.894 16.3094Z" fill="white"/>
<path d="M91.894 16.3094L91.8842 16.304C91.6089 16.146 91.5056 15.7785 91.6532 15.4836L92.9047 12.9805C93.0523 12.6856 93.3943 12.5749 93.6692 12.7328L93.6794 12.7386C93.9543 12.8966 94.0576 13.2637 93.9103 13.5586L92.6585 16.0617C92.5112 16.357 92.1689 16.4677 91.894 16.3094V16.3094Z" stroke="#100F0D" stroke-width="0.823009" stroke-miterlimit="10"/>
<path d="M83.7563 16.3094L83.7661 16.304C84.0407 16.146 84.1443 15.7785 83.997 15.4836L82.7452 12.9805C82.5979 12.6856 82.2556 12.5749 81.9807 12.7328L81.9705 12.7386C81.6959 12.8966 81.5927 13.2637 81.74 13.5586L82.9914 16.0617C83.1387 16.357 83.481 16.4677 83.7563 16.3094Z" fill="white"/>
<path d="M83.7563 16.3094L83.7661 16.304C84.0407 16.146 84.1443 15.7785 83.997 15.4836L82.7452 12.9805C82.5979 12.6856 82.2556 12.5749 81.9807 12.7328L81.9705 12.7386C81.6959 12.8966 81.5927 13.2637 81.74 13.5586L82.9914 16.0617C83.1387 16.357 83.481 16.4677 83.7563 16.3094V16.3094Z" stroke="#100F0D" stroke-width="0.823009" stroke-miterlimit="10"/>
<path d="M80.7481 19.6428L80.7457 19.6551C80.6814 19.9823 80.3821 20.1918 80.0766 20.1232L77.4851 19.5389C77.1796 19.4699 76.9843 19.1489 77.0483 18.8214L77.0506 18.8094C77.1146 18.4822 77.4143 18.2726 77.7197 18.3413L80.3113 18.9256C80.6167 18.9946 80.8121 19.3156 80.7481 19.6428Z" fill="white"/>
<path d="M80.7481 19.6428L80.7457 19.6551C80.6814 19.9823 80.3821 20.1918 80.0766 20.1232L77.4851 19.5389C77.1796 19.4699 76.9843 19.1489 77.0483 18.8214L77.0506 18.8094C77.1146 18.4822 77.4143 18.2726 77.7197 18.3413L80.3113 18.9256C80.6167 18.9946 80.8121 19.3156 80.7481 19.6428Z" stroke="#100F0D" stroke-width="0.823009" stroke-miterlimit="10"/>
<path d="M80.6051 24.1835L80.6017 24.1719C80.514 23.8508 80.2005 23.6667 79.9012 23.7608L77.3593 24.5593C77.06 24.6534 76.8883 24.99 76.976 25.311L76.9794 25.3226C77.0671 25.6437 77.3807 25.8278 77.68 25.7337L80.2218 24.9352C80.5211 24.8411 80.6928 24.5045 80.6051 24.1835Z" fill="white"/>
<path d="M80.6051 24.1835L80.6017 24.1719C80.514 23.8508 80.2005 23.6667 79.9012 23.7608L77.3593 24.5593C77.06 24.6534 76.8883 24.99 76.976 25.311L76.9794 25.3226C77.0671 25.6437 77.3807 25.8278 77.68 25.7337L80.2218 24.9352C80.5211 24.8411 80.6928 24.5045 80.6051 24.1835Z" stroke="#100F0D" stroke-width="0.823009" stroke-miterlimit="10"/>
<path d="M94.9029 19.6428L94.9049 19.6551C94.9692 19.9823 95.2689 20.1918 95.574 20.1232L98.1656 19.5389C98.4713 19.4699 98.6667 19.1489 98.6023 18.8214L98.6003 18.8094C98.536 18.4822 98.2363 18.2726 97.9312 18.3413L95.3393 18.9256C95.0339 18.9946 94.8385 19.3156 94.9029 19.6428Z" fill="white"/>
<path d="M94.9029 19.6428L94.9049 19.6551C94.9692 19.9823 95.2689 20.1918 95.574 20.1232L98.1656 19.5389C98.4713 19.4699 98.6667 19.1489 98.6023 18.8214L98.6003 18.8094C98.536 18.4822 98.2363 18.2726 97.9312 18.3413L95.3393 18.9256C95.0339 18.9946 94.8385 19.3156 94.9029 19.6428V19.6428Z" stroke="#100F0D" stroke-width="0.823009" stroke-miterlimit="10"/>
<path d="M95.0434 24.1835L95.0465 24.1719C95.1342 23.8508 95.448 23.6667 95.7474 23.7608L98.2892 24.5593C98.5882 24.6534 98.7598 24.99 98.6721 25.311L98.6691 25.3226C98.5814 25.6437 98.2675 25.8278 97.9679 25.7337L95.4264 24.9352C95.1274 24.8411 94.9557 24.5045 95.0434 24.1835Z" fill="white"/>
<path d="M95.0434 24.1835L95.0465 24.1719C95.1342 23.8508 95.448 23.6667 95.7474 23.7608L98.2892 24.5593C98.5882 24.6534 98.7598 24.99 98.6721 25.311L98.6691 25.3226C98.5814 25.6437 98.2675 25.8278 97.9679 25.7337L95.4264 24.9352C95.1274 24.8411 94.9557 24.5045 95.0434 24.1835V24.1835Z" stroke="#100F0D" stroke-width="0.823009" stroke-miterlimit="10"/>
</svg>
