<svg width="156" height="106" viewBox="0 0 156 106" fill="none" xmlns="http://www.w3.org/2000/svg">
<path d="M35.5078 96.4158L35.6064 95.6879" stroke="#19191A" stroke-width="0.685051" stroke-miterlimit="10" stroke-linecap="round" stroke-linejoin="round"/>
<path d="M121.071 100.188H35.0439V47.8567C35.0439 46.8019 35.8515 45.9468 36.8476 45.9468H119.268C120.264 45.9468 121.071 46.8019 121.071 47.8567V100.188Z" fill="#263238"/>
<path d="M118.19 97.5923H37.9258V48.5421H118.19V97.5923Z" fill="#EEEEEE"/>
<path d="M121.127 105.119H34.0071C32.7248 105.119 31.5883 104.245 31.1909 102.955L30.6003 101.037C30.3135 100.106 30.9688 99.1499 31.8937 99.1499H123.24C124.165 99.1499 124.82 100.106 124.534 101.037L123.943 102.955C123.546 104.245 122.409 105.119 121.127 105.119Z" fill="#5ADEC8"/>
<path d="M64.146 94.5774H39.9932V66.3357H64.146V94.5774Z" stroke="white" stroke-width="2" stroke-miterlimit="10"/>
<path d="M90.0565 94.5774H65.9033V66.3357H90.0565V94.5774Z" stroke="white" stroke-width="2" stroke-miterlimit="10"/>
<path d="M115.964 94.5774H91.8115V81.9543H115.964V94.5774Z" stroke="white" stroke-width="2" stroke-miterlimit="10"/>
<path d="M115.964 79.1729H91.8115V66.3358H115.964V79.1729Z" stroke="white" stroke-width="2" stroke-miterlimit="10"/>
<g filter="url(#filter0_d_402_558)">
<path d="M131.628 15.9999H23.8852C21.5334 15.9999 19.627 18.019 19.627 20.5093V61.9669C19.627 64.4572 21.5334 66.4759 23.8852 66.4759H68.5159L77.757 81.6519L86.9973 66.4759H131.628C133.98 66.4759 135.887 64.4572 135.887 61.9669V20.5093C135.887 18.019 133.98 15.9999 131.628 15.9999Z" fill="#E1E1E1"/>
<path d="M131.628 15.9999H23.8852C21.5334 15.9999 19.627 18.019 19.627 20.5093V61.9669C19.627 64.4572 21.5334 66.4759 23.8852 66.4759H68.5159L77.757 81.6519L86.9973 66.4759H131.628C133.98 66.4759 135.887 64.4572 135.887 61.9669V20.5093C135.887 18.019 133.98 15.9999 131.628 15.9999Z" stroke="#C9C9C9" stroke-miterlimit="10"/>
</g>
<path d="M54.7646 33.7607H41.3649C40.698 33.7607 40.1572 33.1884 40.1572 32.482V22.7258C40.1572 22.0197 40.698 21.4474 41.3649 21.4474H54.7646C55.4315 21.4474 55.9723 22.0197 55.9723 22.7258V32.482C55.9723 33.1884 55.4315 33.7607 54.7646 33.7607Z" fill="white"/>
<path d="M52.611 25.0093L49.3384 29.1051C48.9902 29.5408 48.3842 29.6202 47.9463 29.287L46.1927 27.9541C45.7706 27.6333 45.1893 27.694 44.8346 28.0959L40.2637 33.2769C40.4098 33.5637 40.6925 33.7607 41.0217 33.7607H55.1075C55.585 33.7607 55.9721 33.3508 55.9721 32.8452V26.8489L54.1231 24.9339C53.694 24.4893 52.999 24.524 52.611 25.0093Z" fill="#6FE5AC"/>
<path d="M45.7102 24.4585C45.912 25.5863 44.9957 26.5565 43.9306 26.3428C43.3357 26.2234 42.8558 25.7152 42.743 25.0852C42.5409 23.9571 43.4575 22.9869 44.5225 23.2006C45.1177 23.32 45.5974 23.8282 45.7102 24.4585Z" fill="#2F80ED"/>
<path d="M75.3108 41.4915H58.874C58.0559 41.4915 57.3926 40.7894 57.3926 39.9228V27.9555C57.3926 27.0893 58.0559 26.3872 58.874 26.3872H75.3108C76.1288 26.3872 76.7921 27.0893 76.7921 27.9555V39.9228C76.7921 40.7894 76.1288 41.4915 75.3108 41.4915Z" fill="white"/>
<path d="M58.6436 35.2511V33.8806L64.0544 31.7716V33.1599L60.3366 34.5658L64.0544 35.9718V37.3601L58.6436 35.2511Z" fill="#4F4F4F"/>
<path d="M68.3266 29.7241H69.5677L65.9621 39.4077H64.7207L68.3266 29.7241Z" fill="#4F4F4F"/>
<path d="M70.2324 37.3601V35.9718L73.9501 34.5658L70.2324 33.1599V31.7716L75.6429 33.8806V35.2511L70.2324 37.3601Z" fill="#4F4F4F"/>
<path d="M75.6702 26.3871H58.5146C57.895 26.3871 57.3926 26.9188 57.3926 27.5749V28.1487H76.7921V27.5749C76.7921 26.9188 76.2901 26.3871 75.6702 26.3871Z" fill="#296ACC"/>
<path d="M74.9831 27.2227C74.9831 26.9602 74.7818 26.7473 74.5337 26.7473C74.2853 26.7473 74.084 26.9602 74.084 27.2227C74.084 27.4855 74.2853 27.6985 74.5337 27.6985C74.7818 27.6985 74.9831 27.4855 74.9831 27.2227Z" fill="white"/>
<path d="M73.5599 27.2227C73.5599 26.9602 73.359 26.7473 73.1109 26.7473C72.8624 26.7473 72.6611 26.9602 72.6611 27.2227C72.6611 27.4855 72.8624 27.6985 73.1109 27.6985C73.359 27.6985 73.5599 27.4855 73.5599 27.2227Z" fill="white"/>
<path d="M96.7607 33.7607H83.3607C82.6941 33.7607 82.1533 33.1884 82.1533 32.482V22.7258C82.1533 22.0197 82.6941 21.4474 83.3607 21.4474H96.7607C97.4276 21.4474 97.9684 22.0197 97.9684 22.7258V32.482C97.9684 33.1884 97.4276 33.7607 96.7607 33.7607Z" fill="white"/>
<path d="M95.8282 24.991H88.9277V24.4278H95.8282V24.991Z" fill="#4F4F4F"/>
<path d="M95.8282 26.7461H88.9277V26.1829H95.8282V26.7461Z" fill="#4F4F4F"/>
<path d="M95.8282 28.5012H84.2275V27.938H95.8282V28.5012Z" fill="#4F4F4F"/>
<path d="M95.8282 30.2561H84.2275V29.6926H95.8282V30.2561Z" fill="#4F4F4F"/>
<path d="M95.8282 32.011H84.2275V31.4475H95.8282V32.011Z" fill="#4F4F4F"/>
<path d="M86.0005 24.9439L85.7827 27.0967H84.9594L84.5342 23.0564H85.1177L85.4391 26.2424L85.7278 23.0564H86.3056L86.6056 26.2657L86.9162 23.0564H87.4397L87.0144 27.0967H86.2185L86.0005 24.9439Z" fill="#2F80ED"/>
<path d="M117.759 33.7607H104.359C103.692 33.7607 103.151 33.1884 103.151 32.482V22.7258C103.151 22.0197 103.692 21.4474 104.359 21.4474H117.759C118.426 21.4474 118.966 22.0197 118.966 22.7258V32.482C118.966 33.1884 118.426 33.7607 117.759 33.7607Z" fill="white"/>
<path d="M116.654 25.7932H105.598V23.2975H116.654V25.7932Z" fill="#4F4F4F"/>
<path d="M116.654 28.8562H105.598V26.3605H116.654V28.8562Z" fill="#4F4F4F"/>
<path d="M116.654 31.9187H105.598V29.4233H116.654V31.9187Z" fill="#4F4F4F"/>
<path d="M108.01 25.7932H105.598V23.2975H108.01V25.7932Z" fill="#2F80ED"/>
<path d="M108.01 28.8562H105.598V26.3605H108.01V28.8562Z" fill="#2F80ED"/>
<path d="M108.01 31.9187H105.598V29.4233H108.01V31.9187Z" fill="#2F80ED"/>
<path d="M107.407 24.5456C107.407 24.8982 107.137 25.1841 106.804 25.1841C106.471 25.1841 106.201 24.8982 106.201 24.5456C106.201 24.1929 106.471 23.907 106.804 23.907C107.137 23.907 107.407 24.1929 107.407 24.5456Z" fill="white"/>
<path d="M107.407 27.6083C107.407 27.9609 107.137 28.2468 106.804 28.2468C106.471 28.2468 106.201 27.9609 106.201 27.6083C106.201 27.2554 106.471 26.9695 106.804 26.9695C107.137 26.9695 107.407 27.2554 107.407 27.6083Z" fill="white"/>
<path d="M107.407 30.671C107.407 31.0236 107.137 31.3098 106.804 31.3098C106.471 31.3098 106.201 31.0236 106.201 30.671C106.201 30.3184 106.471 30.0325 106.804 30.0325C107.137 30.0325 107.407 30.3184 107.407 30.671Z" fill="white"/>
<path d="M65.4248 53.0605H52.0248C51.3579 53.0605 50.8174 52.4882 50.8174 51.7818V42.0257C50.8174 41.3195 51.3579 40.7472 52.0248 40.7472H65.4248C66.0916 40.7472 66.6322 41.3195 66.6322 42.0257V51.7818C66.6322 52.4882 66.0916 53.0605 65.4248 53.0605Z" fill="white"/>
<path d="M54.1644 45.3497C54.1644 44.8441 54.5513 44.4342 55.0288 44.4342C55.5063 44.4342 55.8934 44.8441 55.8934 45.3497C55.8934 45.8551 55.5063 46.2653 55.0288 46.2653C54.5513 46.2653 54.1644 45.8551 54.1644 45.3497ZM56.5416 46.3962L57.7063 46.5658L57.9092 45.6242L56.8322 45.2561C56.824 45.079 56.794 44.9083 56.7437 44.747L57.5721 43.9117L57.0037 43.1566L56.0869 43.8C55.947 43.6928 55.7925 43.6066 55.6269 43.545L55.5287 42.3679H54.6168L54.5218 43.5135C54.3498 43.5665 54.1883 43.6458 54.0416 43.7473L53.1153 43.0967L52.5464 43.8521L53.345 44.6573C53.2847 44.8218 53.2444 44.9971 53.2292 45.1801L52.1484 45.5497L52.3513 46.4913L53.477 46.3274C53.5582 46.4721 53.6564 46.6047 53.7697 46.7213L53.3566 47.8792L54.1785 48.2983L54.7718 47.2421C54.8559 47.255 54.9414 47.2636 55.0288 47.2636C55.0948 47.2636 55.1597 47.2596 55.2241 47.2521L55.8304 48.3315L56.652 47.9124L56.2427 46.7649C56.3563 46.6557 56.4572 46.5326 56.5416 46.3962Z" fill="#4F4F4F"/>
<path d="M60.0526 47.1335C60.0526 46.377 60.6318 45.7639 61.3465 45.7639C62.0607 45.7639 62.6399 46.377 62.6399 47.1335C62.6399 47.8901 62.0607 48.5034 61.3465 48.5034C60.6318 48.5034 60.0526 47.8901 60.0526 47.1335ZM63.7256 48.4956L65.0985 48.6956L65.3233 47.6517L64.047 47.2154C64.0478 47.1879 64.051 47.161 64.051 47.1335C64.051 46.7284 63.9704 46.3434 63.827 45.9939L64.7758 45.0374L64.1454 44.2004L63.0871 44.9432C62.7728 44.6627 62.3967 44.4588 61.9842 44.3531L61.8738 43.0236H60.8625L60.7532 44.3408C60.3369 44.4396 59.9565 44.6384 59.637 44.9146L58.5773 44.1706L57.947 45.0077L58.8841 45.9527C58.7299 46.3131 58.6415 46.7121 58.6415 47.1335C58.6415 47.149 58.6434 47.1639 58.6436 47.179L57.3691 47.6148L57.594 48.6586L58.9509 48.461C59.1252 48.8128 59.3657 49.121 59.656 49.3674L59.1587 50.7624L60.0696 51.2268L60.7941 49.9374C60.9724 49.9767 61.1569 49.9976 61.3465 49.9976C61.5251 49.9976 61.699 49.9781 61.8681 49.9429L62.5985 51.2434L63.5097 50.7788L63.013 49.386C63.3041 49.1442 63.5484 48.8425 63.7256 48.4956Z" fill="#2F80ED"/>
<path d="M86.4961 53.0605H73.0961C72.4292 53.0605 71.8887 52.4882 71.8887 51.7818V42.0257C71.8887 41.3195 72.4292 40.7472 73.0961 40.7472H86.4961C87.1629 40.7472 87.7035 41.3195 87.7035 42.0257V51.7818C87.7035 52.4882 87.1629 53.0605 86.4961 53.0605Z" fill="white"/>
<path d="M83.6077 46.9213C83.6077 44.5359 81.7816 42.6026 79.5294 42.6026C77.277 42.6026 75.4512 44.5359 75.4512 46.9213C75.4512 49.3061 77.277 51.2397 79.5294 51.2397C81.7816 51.2397 83.6077 49.3061 83.6077 46.9213Z" fill="#4F4F4F"/>
<path d="M82.2895 46.9428L77.6475 44.105V49.7808L82.2895 46.9428Z" fill="#F2F2F2"/>
<path d="M107.567 53.0605H94.1673C93.5005 53.0605 92.96 52.4882 92.96 51.7818V42.0257C92.96 41.3195 93.5005 40.7472 94.1673 40.7472H107.567C108.234 40.7472 108.775 41.3195 108.775 42.0257V51.7818C108.775 52.4882 108.234 53.0605 107.567 53.0605Z" fill="white"/>
<path d="M106.824 50.7222C107.06 50.3289 107.198 49.8642 107.198 49.3643C107.198 47.9581 106.121 46.8179 104.793 46.8179C104.676 46.8179 104.561 46.8297 104.449 46.8469C104.463 46.726 104.472 46.6034 104.472 46.4785C104.472 44.8221 103.204 43.4795 101.64 43.4795C100.258 43.4795 99.1083 44.5285 98.8592 45.9153C98.8421 45.915 98.8254 45.9127 98.8078 45.9127C97.2436 45.9127 95.9756 47.2554 95.9756 48.9114C95.9756 49.5926 96.1925 50.2188 96.554 50.7222H106.824Z" fill="#4F4F4F"/>
<path d="M107.091 45.1939V43.2162H105.381V45.1939H104.556L106.236 48.2751L107.916 45.1939H107.091Z" fill="#2F80ED"/>
<path d="M94.7467 48.7444V50.7222H96.4568V48.7444H97.2816L95.6016 45.6632L93.9219 48.7444H94.7467Z" fill="#2F80ED"/>
<defs>
<filter id="filter0_d_402_558" x="0.126953" y="0.5" width="155.26" height="105.113" filterUnits="userSpaceOnUse" color-interpolation-filters="sRGB">
<feFlood flood-opacity="0" result="BackgroundImageFix"/>
<feColorMatrix in="SourceAlpha" type="matrix" values="0 0 0 0 0 0 0 0 0 0 0 0 0 0 0 0 0 0 127 0" result="hardAlpha"/>
<feOffset dy="4"/>
<feGaussianBlur stdDeviation="9.5"/>
<feColorMatrix type="matrix" values="0 0 0 0 0 0 0 0 0 0 0 0 0 0 0 0 0 0 0.25 0"/>
<feBlend mode="normal" in2="BackgroundImageFix" result="effect1_dropShadow_402_558"/>
<feBlend mode="normal" in="SourceGraphic" in2="effect1_dropShadow_402_558" result="shape"/>
</filter>
</defs>
</svg>
