<svg width="116" height="84" viewBox="0 0 116 84" fill="none" xmlns="http://www.w3.org/2000/svg">
<path d="M34.8076 74.4824H72.7022V74.3983H34.8076V74.4824Z" fill="#E7E8E5"/>
<path d="M36.3095 51.6703H30.0215V72.1074H36.3095V51.6703Z" fill="#F3F2F1"/>
<path d="M2.57619 37.0837H40.5182V33.9259H2.57619C1.52765 33.9259 0.677734 34.6331 0.677734 35.5048C0.677734 36.3769 1.52765 37.0837 2.57619 37.0837Z" fill="#17282F"/>
<path d="M17.2363 83.0439H19.6554V37.0838H17.2363V83.0439Z" fill="#0886AF"/>
<path d="M17.2363 83.0439H19.6554V37.0838H17.2363V83.0439Z" fill="#B8D2EF"/>
<path d="M5.23047 83.0439H7.64958V37.0838H5.23047V83.0439Z" fill="#0886AF"/>
<path d="M7.64955 83.0439H5.23047V37.0838H7.64955V57.0189V57.103V72.1076V72.1917V76.4501V76.5342V83.0439Z" fill="#B8D2EF"/>
<path d="M1.34473 35.5047C1.34473 36.0709 1.8965 36.5298 2.57733 36.5298C3.25815 36.5298 3.80993 36.0709 3.80993 35.5047C3.80993 34.9384 3.25815 34.4792 2.57733 34.4792C1.8965 34.4792 1.34473 34.9384 1.34473 35.5047Z" fill="#FB9D75"/>
<path d="M6.76367 35.5047C6.76367 36.0709 7.31586 36.5298 7.99668 36.5298C8.6775 36.5298 9.22928 36.0709 9.22928 35.5047C9.22928 34.9384 8.6775 34.4792 7.99668 34.4792C7.31586 34.4792 6.76367 34.9384 6.76367 35.5047Z" fill="#FB9D75"/>
<path d="M12.1846 35.5047C12.1846 36.0709 12.7364 36.5298 13.4172 36.5298C14.098 36.5298 14.6498 36.0709 14.6498 35.5047C14.6498 34.9384 14.098 34.4792 13.4172 34.4792C12.7364 34.4792 12.1846 34.9384 12.1846 35.5047Z" fill="#FB9D75"/>
<path d="M17.6045 35.5047C17.6045 36.0709 18.1563 36.5298 18.8371 36.5298C19.5179 36.5298 20.0697 36.0709 20.0697 35.5047C20.0697 34.9384 19.5179 34.4792 18.8371 34.4792C18.1563 34.4792 17.6045 34.9384 17.6045 35.5047Z" fill="#FB9D75"/>
<path d="M23.0244 35.5047C23.0244 36.0709 23.5766 36.5298 24.2574 36.5298C24.9382 36.5298 25.49 36.0709 25.49 35.5047C25.49 34.9384 24.9382 34.4792 24.2574 34.4792C23.5766 34.4792 23.0244 34.9384 23.0244 35.5047Z" fill="#FB9D75"/>
<path d="M28.4443 35.5047C28.4443 36.0709 28.9965 36.5298 29.6773 36.5298C30.3582 36.5298 30.9099 36.0709 30.9099 35.5047C30.9099 34.9384 30.3582 34.4792 29.6773 34.4792C28.9965 34.4792 28.4443 34.9384 28.4443 35.5047Z" fill="#0886AF"/>
<path d="M33.8652 35.5047C33.8652 36.0709 34.4174 36.5298 35.0982 36.5298C35.7791 36.5298 36.3308 36.0709 36.3308 35.5047C36.3308 34.9384 35.7791 34.4792 35.0982 34.4792C34.4174 34.4792 33.8652 34.9384 33.8652 35.5047Z" fill="#0886AF"/>
<path d="M40.5182 34.4792V36.5298C39.8373 36.5298 39.2852 36.0709 39.2852 35.5047C39.2852 34.9384 39.8373 34.4792 40.5182 34.4792Z" fill="#0886AF"/>
<path d="M30.6339 0.00025177H69.5544C71.3881 0.00025177 72.8748 1.23667 72.8748 2.76176V83.0439H27.3135V2.76176C27.3135 1.23667 28.8001 0.00025177 30.6339 0.00025177Z" fill="#FB9D75"/>
<path d="M31.141 24.3662H27.3125L27.3129 24.0547H31.141V24.3662ZM39.9201 8.29175H39.5459V0.000154495H39.9201V8.29175Z" fill="#5D87CD"/>
<path d="M72.8736 83.0439H59.1221V2.76176C59.1221 1.23667 60.6087 0.00025177 62.4429 0.00025177H69.5532C71.387 0.00025177 72.8736 1.23667 72.8736 2.76176V5.36783V5.68578V7.20177V21.5042V26.2393V31.339V33.9259H61.889V37.0838H72.8736V57.0189V57.103V65.8369V72.1917V83.0439Z" fill="#013F57"/>
<path d="M63.5003 13.7778H68.495C69.385 13.7778 70.1063 14.378 70.1063 15.1185V40.4058H61.8887V15.1185C61.8887 14.378 62.6104 13.7778 63.5003 13.7778Z" fill="#0886AF"/>
<path d="M74.9375 83.0439H77.3569V35.6216H74.9375V83.0439Z" fill="#FB9D75"/>
<path d="M85.7441 83.0439H88.1636V35.6216H85.7441V83.0439Z" fill="#FB9D75"/>
<path d="M96.5508 83.0439H98.9702V35.6216H96.5508V83.0439Z" fill="#FB9D75"/>
<path d="M107.357 83.0439H109.777V35.6216H107.357V83.0439Z" fill="#FB9D75"/>
<path d="M63.5003 13.7778H67.8292C68.7191 13.7778 69.4408 14.378 69.4408 15.1185V40.4058H61.8887V15.1185C61.8887 14.378 62.6104 13.7778 63.5003 13.7778Z" fill="#040606"/>
<path d="M59.123 78.5186H45.0195V45.7203H45.3941V78.2069H59.123V78.5186ZM59.123 40.9075H55.295V40.596H59.123V40.9075Z" fill="#5D87CD"/>
<path d="M39.6204 78.5186C38.319 78.5186 37.2607 77.6382 37.2607 76.5558C37.2607 75.4734 38.319 74.5932 39.6204 74.5932C40.9217 74.5932 41.9804 75.4734 41.9804 76.5558C41.9804 77.6382 40.9217 78.5186 39.6204 78.5186ZM39.6204 74.9048C38.5257 74.9048 37.6353 75.6454 37.6353 76.5558C37.6353 77.4661 38.5257 78.2069 39.6204 78.2069C40.715 78.2069 41.6058 77.4661 41.6058 76.5558C41.6058 75.6454 40.715 74.9048 39.6204 74.9048Z" fill="#5D87CD"/>
<path d="M33.3132 78.5186C32.0122 78.5186 30.9531 77.6382 30.9531 76.5558C30.9531 75.4734 32.0122 74.5932 33.3132 74.5932C34.6145 74.5932 35.6728 75.4734 35.6728 76.5558C35.6728 77.6382 34.6145 78.5186 33.3132 78.5186ZM33.3132 74.9048C32.2185 74.9048 31.3277 75.6454 31.3277 76.5558C31.3277 77.4661 32.2185 78.2069 33.3132 78.2069C34.4078 78.2069 35.2986 77.4661 35.2986 76.5558C35.2986 75.6454 34.4078 74.9048 33.3132 74.9048Z" fill="#5D87CD"/>
<path d="M112.909 37.0837H61.8887V33.9259H112.909C114.42 33.9259 115.12 34.6018 115.12 35.4736C115.12 36.3456 114.42 37.0837 112.909 37.0837Z" fill="#0886AF"/>
<path d="M111.488 37.0837H61.8887V33.9259H111.488C112.535 33.9259 113.384 34.6331 113.384 35.5048C113.384 36.3769 112.535 37.0837 111.488 37.0837Z" fill="#17282F"/>
<path d="M65.9414 35.5205C65.9414 36.0867 66.4936 36.5457 67.1744 36.5457C67.8552 36.5457 68.407 36.0867 68.407 35.5205C68.407 34.9543 67.8552 34.495 67.1744 34.495C66.4936 34.495 65.9414 34.9543 65.9414 35.5205Z" fill="#FB9D75"/>
<path d="M88.2041 35.5205C88.2041 36.0867 88.7563 36.5457 89.4371 36.5457C90.1179 36.5457 90.6697 36.0867 90.6697 35.5205C90.6697 34.9543 90.1179 34.495 89.4371 34.495C88.7563 34.495 88.2041 34.9543 88.2041 35.5205Z" fill="#FB9D75"/>
<path d="M71.3633 35.5205C71.3633 36.0867 71.9151 36.5457 72.5959 36.5457C73.2767 36.5457 73.8285 36.0867 73.8285 35.5205C73.8285 34.9543 73.2767 34.495 72.5959 34.495C71.9151 34.495 71.3633 34.9543 71.3633 35.5205Z" fill="#FB9D75"/>
<path d="M93.624 35.5205C93.624 36.0867 94.1758 36.5457 94.8566 36.5457C95.5374 36.5457 96.0892 36.0867 96.0892 35.5205C96.0892 34.9543 95.5374 34.495 94.8566 34.495C94.1758 34.495 93.624 34.9543 93.624 35.5205Z" fill="#FB9D75"/>
<path d="M76.7822 35.5205C76.7822 36.0867 77.334 36.5457 78.0148 36.5457C78.6957 36.5457 79.2474 36.0867 79.2474 35.5205C79.2474 34.9543 78.6957 34.495 78.0148 34.495C77.334 34.495 76.7822 34.9543 76.7822 35.5205Z" fill="#FB9D75"/>
<path d="M99.0449 35.5205C99.0449 36.0867 99.5967 36.5457 100.278 36.5457C100.958 36.5457 101.51 36.0867 101.51 35.5205C101.51 34.9543 100.958 34.495 100.278 34.495C99.5967 34.495 99.0449 34.9543 99.0449 35.5205Z" fill="#FB9D75"/>
<path d="M82.2031 35.5205C82.2031 36.0867 82.7553 36.5457 83.4361 36.5457C84.117 36.5457 84.6687 36.0867 84.6687 35.5205C84.6687 34.9543 84.117 34.495 83.4361 34.495C82.7553 34.495 82.2031 34.9543 82.2031 35.5205Z" fill="#FB9D75"/>
<path d="M104.465 35.5205C104.465 36.0867 105.017 36.5457 105.698 36.5457C106.379 36.5457 106.93 36.0867 106.93 35.5205C106.93 34.9543 106.379 34.495 105.698 34.495C105.017 34.495 104.465 34.9543 104.465 35.5205Z" fill="#FB9D75"/>
<path d="M109.4 35.5205C109.4 36.0867 109.953 36.5457 110.633 36.5457C111.314 36.5457 111.866 36.0867 111.866 35.5205C111.866 34.9543 111.314 34.495 110.633 34.495C109.953 34.495 109.4 34.9543 109.4 35.5205Z" fill="#FB9D75"/>
<path d="M61.8887 34.4792V36.5298C62.5695 36.5298 63.1217 36.0709 63.1217 35.5047C63.1217 34.9384 62.5695 34.4792 61.8887 34.4792Z" fill="#FB9D75"/>
<path d="M53.8796 45.7205H32.5553C31.7737 45.7205 31.1406 45.1936 31.1406 44.5436V9.46862C31.1406 8.81862 31.7737 8.29176 32.5553 8.29176H53.8796C54.6607 8.29176 55.2942 8.81862 55.2942 9.46862V44.5436C55.2942 45.1936 54.6607 45.7205 53.8796 45.7205Z" fill="white"/>
<path d="M51.2069 23.449H35.2284C34.3959 23.449 33.7207 22.8875 33.7207 22.1951V13.5435C33.7207 12.8508 34.3959 12.2892 35.2284 12.2892H51.2069C52.0398 12.2892 52.715 12.8508 52.715 13.5435V22.1951C52.715 22.8875 52.0398 23.449 51.2069 23.449Z" fill="#B8D2EF"/>
<path d="M51.2841 32.7341H35.1515C34.3611 32.7341 33.7207 32.2012 33.7207 31.5438V26.2385C33.7207 25.5811 34.3611 25.0481 35.1515 25.0481H51.2841C52.0742 25.0481 52.715 25.5811 52.715 26.2385V31.5438C52.715 32.2012 52.0742 32.7341 51.2841 32.7341Z" fill="#B8D2EF"/>
<path d="M39.4471 28.8938L36.2764 27.9336C36.7602 26.8277 38.032 26.0872 39.4471 26.0872C41.0781 26.0872 42.4871 27.0706 42.7703 28.4063L39.4471 28.8938Z" fill="#FB9D75"/>
<path d="M39.4464 28.8938L42.7697 28.4063C42.8036 28.5672 42.821 28.7303 42.821 28.8938C42.821 30.4334 41.2976 31.7004 39.4464 31.7004C37.5953 31.7004 36.0723 30.4334 36.0723 28.8938C36.0723 28.5662 36.141 28.2412 36.2757 27.9336L39.4464 28.8938Z" fill="white"/>
<path d="M48.66 28.5254H47.3809V31.6934H48.66V28.5254Z" fill="white"/>
<path d="M46.4852 30.2103H45.2061V31.6934H46.4852V30.2103Z" fill="white"/>
<path d="M46.4852 30.2104H45.2061V29.3058H46.4852V30.2104Z" fill="#FB9D75"/>
<path d="M48.66 28.5256H47.3809V26.5938H48.66V28.5256Z" fill="#FB9D75"/>
<path d="M50.8338 29.1021H49.5547V31.6934H50.8338V29.1021Z" fill="white"/>
<path d="M50.8338 29.1021H49.5547V27.9144H50.8338V29.1021Z" fill="#FB9D75"/>
<path d="M36.4863 20.2788H49.9062C50.3046 20.2788 50.57 19.9353 50.3981 19.6362C50.0526 19.0363 49.6052 18.025 49.4584 16.6402C49.2084 14.2774 47.2885 13.7128 46.4713 16.6402C45.6542 19.5679 42.392 18.0576 41.0599 16.6661C39.8221 15.3728 37.7982 16.8044 36.0049 19.6157C35.8136 19.9155 36.0777 20.2788 36.4863 20.2788Z" fill="#FB9D75"/>
<path d="M35.9675 35.0245C34.7264 35.0245 33.7207 35.8613 33.7207 36.8931C33.7207 37.9253 34.7264 38.7617 35.9675 38.7617C37.2081 38.7617 38.2142 37.9253 38.2142 36.8931C38.2142 35.8613 37.2081 35.0245 35.9675 35.0245ZM35.9675 35.3357C36.9998 35.3357 37.8396 36.0345 37.8396 36.8931C37.8396 37.7517 36.9998 38.4502 35.9675 38.4502C34.9351 38.4502 34.0949 37.7517 34.0949 36.8931C34.0949 36.0345 34.9351 35.3357 35.9675 35.3357Z" fill="#17282F"/>
<path d="M42.071 35.0245C40.8303 35.0245 39.8242 35.8613 39.8242 36.8931C39.8242 37.9253 40.8303 38.7617 42.071 38.7617C43.3121 38.7617 44.3181 37.9253 44.3181 36.8931C44.3181 35.8613 43.3121 35.0245 42.071 35.0245ZM42.071 35.3357C43.1033 35.3357 43.9435 36.0345 43.9435 36.8931C43.9435 37.7517 43.1033 38.4502 42.071 38.4502C41.0386 38.4502 40.1988 37.7517 40.1988 36.8931C40.1988 36.0345 41.0386 35.3357 42.071 35.3357Z" fill="#0886AF"/>
<path d="M52.7147 41.8592C52.7147 42.3043 52.2806 42.6653 51.745 42.6653C51.2094 42.6653 50.7754 42.3043 50.7754 41.8592C50.7754 41.4137 51.2094 41.0527 51.745 41.0527C52.2806 41.0527 52.7147 41.4137 52.7147 41.8592Z" fill="#FB9D75"/>
<path d="M47.4814 42.6653C46.9458 42.6653 46.5117 42.3043 46.5117 41.8592C46.5117 41.4137 46.9458 41.0527 47.4814 41.0527C48.017 41.0527 48.451 41.4137 48.451 41.8592C48.451 42.3043 48.017 42.6653 47.4814 42.6653Z" fill="#B8D2EF"/>
<path d="M44.1883 41.8592C44.1883 42.3043 43.7543 42.6653 43.2187 42.6653C42.6831 42.6653 42.249 42.3043 42.249 41.8592C42.249 41.4137 42.6831 41.0527 43.2187 41.0527C43.7543 41.0527 44.1883 41.4137 44.1883 41.8592Z" fill="#FB9D75"/>
<path d="M39.9237 41.8592C39.9237 42.3043 39.4896 42.6653 38.954 42.6653C38.4184 42.6653 37.9844 42.3043 37.9844 41.8592C37.9844 41.4137 38.4184 41.0527 38.954 41.0527C39.4896 41.0527 39.9237 41.4137 39.9237 41.8592Z" fill="#FB9D75"/>
<path d="M35.66 41.8592C35.66 42.3043 35.2255 42.6653 34.6904 42.6653C34.1548 42.6653 33.7207 42.3043 33.7207 41.8592C33.7207 41.4137 34.1548 41.0527 34.6904 41.0527C35.2255 41.0527 35.66 41.4137 35.66 41.8592Z" fill="#FB9D75"/>
<path d="M3.53199 77.3835L3.49858 76.534H3.49897L3.53199 77.3835ZM3.49582 76.4499H3.49504L3.47656 75.9819H3.47735L3.49582 76.4499Z" fill="#C3C5C2"/>
<path d="M3.50074 76.5339H3.50027L3.49609 76.4498H3.49702L3.50074 76.5339Z" fill="#B1B3B1"/>
</svg>
