<svg width="48" height="48" viewBox="0 0 48 48" fill="none" xmlns="http://www.w3.org/2000/svg">
<path fill-rule="evenodd" clip-rule="evenodd" d="M24 0C10.7452 0 0 10.7452 0 24C0 37.2548 10.7452 48 24 48C37.2548 48 48 37.2548 48 24C48 10.7452 37.2548 0 24 0ZM11.5215 19.8779H16.9604V36.2189H11.5215V19.8779ZM17.3184 14.8224C17.2831 13.2203 16.1373 12 14.2767 12C12.4161 12 11.1997 13.2203 11.1997 14.8224C11.1997 16.3913 12.3801 17.6467 14.2061 17.6467H14.2408C16.1373 17.6467 17.3184 16.3913 17.3184 14.8224ZM30.3127 19.4932C33.8918 19.4932 36.575 21.8292 36.575 26.8483L36.5747 36.2175H31.136V27.4753C31.136 25.2794 30.349 23.781 28.3801 23.781C26.8775 23.781 25.9825 24.7912 25.5894 25.7668C25.4456 26.1165 25.4103 26.6036 25.4103 27.092V36.218H19.9707C19.9707 36.218 20.0424 21.4107 19.9707 19.8773H25.4103V22.1919C26.1321 21.0792 27.425 19.4932 30.3127 19.4932Z" fill="white"/>
</svg>
