<svg width="48" height="48" viewBox="0 0 48 48" fill="none" xmlns="http://www.w3.org/2000/svg">
<path fill-rule="evenodd" clip-rule="evenodd" d="M24 48C10.7452 48 0 37.2548 0 24C0 10.7452 10.7452 0 24 0C37.2548 0 48 10.7452 48 24C48 37.2548 37.2548 48 24 48ZM24.3342 22.6525C26.2993 22.6525 35.8541 17.2794 35.8541 17.2794L35.8695 16.3194C35.8695 15.2596 35.0093 14.3994 33.9466 14.3994H14.7217C13.66 14.3994 12.7998 15.2596 12.7998 16.3194V17.1748C12.7998 17.1748 22.4593 22.6525 24.3342 22.6525ZM12.8152 20.1591C12.8142 20.1591 22.4593 25.2924 24.3342 25.2924C26.3895 25.2924 35.8541 20.1591 35.8541 20.1591L35.8695 31.6798C35.8695 32.7397 35.0093 33.5999 33.9466 33.5999H14.7217C13.6609 33.5999 12.7998 32.7397 12.7998 31.6798L12.8152 20.1591Z" fill="white"/>
</svg>
