<svg width="48" height="48" viewBox="0 0 48 48" fill="none" xmlns="http://www.w3.org/2000/svg">
<path fill-rule="evenodd" clip-rule="evenodd" d="M0 24C0 37.2548 10.7452 48 24 48C37.2548 48 48 37.2548 48 24C48 10.7452 37.2548 0 24 0C10.7452 0 0 10.7452 0 24ZM19.5999 34.9993L20.0083 28.8817L20.0079 28.8815L31.1368 18.8388C31.6252 18.4054 31.0302 18.194 30.3818 18.5872L16.6472 27.2519L10.7146 25.4003C9.43344 25.008 9.42424 24.1276 11.0023 23.4947L34.1202 14.5808C35.1761 14.1015 36.1952 14.8344 35.7921 16.4504L31.8551 35.0024C31.5802 36.3207 30.7836 36.636 29.6799 36.027L23.6826 31.5963L20.7999 34.3993C20.7908 34.4081 20.7818 34.4169 20.7728 34.4257C20.4504 34.7396 20.1836 34.9993 19.5999 34.9993Z" fill="white"/>
</svg>
