<svg width="48" height="48" viewBox="0 0 48 48" fill="none" xmlns="http://www.w3.org/2000/svg">
<path fill-rule="evenodd" clip-rule="evenodd" d="M0 24C0 37.2548 10.7452 48 24 48C37.2548 48 48 37.2548 48 24C48 10.7452 37.2548 0 24 0C10.7452 0 0 10.7452 0 24ZM39.0625 23.0809C39.0593 30.9477 32.6599 37.3488 24.7914 37.352H24.7855C22.3971 37.3512 20.0502 36.7519 17.9657 35.6149L10.4004 37.5995L12.425 30.2043C11.1761 28.0399 10.519 25.5849 10.52 23.0696C10.5232 15.201 16.9252 8.7993 24.7913 8.7993C28.609 8.80095 32.1922 10.2872 34.8866 12.9847C37.581 15.6822 39.064 19.2677 39.0625 23.0809Z" fill="white"/>
<path fill-rule="evenodd" clip-rule="evenodd" d="M13.827 34.2077L18.3164 33.0301L18.7495 33.2872C20.5707 34.3678 22.6583 34.9397 24.7868 34.9405H24.7916C31.3294 34.9405 36.6505 29.6195 36.6531 23.0793C36.6543 19.9099 35.4217 16.9299 33.1822 14.6879C30.9427 12.4459 27.9645 11.2106 24.7963 11.2095C18.2534 11.2095 12.9323 16.5299 12.9297 23.0697C12.9288 25.3109 13.5559 27.4935 14.7433 29.382L15.0253 29.8308L13.827 34.2077ZM31.4934 26.1528C31.7421 26.273 31.9101 26.3542 31.9818 26.4739C32.0709 26.6225 32.0709 27.3364 31.7739 28.1695C31.4766 29.0023 30.0521 29.7625 29.3669 29.8648C28.7526 29.9567 27.9751 29.995 27.121 29.7235C26.603 29.5592 25.9389 29.3398 25.0881 28.9724C21.7452 27.5291 19.486 24.2893 19.0591 23.677C19.0292 23.6341 19.0082 23.6041 18.9966 23.5885L18.9937 23.5847C18.805 23.3329 17.5405 21.6459 17.5405 19.9C17.5405 18.2576 18.3474 17.3967 18.7188 17.0004C18.7442 16.9733 18.7676 16.9483 18.7886 16.9254C19.1154 16.5685 19.5017 16.4792 19.7395 16.4792C19.9771 16.4792 20.2151 16.4814 20.4229 16.4919C20.4485 16.4931 20.4752 16.493 20.5028 16.4928C20.7106 16.4916 20.9696 16.4901 21.2252 17.1039C21.3235 17.3402 21.4674 17.6904 21.6191 18.0598C21.926 18.8068 22.265 19.632 22.3246 19.7514C22.4138 19.9299 22.4732 20.1381 22.3543 20.3761C22.3365 20.4118 22.32 20.4455 22.3042 20.4777C22.215 20.66 22.1493 20.794 21.9978 20.9709C21.9382 21.0405 21.8766 21.1155 21.815 21.1905C21.6923 21.3398 21.5697 21.4892 21.4629 21.5956C21.2844 21.7734 21.0985 21.9663 21.3065 22.3233C21.5145 22.6803 22.2302 23.8478 23.2903 24.7933C24.4298 25.8097 25.4202 26.2392 25.9222 26.457C26.0202 26.4995 26.0996 26.5339 26.1579 26.5631C26.5143 26.7416 26.7223 26.7118 26.9304 26.4739C27.1384 26.2359 27.8218 25.4327 28.0595 25.0758C28.2971 24.7189 28.5349 24.7784 28.8617 24.8973C29.1887 25.0164 30.9418 25.8789 31.2984 26.0574C31.368 26.0922 31.4331 26.1237 31.4934 26.1528Z" fill="white"/>
</svg>
